G04 #@! TF.FileFunction,Soldermask,Top*
%FSLAX46Y46*%
G04 Gerber Fmt 4.6, Leading zero omitted, Abs format (unit mm)*
G04 Created by KiCad (PCBNEW 4.0.2-stable) date 01/06/2016 13:38:34*
%MOMM*%
G01*
G04 APERTURE LIST*
%ADD10C,0.100000*%
%ADD11C,0.700000*%
%ADD12C,1.524000*%
%ADD13C,3.500000*%
%ADD14R,1.198880X1.198880*%
%ADD15C,1.998980*%
%ADD16R,1.727200X2.032000*%
%ADD17O,1.727200X2.032000*%
%ADD18R,1.500000X1.250000*%
%ADD19R,1.300000X1.300000*%
%ADD20C,1.300000*%
%ADD21R,2.032000X1.727200*%
%ADD22O,2.032000X1.727200*%
%ADD23C,4.800600*%
%ADD24R,4.800600X4.800600*%
%ADD25R,2.000000X2.000000*%
%ADD26C,2.000000*%
%ADD27R,1.500000X1.300000*%
%ADD28R,1.300000X1.500000*%
%ADD29R,1.060000X0.650000*%
%ADD30R,1.727200X1.727200*%
%ADD31O,1.727200X1.727200*%
%ADD32R,4.600000X1.390000*%
%ADD33R,9.400000X10.800000*%
%ADD34R,2.235200X2.235200*%
%ADD35C,2.300000*%
%ADD36C,4.000000*%
%ADD37R,1.998980X2.301240*%
%ADD38C,4.064000*%
%ADD39C,3.000000*%
%ADD40C,1.500000*%
%ADD41R,1.498600X2.197100*%
%ADD42O,1.498600X2.197100*%
%ADD43R,2.999740X2.999740*%
%ADD44C,2.999740*%
%ADD45C,2.200000*%
%ADD46C,2.600000*%
%ADD47C,2.800000*%
%ADD48R,1.998980X5.499100*%
G04 APERTURE END LIST*
D10*
D11*
X160610000Y-98340000D03*
X160610000Y-97240000D03*
D12*
X131270000Y-114475000D03*
X129270000Y-114475000D03*
X127270000Y-114475000D03*
X125270000Y-114475000D03*
D13*
X128270000Y-138975000D03*
D14*
X161925000Y-71340980D03*
X161925000Y-73439020D03*
X158115000Y-71340980D03*
X158115000Y-73439020D03*
D15*
X139623800Y-141315440D03*
X146126200Y-136814560D03*
X139623800Y-136814560D03*
X146126200Y-141315440D03*
D16*
X139700000Y-131445000D03*
D17*
X142240000Y-131445000D03*
X144780000Y-131445000D03*
X147320000Y-131445000D03*
D18*
X137775000Y-109855000D03*
X135275000Y-109855000D03*
X188615000Y-99695000D03*
X191115000Y-99695000D03*
X191115000Y-85725000D03*
X188615000Y-85725000D03*
D10*
G36*
X176578845Y-84117729D02*
X177462729Y-83233845D01*
X178523389Y-84294505D01*
X177639505Y-85178389D01*
X176578845Y-84117729D01*
X176578845Y-84117729D01*
G37*
G36*
X178346611Y-85885495D02*
X179230495Y-85001611D01*
X180291155Y-86062271D01*
X179407271Y-86946155D01*
X178346611Y-85885495D01*
X178346611Y-85885495D01*
G37*
G36*
X162857729Y-87581155D02*
X161973845Y-86697271D01*
X163034505Y-85636611D01*
X163918389Y-86520495D01*
X162857729Y-87581155D01*
X162857729Y-87581155D01*
G37*
G36*
X164625495Y-85813389D02*
X163741611Y-84929505D01*
X164802271Y-83868845D01*
X165686155Y-84752729D01*
X164625495Y-85813389D01*
X164625495Y-85813389D01*
G37*
G36*
X165051155Y-100667271D02*
X164167271Y-101551155D01*
X163106611Y-100490495D01*
X163990495Y-99606611D01*
X165051155Y-100667271D01*
X165051155Y-100667271D01*
G37*
G36*
X163283389Y-98899505D02*
X162399505Y-99783389D01*
X161338845Y-98722729D01*
X162222729Y-97838845D01*
X163283389Y-98899505D01*
X163283389Y-98899505D01*
G37*
G36*
X177462729Y-101551155D02*
X176578845Y-100667271D01*
X177639505Y-99606611D01*
X178523389Y-100490495D01*
X177462729Y-101551155D01*
X177462729Y-101551155D01*
G37*
G36*
X179230495Y-99783389D02*
X178346611Y-98899505D01*
X179407271Y-97838845D01*
X180291155Y-98722729D01*
X179230495Y-99783389D01*
X179230495Y-99783389D01*
G37*
D19*
X130175000Y-71120000D03*
D20*
X125175000Y-71120000D03*
X117800000Y-133985000D03*
D19*
X114300000Y-133985000D03*
D20*
X135295000Y-71120000D03*
D19*
X137795000Y-71120000D03*
D20*
X149535000Y-71120000D03*
D19*
X153035000Y-71120000D03*
X157480000Y-92075000D03*
D20*
X157480000Y-94075000D03*
D21*
X156845000Y-85090000D03*
D22*
X156845000Y-82550000D03*
X156845000Y-80010000D03*
X156845000Y-77470000D03*
D21*
X139700000Y-114935000D03*
D22*
X139700000Y-117475000D03*
X139700000Y-120015000D03*
D23*
X120015000Y-86360000D03*
D24*
X126111000Y-86360000D03*
D23*
X122301000Y-91440000D03*
D21*
X205740000Y-78105000D03*
D22*
X205740000Y-80645000D03*
X205740000Y-83185000D03*
X205740000Y-85725000D03*
X205740000Y-88265000D03*
X205740000Y-90805000D03*
X205740000Y-93345000D03*
X205740000Y-95885000D03*
X205740000Y-98425000D03*
D21*
X115570000Y-127635000D03*
D22*
X115570000Y-125095000D03*
X115570000Y-122555000D03*
X115570000Y-120015000D03*
X115570000Y-117475000D03*
X115570000Y-114935000D03*
X115570000Y-112395000D03*
X115570000Y-109855000D03*
X115570000Y-107315000D03*
X115570000Y-104775000D03*
X115570000Y-102235000D03*
X115570000Y-99695000D03*
X115570000Y-97155000D03*
X115570000Y-94615000D03*
D16*
X188595000Y-69215000D03*
D17*
X186055000Y-69215000D03*
X183515000Y-69215000D03*
X180975000Y-69215000D03*
X178435000Y-69215000D03*
X175895000Y-69215000D03*
X173355000Y-69215000D03*
X170815000Y-69215000D03*
X168275000Y-69215000D03*
X165735000Y-69215000D03*
D21*
X205740000Y-108585000D03*
D22*
X205740000Y-106045000D03*
X205740000Y-103505000D03*
X205740000Y-100965000D03*
D16*
X165735000Y-73660000D03*
D17*
X168275000Y-73660000D03*
X170815000Y-73660000D03*
X173355000Y-73660000D03*
X175895000Y-73660000D03*
X178435000Y-73660000D03*
X180975000Y-73660000D03*
X183515000Y-73660000D03*
X186055000Y-73660000D03*
X188595000Y-73660000D03*
X191135000Y-73660000D03*
X193675000Y-73660000D03*
X196215000Y-73660000D03*
X198755000Y-73660000D03*
X201295000Y-73660000D03*
X203835000Y-73660000D03*
D14*
X194089020Y-109220000D03*
X191990980Y-109220000D03*
X146685000Y-91660980D03*
X146685000Y-93759020D03*
X196215000Y-68165980D03*
X196215000Y-70264020D03*
D25*
X184150000Y-140970000D03*
D26*
X186690000Y-140970000D03*
D25*
X184150000Y-134620000D03*
D26*
X186690000Y-134620000D03*
D25*
X184150000Y-128270000D03*
D26*
X186690000Y-128270000D03*
D25*
X184150000Y-121920000D03*
D26*
X186690000Y-121920000D03*
D21*
X142240000Y-114935000D03*
D22*
X142240000Y-117475000D03*
X142240000Y-120015000D03*
D16*
X153035000Y-133350000D03*
D17*
X155575000Y-133350000D03*
X158115000Y-133350000D03*
D16*
X163830000Y-133350000D03*
D17*
X166370000Y-133350000D03*
X168910000Y-133350000D03*
D16*
X174625000Y-133350000D03*
D17*
X177165000Y-133350000D03*
X179705000Y-133350000D03*
D21*
X169545000Y-116205000D03*
D22*
X169545000Y-113665000D03*
X169545000Y-111125000D03*
D21*
X180340000Y-116205000D03*
D22*
X180340000Y-113665000D03*
X180340000Y-111125000D03*
D27*
X198040000Y-109220000D03*
X200740000Y-109220000D03*
X121365000Y-107315000D03*
X118665000Y-107315000D03*
X121365000Y-112395000D03*
X118665000Y-112395000D03*
X135175000Y-107315000D03*
X137875000Y-107315000D03*
X139780000Y-102235000D03*
X137080000Y-102235000D03*
X135175000Y-112395000D03*
X137875000Y-112395000D03*
X137080000Y-97155000D03*
X139780000Y-97155000D03*
X137080000Y-99695000D03*
X139780000Y-99695000D03*
X137080000Y-94615000D03*
X139780000Y-94615000D03*
D28*
X149225000Y-94060000D03*
X149225000Y-91360000D03*
D27*
X172165000Y-81280000D03*
X169465000Y-81280000D03*
X163750000Y-81280000D03*
X166450000Y-81280000D03*
X163750000Y-104140000D03*
X166450000Y-104140000D03*
X169465000Y-104140000D03*
X172165000Y-104140000D03*
D28*
X201295000Y-67865000D03*
X201295000Y-70565000D03*
D29*
X137330000Y-89220000D03*
X137330000Y-90170000D03*
X137330000Y-91120000D03*
X139530000Y-91120000D03*
X139530000Y-89220000D03*
D30*
X132080000Y-109220000D03*
D31*
X132080000Y-111760000D03*
X129540000Y-109220000D03*
X129540000Y-111760000D03*
X127000000Y-109220000D03*
X127000000Y-111760000D03*
X124460000Y-109220000D03*
X124460000Y-111760000D03*
D32*
X140335000Y-81280000D03*
D33*
X149485000Y-81280000D03*
D32*
X140335000Y-83820000D03*
X140335000Y-78740000D03*
D10*
G36*
X168888134Y-85515188D02*
X169277042Y-85126280D01*
X170337702Y-86186940D01*
X169948794Y-86575848D01*
X168888134Y-85515188D01*
X168888134Y-85515188D01*
G37*
G36*
X168322449Y-86080874D02*
X168711357Y-85691966D01*
X169772017Y-86752626D01*
X169383109Y-87141534D01*
X168322449Y-86080874D01*
X168322449Y-86080874D01*
G37*
G36*
X167756764Y-86646559D02*
X168145672Y-86257651D01*
X169206332Y-87318311D01*
X168817424Y-87707219D01*
X167756764Y-86646559D01*
X167756764Y-86646559D01*
G37*
G36*
X167191078Y-87212244D02*
X167579986Y-86823336D01*
X168640646Y-87883996D01*
X168251738Y-88272904D01*
X167191078Y-87212244D01*
X167191078Y-87212244D01*
G37*
G36*
X166625393Y-87777930D02*
X167014301Y-87389022D01*
X168074961Y-88449682D01*
X167686053Y-88838590D01*
X166625393Y-87777930D01*
X166625393Y-87777930D01*
G37*
G36*
X166059707Y-88343615D02*
X166448615Y-87954707D01*
X167509275Y-89015367D01*
X167120367Y-89404275D01*
X166059707Y-88343615D01*
X166059707Y-88343615D01*
G37*
G36*
X165494022Y-88909301D02*
X165882930Y-88520393D01*
X166943590Y-89581053D01*
X166554682Y-89969961D01*
X165494022Y-88909301D01*
X165494022Y-88909301D01*
G37*
G36*
X164928336Y-89474986D02*
X165317244Y-89086078D01*
X166377904Y-90146738D01*
X165988996Y-90535646D01*
X164928336Y-89474986D01*
X164928336Y-89474986D01*
G37*
G36*
X164362651Y-90040672D02*
X164751559Y-89651764D01*
X165812219Y-90712424D01*
X165423311Y-91101332D01*
X164362651Y-90040672D01*
X164362651Y-90040672D01*
G37*
G36*
X163796966Y-90606357D02*
X164185874Y-90217449D01*
X165246534Y-91278109D01*
X164857626Y-91667017D01*
X163796966Y-90606357D01*
X163796966Y-90606357D01*
G37*
G36*
X163231280Y-91172042D02*
X163620188Y-90783134D01*
X164680848Y-91843794D01*
X164291940Y-92232702D01*
X163231280Y-91172042D01*
X163231280Y-91172042D01*
G37*
G36*
X163620188Y-94636866D02*
X163231280Y-94247958D01*
X164291940Y-93187298D01*
X164680848Y-93576206D01*
X163620188Y-94636866D01*
X163620188Y-94636866D01*
G37*
G36*
X164185874Y-95202551D02*
X163796966Y-94813643D01*
X164857626Y-93752983D01*
X165246534Y-94141891D01*
X164185874Y-95202551D01*
X164185874Y-95202551D01*
G37*
G36*
X164751559Y-95768236D02*
X164362651Y-95379328D01*
X165423311Y-94318668D01*
X165812219Y-94707576D01*
X164751559Y-95768236D01*
X164751559Y-95768236D01*
G37*
G36*
X165317244Y-96333922D02*
X164928336Y-95945014D01*
X165988996Y-94884354D01*
X166377904Y-95273262D01*
X165317244Y-96333922D01*
X165317244Y-96333922D01*
G37*
G36*
X165882930Y-96899607D02*
X165494022Y-96510699D01*
X166554682Y-95450039D01*
X166943590Y-95838947D01*
X165882930Y-96899607D01*
X165882930Y-96899607D01*
G37*
G36*
X166448615Y-97465293D02*
X166059707Y-97076385D01*
X167120367Y-96015725D01*
X167509275Y-96404633D01*
X166448615Y-97465293D01*
X166448615Y-97465293D01*
G37*
G36*
X167014301Y-98030978D02*
X166625393Y-97642070D01*
X167686053Y-96581410D01*
X168074961Y-96970318D01*
X167014301Y-98030978D01*
X167014301Y-98030978D01*
G37*
G36*
X167579986Y-98596664D02*
X167191078Y-98207756D01*
X168251738Y-97147096D01*
X168640646Y-97536004D01*
X167579986Y-98596664D01*
X167579986Y-98596664D01*
G37*
G36*
X168145672Y-99162349D02*
X167756764Y-98773441D01*
X168817424Y-97712781D01*
X169206332Y-98101689D01*
X168145672Y-99162349D01*
X168145672Y-99162349D01*
G37*
G36*
X168711357Y-99728034D02*
X168322449Y-99339126D01*
X169383109Y-98278466D01*
X169772017Y-98667374D01*
X168711357Y-99728034D01*
X168711357Y-99728034D01*
G37*
G36*
X169277042Y-100293720D02*
X168888134Y-99904812D01*
X169948794Y-98844152D01*
X170337702Y-99233060D01*
X169277042Y-100293720D01*
X169277042Y-100293720D01*
G37*
G36*
X171292298Y-99233060D02*
X171681206Y-98844152D01*
X172741866Y-99904812D01*
X172352958Y-100293720D01*
X171292298Y-99233060D01*
X171292298Y-99233060D01*
G37*
G36*
X171857983Y-98667374D02*
X172246891Y-98278466D01*
X173307551Y-99339126D01*
X172918643Y-99728034D01*
X171857983Y-98667374D01*
X171857983Y-98667374D01*
G37*
G36*
X172423668Y-98101689D02*
X172812576Y-97712781D01*
X173873236Y-98773441D01*
X173484328Y-99162349D01*
X172423668Y-98101689D01*
X172423668Y-98101689D01*
G37*
G36*
X172989354Y-97536004D02*
X173378262Y-97147096D01*
X174438922Y-98207756D01*
X174050014Y-98596664D01*
X172989354Y-97536004D01*
X172989354Y-97536004D01*
G37*
G36*
X173555039Y-96970318D02*
X173943947Y-96581410D01*
X175004607Y-97642070D01*
X174615699Y-98030978D01*
X173555039Y-96970318D01*
X173555039Y-96970318D01*
G37*
G36*
X174120725Y-96404633D02*
X174509633Y-96015725D01*
X175570293Y-97076385D01*
X175181385Y-97465293D01*
X174120725Y-96404633D01*
X174120725Y-96404633D01*
G37*
G36*
X174686410Y-95838947D02*
X175075318Y-95450039D01*
X176135978Y-96510699D01*
X175747070Y-96899607D01*
X174686410Y-95838947D01*
X174686410Y-95838947D01*
G37*
G36*
X175252096Y-95273262D02*
X175641004Y-94884354D01*
X176701664Y-95945014D01*
X176312756Y-96333922D01*
X175252096Y-95273262D01*
X175252096Y-95273262D01*
G37*
G36*
X175817781Y-94707576D02*
X176206689Y-94318668D01*
X177267349Y-95379328D01*
X176878441Y-95768236D01*
X175817781Y-94707576D01*
X175817781Y-94707576D01*
G37*
G36*
X176383466Y-94141891D02*
X176772374Y-93752983D01*
X177833034Y-94813643D01*
X177444126Y-95202551D01*
X176383466Y-94141891D01*
X176383466Y-94141891D01*
G37*
G36*
X176949152Y-93576206D02*
X177338060Y-93187298D01*
X178398720Y-94247958D01*
X178009812Y-94636866D01*
X176949152Y-93576206D01*
X176949152Y-93576206D01*
G37*
G36*
X177338060Y-92232702D02*
X176949152Y-91843794D01*
X178009812Y-90783134D01*
X178398720Y-91172042D01*
X177338060Y-92232702D01*
X177338060Y-92232702D01*
G37*
G36*
X176772374Y-91667017D02*
X176383466Y-91278109D01*
X177444126Y-90217449D01*
X177833034Y-90606357D01*
X176772374Y-91667017D01*
X176772374Y-91667017D01*
G37*
G36*
X176206689Y-91101332D02*
X175817781Y-90712424D01*
X176878441Y-89651764D01*
X177267349Y-90040672D01*
X176206689Y-91101332D01*
X176206689Y-91101332D01*
G37*
G36*
X175641004Y-90535646D02*
X175252096Y-90146738D01*
X176312756Y-89086078D01*
X176701664Y-89474986D01*
X175641004Y-90535646D01*
X175641004Y-90535646D01*
G37*
G36*
X175075318Y-89969961D02*
X174686410Y-89581053D01*
X175747070Y-88520393D01*
X176135978Y-88909301D01*
X175075318Y-89969961D01*
X175075318Y-89969961D01*
G37*
G36*
X174509633Y-89404275D02*
X174120725Y-89015367D01*
X175181385Y-87954707D01*
X175570293Y-88343615D01*
X174509633Y-89404275D01*
X174509633Y-89404275D01*
G37*
G36*
X173943947Y-88838590D02*
X173555039Y-88449682D01*
X174615699Y-87389022D01*
X175004607Y-87777930D01*
X173943947Y-88838590D01*
X173943947Y-88838590D01*
G37*
G36*
X173378262Y-88272904D02*
X172989354Y-87883996D01*
X174050014Y-86823336D01*
X174438922Y-87212244D01*
X173378262Y-88272904D01*
X173378262Y-88272904D01*
G37*
G36*
X172812576Y-87707219D02*
X172423668Y-87318311D01*
X173484328Y-86257651D01*
X173873236Y-86646559D01*
X172812576Y-87707219D01*
X172812576Y-87707219D01*
G37*
G36*
X172246891Y-87141534D02*
X171857983Y-86752626D01*
X172918643Y-85691966D01*
X173307551Y-86080874D01*
X172246891Y-87141534D01*
X172246891Y-87141534D01*
G37*
G36*
X171681206Y-86575848D02*
X171292298Y-86186940D01*
X172352958Y-85126280D01*
X172741866Y-85515188D01*
X171681206Y-86575848D01*
X171681206Y-86575848D01*
G37*
D21*
X133350000Y-102235000D03*
D22*
X133350000Y-99695000D03*
X133350000Y-97155000D03*
X133350000Y-94615000D03*
X133350000Y-92075000D03*
X133350000Y-89535000D03*
X133350000Y-86995000D03*
D21*
X144780000Y-114935000D03*
D22*
X144780000Y-117475000D03*
X144780000Y-120015000D03*
D21*
X147320000Y-114935000D03*
D22*
X147320000Y-117475000D03*
X147320000Y-120015000D03*
D34*
X151765000Y-105410000D03*
D35*
X163870000Y-128825000D03*
X166370000Y-118825000D03*
X168870000Y-128825000D03*
D36*
X166370000Y-123825000D03*
D35*
X194985000Y-86915000D03*
X197485000Y-76915000D03*
X199985000Y-86915000D03*
D36*
X197485000Y-81915000D03*
D35*
X174665000Y-128825000D03*
X177165000Y-118825000D03*
X179665000Y-128825000D03*
D36*
X177165000Y-123825000D03*
D37*
X145519140Y-71120000D03*
X141500860Y-71120000D03*
D38*
X114300000Y-67945000D03*
X207010000Y-67945000D03*
D39*
X196850000Y-105029000D03*
X196850000Y-91821000D03*
D40*
X121295000Y-100330000D03*
X128895000Y-100330000D03*
D37*
X135359140Y-81280000D03*
X131340860Y-81280000D03*
D41*
X139700000Y-133972300D03*
D42*
X142240000Y-133985000D03*
X144780000Y-133985000D03*
X147320000Y-133985000D03*
X147320000Y-126365000D03*
X144780000Y-126365000D03*
X142240000Y-126365000D03*
X139700000Y-126365000D03*
D16*
X175895000Y-107315000D03*
D17*
X173355000Y-107315000D03*
X170815000Y-107315000D03*
X168275000Y-107315000D03*
X165735000Y-107315000D03*
D43*
X116840000Y-78740000D03*
D44*
X116840000Y-73660000D03*
D35*
X153075000Y-128825000D03*
X155575000Y-118825000D03*
X158075000Y-128825000D03*
D36*
X155575000Y-123825000D03*
D45*
X190215000Y-116455000D03*
D46*
X190215000Y-128655000D03*
X202215000Y-128655000D03*
D45*
X202215000Y-116455000D03*
D47*
X196215000Y-114455000D03*
D43*
X201295000Y-137160000D03*
D44*
X196215000Y-137160000D03*
X191135000Y-137160000D03*
D48*
X184785000Y-97459800D03*
X184785000Y-87960200D03*
D38*
X114300000Y-140970000D03*
X207010000Y-140970000D03*
D15*
X149148800Y-141315440D03*
X155651200Y-136814560D03*
X149148800Y-136814560D03*
X155651200Y-141315440D03*
X158673800Y-141315440D03*
X165176200Y-136814560D03*
X158673800Y-136814560D03*
X165176200Y-141315440D03*
X168198800Y-141315440D03*
X174701200Y-136814560D03*
X168198800Y-136814560D03*
X174701200Y-141315440D03*
X162001200Y-108874560D03*
X155498800Y-113375440D03*
X162001200Y-113375440D03*
X155498800Y-108874560D03*
M02*
