G04 #@! TF.FileFunction,Legend,Top*
%FSLAX46Y46*%
G04 Gerber Fmt 4.6, Leading zero omitted, Abs format (unit mm)*
G04 Created by KiCad (PCBNEW 4.0.2-stable) date 01/06/2016 13:38:34*
%MOMM*%
G01*
G04 APERTURE LIST*
%ADD10C,0.100000*%
%ADD11C,0.150000*%
%ADD12C,0.300000*%
%ADD13C,0.500000*%
%ADD14C,0.635000*%
%ADD15C,0.200000*%
%ADD16C,2.540000*%
%ADD17C,0.152400*%
%ADD18C,0.127000*%
%ADD19C,0.254000*%
G04 APERTURE END LIST*
D10*
D11*
X154138571Y-101163381D02*
X154138571Y-100496714D01*
X154138571Y-100687190D02*
X154186190Y-100591952D01*
X154233809Y-100544333D01*
X154329047Y-100496714D01*
X154424286Y-100496714D01*
X155138572Y-101115762D02*
X155043334Y-101163381D01*
X154852857Y-101163381D01*
X154757619Y-101115762D01*
X154710000Y-101020524D01*
X154710000Y-100639571D01*
X154757619Y-100544333D01*
X154852857Y-100496714D01*
X155043334Y-100496714D01*
X155138572Y-100544333D01*
X155186191Y-100639571D01*
X155186191Y-100734810D01*
X154710000Y-100830048D01*
X155519524Y-100496714D02*
X155757619Y-101163381D01*
X155995715Y-100496714D01*
X156567143Y-100163381D02*
X156662382Y-100163381D01*
X156757620Y-100211000D01*
X156805239Y-100258619D01*
X156852858Y-100353857D01*
X156900477Y-100544333D01*
X156900477Y-100782429D01*
X156852858Y-100972905D01*
X156805239Y-101068143D01*
X156757620Y-101115762D01*
X156662382Y-101163381D01*
X156567143Y-101163381D01*
X156471905Y-101115762D01*
X156424286Y-101068143D01*
X156376667Y-100972905D01*
X156329048Y-100782429D01*
X156329048Y-100544333D01*
X156376667Y-100353857D01*
X156424286Y-100258619D01*
X156471905Y-100211000D01*
X156567143Y-100163381D01*
X157329048Y-101068143D02*
X157376667Y-101115762D01*
X157329048Y-101163381D01*
X157281429Y-101115762D01*
X157329048Y-101068143D01*
X157329048Y-101163381D01*
X158329048Y-101163381D02*
X157757619Y-101163381D01*
X158043333Y-101163381D02*
X158043333Y-100163381D01*
X157948095Y-100306238D01*
X157852857Y-100401476D01*
X157757619Y-100449095D01*
D12*
X149015000Y-102913571D02*
X149015000Y-101413571D01*
X149515000Y-102485000D01*
X150015000Y-101413571D01*
X150015000Y-102913571D01*
X150729286Y-102913571D02*
X150729286Y-101413571D01*
X151229286Y-102485000D01*
X151729286Y-101413571D01*
X151729286Y-102913571D01*
X152443572Y-102127857D02*
X152943572Y-102127857D01*
X153157858Y-102913571D02*
X152443572Y-102913571D01*
X152443572Y-101413571D01*
X153157858Y-101413571D01*
X153729286Y-102842143D02*
X153943572Y-102913571D01*
X154300715Y-102913571D01*
X154443572Y-102842143D01*
X154515001Y-102770714D01*
X154586429Y-102627857D01*
X154586429Y-102485000D01*
X154515001Y-102342143D01*
X154443572Y-102270714D01*
X154300715Y-102199286D01*
X154015001Y-102127857D01*
X153872143Y-102056429D01*
X153800715Y-101985000D01*
X153729286Y-101842143D01*
X153729286Y-101699286D01*
X153800715Y-101556429D01*
X153872143Y-101485000D01*
X154015001Y-101413571D01*
X154372143Y-101413571D01*
X154586429Y-101485000D01*
D13*
X168656000Y-84455000D02*
G75*
G03X168656000Y-84455000I-381000J0D01*
G01*
D14*
X146987381Y-97034048D02*
X147592143Y-99574048D01*
X148075953Y-97759762D01*
X148559762Y-99574048D01*
X149164524Y-97034048D01*
X150978810Y-98243571D02*
X151341667Y-98364524D01*
X151462619Y-98485476D01*
X151583571Y-98727381D01*
X151583571Y-99090238D01*
X151462619Y-99332143D01*
X151341667Y-99453095D01*
X151099762Y-99574048D01*
X150132143Y-99574048D01*
X150132143Y-97034048D01*
X150978810Y-97034048D01*
X151220714Y-97155000D01*
X151341667Y-97275952D01*
X151462619Y-97517857D01*
X151462619Y-97759762D01*
X151341667Y-98001667D01*
X151220714Y-98122619D01*
X150978810Y-98243571D01*
X150132143Y-98243571D01*
X152430238Y-97034048D02*
X154002619Y-97034048D01*
X153155952Y-98001667D01*
X153518810Y-98001667D01*
X153760714Y-98122619D01*
X153881667Y-98243571D01*
X154002619Y-98485476D01*
X154002619Y-99090238D01*
X153881667Y-99332143D01*
X153760714Y-99453095D01*
X153518810Y-99574048D01*
X152793095Y-99574048D01*
X152551191Y-99453095D01*
X152430238Y-99332143D01*
X154970239Y-97275952D02*
X155091191Y-97155000D01*
X155333096Y-97034048D01*
X155937858Y-97034048D01*
X156179762Y-97155000D01*
X156300715Y-97275952D01*
X156421667Y-97517857D01*
X156421667Y-97759762D01*
X156300715Y-98122619D01*
X154849286Y-99574048D01*
X156421667Y-99574048D01*
D12*
X206902857Y-136834285D02*
X206902857Y-137334285D01*
X207688571Y-137334285D02*
X206188571Y-137334285D01*
X206188571Y-136619999D01*
X206188571Y-136191428D02*
X207688571Y-135834285D01*
X206617143Y-135548571D01*
X207688571Y-135262857D01*
X206188571Y-134905714D01*
X207831429Y-134691428D02*
X207831429Y-133548571D01*
X206188571Y-133405714D02*
X207688571Y-132905714D01*
X206188571Y-132405714D01*
X207545714Y-131905714D02*
X207617143Y-131834286D01*
X207688571Y-131905714D01*
X207617143Y-131977143D01*
X207545714Y-131905714D01*
X207688571Y-131905714D01*
X206760000Y-131905714D02*
X206831429Y-131834286D01*
X206902857Y-131905714D01*
X206831429Y-131977143D01*
X206760000Y-131905714D01*
X206902857Y-131905714D01*
D11*
X198207381Y-70476905D02*
X199016905Y-70476905D01*
X199112143Y-70429286D01*
X199159762Y-70381667D01*
X199207381Y-70286429D01*
X199207381Y-70095952D01*
X199159762Y-70000714D01*
X199112143Y-69953095D01*
X199016905Y-69905476D01*
X198207381Y-69905476D01*
X199159762Y-69476905D02*
X199207381Y-69334048D01*
X199207381Y-69095952D01*
X199159762Y-69000714D01*
X199112143Y-68953095D01*
X199016905Y-68905476D01*
X198921667Y-68905476D01*
X198826429Y-68953095D01*
X198778810Y-69000714D01*
X198731190Y-69095952D01*
X198683571Y-69286429D01*
X198635952Y-69381667D01*
X198588333Y-69429286D01*
X198493095Y-69476905D01*
X198397857Y-69476905D01*
X198302619Y-69429286D01*
X198255000Y-69381667D01*
X198207381Y-69286429D01*
X198207381Y-69048333D01*
X198255000Y-68905476D01*
X198683571Y-68143571D02*
X198731190Y-68000714D01*
X198778810Y-67953095D01*
X198874048Y-67905476D01*
X199016905Y-67905476D01*
X199112143Y-67953095D01*
X199159762Y-68000714D01*
X199207381Y-68095952D01*
X199207381Y-68476905D01*
X198207381Y-68476905D01*
X198207381Y-68143571D01*
X198255000Y-68048333D01*
X198302619Y-68000714D01*
X198397857Y-67953095D01*
X198493095Y-67953095D01*
X198588333Y-68000714D01*
X198635952Y-68048333D01*
X198683571Y-68143571D01*
X198683571Y-68476905D01*
X145827857Y-89622381D02*
X146399286Y-89622381D01*
X146113571Y-90622381D02*
X146113571Y-89622381D01*
X146637381Y-89622381D02*
X146875476Y-90622381D01*
X147065953Y-89908095D01*
X147256429Y-90622381D01*
X147494524Y-89622381D01*
D15*
X163195000Y-107315000D02*
X162560000Y-107315000D01*
X163195000Y-107950000D02*
X163830000Y-107315000D01*
X163830000Y-107315000D02*
X163195000Y-106680000D01*
X163195000Y-107315000D02*
X163830000Y-107315000D01*
D11*
X121991429Y-79120952D02*
X121991429Y-78359047D01*
X121991429Y-74040952D02*
X121991429Y-73279047D01*
X122372381Y-73659999D02*
X121610476Y-73659999D01*
X112847381Y-99885476D02*
X112847381Y-100456905D01*
X112847381Y-100171191D02*
X111847381Y-100171191D01*
X111990238Y-100266429D01*
X112085476Y-100361667D01*
X112133095Y-100456905D01*
X111847381Y-99552143D02*
X111847381Y-98933095D01*
X112228333Y-99266429D01*
X112228333Y-99123571D01*
X112275952Y-99028333D01*
X112323571Y-98980714D01*
X112418810Y-98933095D01*
X112656905Y-98933095D01*
X112752143Y-98980714D01*
X112799762Y-99028333D01*
X112847381Y-99123571D01*
X112847381Y-99409286D01*
X112799762Y-99504524D01*
X112752143Y-99552143D01*
X112847381Y-102425476D02*
X112847381Y-102996905D01*
X112847381Y-102711191D02*
X111847381Y-102711191D01*
X111990238Y-102806429D01*
X112085476Y-102901667D01*
X112133095Y-102996905D01*
X112847381Y-101473095D02*
X112847381Y-102044524D01*
X112847381Y-101758810D02*
X111847381Y-101758810D01*
X111990238Y-101854048D01*
X112085476Y-101949286D01*
X112133095Y-102044524D01*
X112847381Y-104965476D02*
X112847381Y-105536905D01*
X112847381Y-105251191D02*
X111847381Y-105251191D01*
X111990238Y-105346429D01*
X112085476Y-105441667D01*
X112133095Y-105536905D01*
X111847381Y-104346429D02*
X111847381Y-104251190D01*
X111895000Y-104155952D01*
X111942619Y-104108333D01*
X112037857Y-104060714D01*
X112228333Y-104013095D01*
X112466429Y-104013095D01*
X112656905Y-104060714D01*
X112752143Y-104108333D01*
X112799762Y-104155952D01*
X112847381Y-104251190D01*
X112847381Y-104346429D01*
X112799762Y-104441667D01*
X112752143Y-104489286D01*
X112656905Y-104536905D01*
X112466429Y-104584524D01*
X112228333Y-104584524D01*
X112037857Y-104536905D01*
X111942619Y-104489286D01*
X111895000Y-104441667D01*
X111847381Y-104346429D01*
X112847381Y-107505476D02*
X112847381Y-107315000D01*
X112799762Y-107219761D01*
X112752143Y-107172142D01*
X112609286Y-107076904D01*
X112418810Y-107029285D01*
X112037857Y-107029285D01*
X111942619Y-107076904D01*
X111895000Y-107124523D01*
X111847381Y-107219761D01*
X111847381Y-107410238D01*
X111895000Y-107505476D01*
X111942619Y-107553095D01*
X112037857Y-107600714D01*
X112275952Y-107600714D01*
X112371190Y-107553095D01*
X112418810Y-107505476D01*
X112466429Y-107410238D01*
X112466429Y-107219761D01*
X112418810Y-107124523D01*
X112371190Y-107076904D01*
X112275952Y-107029285D01*
X112275952Y-109950238D02*
X112228333Y-110045476D01*
X112180714Y-110093095D01*
X112085476Y-110140714D01*
X112037857Y-110140714D01*
X111942619Y-110093095D01*
X111895000Y-110045476D01*
X111847381Y-109950238D01*
X111847381Y-109759761D01*
X111895000Y-109664523D01*
X111942619Y-109616904D01*
X112037857Y-109569285D01*
X112085476Y-109569285D01*
X112180714Y-109616904D01*
X112228333Y-109664523D01*
X112275952Y-109759761D01*
X112275952Y-109950238D01*
X112323571Y-110045476D01*
X112371190Y-110093095D01*
X112466429Y-110140714D01*
X112656905Y-110140714D01*
X112752143Y-110093095D01*
X112799762Y-110045476D01*
X112847381Y-109950238D01*
X112847381Y-109759761D01*
X112799762Y-109664523D01*
X112752143Y-109616904D01*
X112656905Y-109569285D01*
X112466429Y-109569285D01*
X112371190Y-109616904D01*
X112323571Y-109664523D01*
X112275952Y-109759761D01*
X111847381Y-112728333D02*
X111847381Y-112061666D01*
X112847381Y-112490238D01*
X111847381Y-114696904D02*
X111847381Y-115173095D01*
X112323571Y-115220714D01*
X112275952Y-115173095D01*
X112228333Y-115077857D01*
X112228333Y-114839761D01*
X112275952Y-114744523D01*
X112323571Y-114696904D01*
X112418810Y-114649285D01*
X112656905Y-114649285D01*
X112752143Y-114696904D01*
X112799762Y-114744523D01*
X112847381Y-114839761D01*
X112847381Y-115077857D01*
X112799762Y-115173095D01*
X112752143Y-115220714D01*
X112180714Y-117284523D02*
X112847381Y-117284523D01*
X111799762Y-117522619D02*
X112514048Y-117760714D01*
X112514048Y-117141666D01*
X111847381Y-120348333D02*
X111847381Y-119729285D01*
X112228333Y-120062619D01*
X112228333Y-119919761D01*
X112275952Y-119824523D01*
X112323571Y-119776904D01*
X112418810Y-119729285D01*
X112656905Y-119729285D01*
X112752143Y-119776904D01*
X112799762Y-119824523D01*
X112847381Y-119919761D01*
X112847381Y-120205476D01*
X112799762Y-120300714D01*
X112752143Y-120348333D01*
X111942619Y-122840714D02*
X111895000Y-122793095D01*
X111847381Y-122697857D01*
X111847381Y-122459761D01*
X111895000Y-122364523D01*
X111942619Y-122316904D01*
X112037857Y-122269285D01*
X112133095Y-122269285D01*
X112275952Y-122316904D01*
X112847381Y-122888333D01*
X112847381Y-122269285D01*
X112847381Y-124809285D02*
X112847381Y-125380714D01*
X112847381Y-125095000D02*
X111847381Y-125095000D01*
X111990238Y-125190238D01*
X112085476Y-125285476D01*
X112133095Y-125380714D01*
X111847381Y-127682619D02*
X111847381Y-127587380D01*
X111895000Y-127492142D01*
X111942619Y-127444523D01*
X112037857Y-127396904D01*
X112228333Y-127349285D01*
X112466429Y-127349285D01*
X112656905Y-127396904D01*
X112752143Y-127444523D01*
X112799762Y-127492142D01*
X112847381Y-127587380D01*
X112847381Y-127682619D01*
X112799762Y-127777857D01*
X112752143Y-127825476D01*
X112656905Y-127873095D01*
X112466429Y-127920714D01*
X112228333Y-127920714D01*
X112037857Y-127873095D01*
X111942619Y-127825476D01*
X111895000Y-127777857D01*
X111847381Y-127682619D01*
X112847381Y-97345476D02*
X112847381Y-97916905D01*
X112847381Y-97631191D02*
X111847381Y-97631191D01*
X111990238Y-97726429D01*
X112085476Y-97821667D01*
X112133095Y-97916905D01*
X112180714Y-96488333D02*
X112847381Y-96488333D01*
X111799762Y-96726429D02*
X112514048Y-96964524D01*
X112514048Y-96345476D01*
X112847381Y-94805476D02*
X112847381Y-95376905D01*
X112847381Y-95091191D02*
X111847381Y-95091191D01*
X111990238Y-95186429D01*
X112085476Y-95281667D01*
X112133095Y-95376905D01*
X111847381Y-93900714D02*
X111847381Y-94376905D01*
X112323571Y-94424524D01*
X112275952Y-94376905D01*
X112228333Y-94281667D01*
X112228333Y-94043571D01*
X112275952Y-93948333D01*
X112323571Y-93900714D01*
X112418810Y-93853095D01*
X112656905Y-93853095D01*
X112752143Y-93900714D01*
X112799762Y-93948333D01*
X112847381Y-94043571D01*
X112847381Y-94281667D01*
X112799762Y-94376905D01*
X112752143Y-94424524D01*
X147510477Y-123610714D02*
X147510477Y-124277381D01*
X147272381Y-123229762D02*
X147034286Y-123944048D01*
X147653334Y-123944048D01*
X144446667Y-123277381D02*
X145065715Y-123277381D01*
X144732381Y-123658333D01*
X144875239Y-123658333D01*
X144970477Y-123705952D01*
X145018096Y-123753571D01*
X145065715Y-123848810D01*
X145065715Y-124086905D01*
X145018096Y-124182143D01*
X144970477Y-124229762D01*
X144875239Y-124277381D01*
X144589524Y-124277381D01*
X144494286Y-124229762D01*
X144446667Y-124182143D01*
X141954286Y-123372619D02*
X142001905Y-123325000D01*
X142097143Y-123277381D01*
X142335239Y-123277381D01*
X142430477Y-123325000D01*
X142478096Y-123372619D01*
X142525715Y-123467857D01*
X142525715Y-123563095D01*
X142478096Y-123705952D01*
X141906667Y-124277381D01*
X142525715Y-124277381D01*
X139985715Y-124277381D02*
X139414286Y-124277381D01*
X139700000Y-124277381D02*
X139700000Y-123277381D01*
X139604762Y-123420238D01*
X139509524Y-123515476D01*
X139414286Y-123563095D01*
X200509286Y-143327381D02*
X200509286Y-142327381D01*
X201080715Y-143327381D01*
X201080715Y-142327381D01*
X202128334Y-143232143D02*
X202080715Y-143279762D01*
X201937858Y-143327381D01*
X201842620Y-143327381D01*
X201699762Y-143279762D01*
X201604524Y-143184524D01*
X201556905Y-143089286D01*
X201509286Y-142898810D01*
X201509286Y-142755952D01*
X201556905Y-142565476D01*
X201604524Y-142470238D01*
X201699762Y-142375000D01*
X201842620Y-142327381D01*
X201937858Y-142327381D01*
X202080715Y-142375000D01*
X202128334Y-142422619D01*
X195429286Y-143232143D02*
X195381667Y-143279762D01*
X195238810Y-143327381D01*
X195143572Y-143327381D01*
X195000714Y-143279762D01*
X194905476Y-143184524D01*
X194857857Y-143089286D01*
X194810238Y-142898810D01*
X194810238Y-142755952D01*
X194857857Y-142565476D01*
X194905476Y-142470238D01*
X195000714Y-142375000D01*
X195143572Y-142327381D01*
X195238810Y-142327381D01*
X195381667Y-142375000D01*
X195429286Y-142422619D01*
X196048333Y-142327381D02*
X196238810Y-142327381D01*
X196334048Y-142375000D01*
X196429286Y-142470238D01*
X196476905Y-142660714D01*
X196476905Y-142994048D01*
X196429286Y-143184524D01*
X196334048Y-143279762D01*
X196238810Y-143327381D01*
X196048333Y-143327381D01*
X195953095Y-143279762D01*
X195857857Y-143184524D01*
X195810238Y-142994048D01*
X195810238Y-142660714D01*
X195857857Y-142470238D01*
X195953095Y-142375000D01*
X196048333Y-142327381D01*
X196905476Y-143327381D02*
X196905476Y-142327381D01*
X197238810Y-143041667D01*
X197572143Y-142327381D01*
X197572143Y-143327381D01*
X190325476Y-143327381D02*
X190325476Y-142327381D01*
X190896905Y-143327381D01*
X190896905Y-142327381D01*
X191563571Y-142327381D02*
X191754048Y-142327381D01*
X191849286Y-142375000D01*
X191944524Y-142470238D01*
X191992143Y-142660714D01*
X191992143Y-142994048D01*
X191944524Y-143184524D01*
X191849286Y-143279762D01*
X191754048Y-143327381D01*
X191563571Y-143327381D01*
X191468333Y-143279762D01*
X191373095Y-143184524D01*
X191325476Y-142994048D01*
X191325476Y-142660714D01*
X191373095Y-142470238D01*
X191468333Y-142375000D01*
X191563571Y-142327381D01*
X191063810Y-111577381D02*
X190730476Y-111101190D01*
X190492381Y-111577381D02*
X190492381Y-110577381D01*
X190873334Y-110577381D01*
X190968572Y-110625000D01*
X191016191Y-110672619D01*
X191063810Y-110767857D01*
X191063810Y-110910714D01*
X191016191Y-111005952D01*
X190968572Y-111053571D01*
X190873334Y-111101190D01*
X190492381Y-111101190D01*
X191492381Y-111053571D02*
X191825715Y-111053571D01*
X191968572Y-111577381D02*
X191492381Y-111577381D01*
X191492381Y-110577381D01*
X191968572Y-110577381D01*
X192873334Y-111577381D02*
X192397143Y-111577381D01*
X192397143Y-110577381D01*
X192968572Y-111672619D02*
X193730477Y-111672619D01*
X194159048Y-110577381D02*
X194349525Y-110577381D01*
X194444763Y-110625000D01*
X194540001Y-110720238D01*
X194587620Y-110910714D01*
X194587620Y-111244048D01*
X194540001Y-111434524D01*
X194444763Y-111529762D01*
X194349525Y-111577381D01*
X194159048Y-111577381D01*
X194063810Y-111529762D01*
X193968572Y-111434524D01*
X193920953Y-111244048D01*
X193920953Y-110910714D01*
X193968572Y-110720238D01*
X194063810Y-110625000D01*
X194159048Y-110577381D01*
X195016191Y-111577381D02*
X195016191Y-110577381D01*
X195587620Y-111577381D01*
X195587620Y-110577381D01*
X201605355Y-106456371D02*
X202144103Y-106995119D01*
X201605356Y-106995119D02*
X202144104Y-106456371D01*
X203255271Y-107230821D02*
X202918553Y-106894103D01*
X202548164Y-107197149D01*
X202615508Y-107197149D01*
X202716523Y-107230820D01*
X202884882Y-107399180D01*
X202918554Y-107500195D01*
X202918554Y-107567538D01*
X202884882Y-107668554D01*
X202716523Y-107836913D01*
X202615508Y-107870584D01*
X202548164Y-107870584D01*
X202447149Y-107836913D01*
X202278790Y-107668553D01*
X202245118Y-107567538D01*
X202245118Y-107500195D01*
X203490973Y-107466523D02*
X203019569Y-108409332D01*
X203962378Y-107937928D01*
X202379806Y-103882699D02*
X202346134Y-103781684D01*
X202245119Y-103680669D01*
X202110431Y-103613325D01*
X201975745Y-103613325D01*
X201874729Y-103646996D01*
X201706371Y-103748012D01*
X201605355Y-103849027D01*
X201504340Y-104017386D01*
X201470668Y-104118401D01*
X201470668Y-104253088D01*
X201538012Y-104387776D01*
X201605356Y-104455119D01*
X201740043Y-104522462D01*
X201807386Y-104522462D01*
X202043088Y-104286760D01*
X201908401Y-104152074D01*
X202043088Y-104892851D02*
X202750195Y-104185745D01*
X202447149Y-105296913D01*
X203154256Y-104589806D01*
X202783867Y-105633630D02*
X203490973Y-104926523D01*
X203659332Y-105094882D01*
X203726676Y-105229569D01*
X203726676Y-105364256D01*
X203693004Y-105465271D01*
X203591989Y-105633630D01*
X203490973Y-105734646D01*
X203322615Y-105835661D01*
X203221600Y-105869333D01*
X203086913Y-105869333D01*
X202952225Y-105801988D01*
X202783867Y-105633630D01*
X202379806Y-101342699D02*
X202346134Y-101241684D01*
X202245119Y-101140669D01*
X202110431Y-101073325D01*
X201975745Y-101073325D01*
X201874729Y-101106996D01*
X201706371Y-101208012D01*
X201605355Y-101309027D01*
X201504340Y-101477386D01*
X201470668Y-101578401D01*
X201470668Y-101713088D01*
X201538012Y-101847776D01*
X201605356Y-101915119D01*
X201740043Y-101982462D01*
X201807386Y-101982462D01*
X202043088Y-101746760D01*
X201908401Y-101612074D01*
X202043088Y-102352851D02*
X202750195Y-101645745D01*
X202447149Y-102756913D01*
X203154256Y-102049806D01*
X202783867Y-103093630D02*
X203490973Y-102386523D01*
X203659332Y-102554882D01*
X203726676Y-102689569D01*
X203726676Y-102824256D01*
X203693004Y-102925271D01*
X203591989Y-103093630D01*
X203490973Y-103194646D01*
X203322615Y-103295661D01*
X203221600Y-103329333D01*
X203086913Y-103329333D01*
X202952225Y-103261988D01*
X202783867Y-103093630D01*
X201268637Y-98499653D02*
X201807385Y-99038401D01*
X201268638Y-99038401D02*
X201807386Y-98499653D01*
X202514492Y-98870042D02*
X202952225Y-99307775D01*
X202447149Y-99341446D01*
X202548164Y-99442462D01*
X202581836Y-99543477D01*
X202581836Y-99610820D01*
X202548164Y-99711836D01*
X202379805Y-99880195D01*
X202278790Y-99913867D01*
X202211447Y-99913867D01*
X202110431Y-99880195D01*
X201908400Y-99678164D01*
X201874729Y-99577149D01*
X201874729Y-99509805D01*
X203154255Y-99509805D02*
X202682851Y-100452614D01*
X203625660Y-99981210D01*
X203794019Y-100149569D02*
X204231752Y-100587302D01*
X203726675Y-100620973D01*
X203827691Y-100721988D01*
X203861363Y-100823004D01*
X203861363Y-100890347D01*
X203827690Y-100991363D01*
X203659332Y-101159721D01*
X203558317Y-101193393D01*
X203490973Y-101193393D01*
X203389958Y-101159721D01*
X203187927Y-100957690D01*
X203154255Y-100856675D01*
X203154255Y-100789332D01*
X209367381Y-98615476D02*
X209367381Y-99186905D01*
X209367381Y-98901191D02*
X208367381Y-98901191D01*
X208510238Y-98996429D01*
X208605476Y-99091667D01*
X208653095Y-99186905D01*
X208367381Y-97996429D02*
X208367381Y-97901190D01*
X208415000Y-97805952D01*
X208462619Y-97758333D01*
X208557857Y-97710714D01*
X208748333Y-97663095D01*
X208986429Y-97663095D01*
X209176905Y-97710714D01*
X209272143Y-97758333D01*
X209319762Y-97805952D01*
X209367381Y-97901190D01*
X209367381Y-97996429D01*
X209319762Y-98091667D01*
X209272143Y-98139286D01*
X209176905Y-98186905D01*
X208986429Y-98234524D01*
X208748333Y-98234524D01*
X208557857Y-98186905D01*
X208462619Y-98139286D01*
X208415000Y-98091667D01*
X208367381Y-97996429D01*
X209367381Y-96075476D02*
X209367381Y-95885000D01*
X209319762Y-95789761D01*
X209272143Y-95742142D01*
X209129286Y-95646904D01*
X208938810Y-95599285D01*
X208557857Y-95599285D01*
X208462619Y-95646904D01*
X208415000Y-95694523D01*
X208367381Y-95789761D01*
X208367381Y-95980238D01*
X208415000Y-96075476D01*
X208462619Y-96123095D01*
X208557857Y-96170714D01*
X208795952Y-96170714D01*
X208891190Y-96123095D01*
X208938810Y-96075476D01*
X208986429Y-95980238D01*
X208986429Y-95789761D01*
X208938810Y-95694523D01*
X208891190Y-95646904D01*
X208795952Y-95599285D01*
X208795952Y-93440238D02*
X208748333Y-93535476D01*
X208700714Y-93583095D01*
X208605476Y-93630714D01*
X208557857Y-93630714D01*
X208462619Y-93583095D01*
X208415000Y-93535476D01*
X208367381Y-93440238D01*
X208367381Y-93249761D01*
X208415000Y-93154523D01*
X208462619Y-93106904D01*
X208557857Y-93059285D01*
X208605476Y-93059285D01*
X208700714Y-93106904D01*
X208748333Y-93154523D01*
X208795952Y-93249761D01*
X208795952Y-93440238D01*
X208843571Y-93535476D01*
X208891190Y-93583095D01*
X208986429Y-93630714D01*
X209176905Y-93630714D01*
X209272143Y-93583095D01*
X209319762Y-93535476D01*
X209367381Y-93440238D01*
X209367381Y-93249761D01*
X209319762Y-93154523D01*
X209272143Y-93106904D01*
X209176905Y-93059285D01*
X208986429Y-93059285D01*
X208891190Y-93106904D01*
X208843571Y-93154523D01*
X208795952Y-93249761D01*
X208367381Y-91138333D02*
X208367381Y-90471666D01*
X209367381Y-90900238D01*
X208700714Y-88074523D02*
X209367381Y-88074523D01*
X208319762Y-88312619D02*
X209034048Y-88550714D01*
X209034048Y-87931666D01*
X208367381Y-86058333D02*
X208367381Y-85439285D01*
X208748333Y-85772619D01*
X208748333Y-85629761D01*
X208795952Y-85534523D01*
X208843571Y-85486904D01*
X208938810Y-85439285D01*
X209176905Y-85439285D01*
X209272143Y-85486904D01*
X209319762Y-85534523D01*
X209367381Y-85629761D01*
X209367381Y-85915476D01*
X209319762Y-86010714D01*
X209272143Y-86058333D01*
X208462619Y-83470714D02*
X208415000Y-83423095D01*
X208367381Y-83327857D01*
X208367381Y-83089761D01*
X208415000Y-82994523D01*
X208462619Y-82946904D01*
X208557857Y-82899285D01*
X208653095Y-82899285D01*
X208795952Y-82946904D01*
X209367381Y-83518333D01*
X209367381Y-82899285D01*
X209367381Y-80359285D02*
X209367381Y-80930714D01*
X209367381Y-80645000D02*
X208367381Y-80645000D01*
X208510238Y-80740238D01*
X208605476Y-80835476D01*
X208653095Y-80930714D01*
X208367381Y-78152619D02*
X208367381Y-78057380D01*
X208415000Y-77962142D01*
X208462619Y-77914523D01*
X208557857Y-77866904D01*
X208748333Y-77819285D01*
X208986429Y-77819285D01*
X209176905Y-77866904D01*
X209272143Y-77914523D01*
X209319762Y-77962142D01*
X209367381Y-78057380D01*
X209367381Y-78152619D01*
X209319762Y-78247857D01*
X209272143Y-78295476D01*
X209176905Y-78343095D01*
X208986429Y-78390714D01*
X208748333Y-78390714D01*
X208557857Y-78343095D01*
X208462619Y-78295476D01*
X208415000Y-78247857D01*
X208367381Y-78152619D01*
X158186429Y-69230714D02*
X158186429Y-68468809D01*
X158567381Y-68849761D02*
X157805476Y-68849761D01*
X157567381Y-67516428D02*
X157567381Y-67992619D01*
X158043571Y-68040238D01*
X157995952Y-67992619D01*
X157948333Y-67897381D01*
X157948333Y-67659285D01*
X157995952Y-67564047D01*
X158043571Y-67516428D01*
X158138810Y-67468809D01*
X158376905Y-67468809D01*
X158472143Y-67516428D01*
X158519762Y-67564047D01*
X158567381Y-67659285D01*
X158567381Y-67897381D01*
X158519762Y-67992619D01*
X158472143Y-68040238D01*
X157567381Y-67183095D02*
X158567381Y-66849762D01*
X157567381Y-66516428D01*
X161996429Y-69706905D02*
X161996429Y-68945000D01*
X162377381Y-69325952D02*
X161615476Y-69325952D01*
X161377381Y-68564048D02*
X161377381Y-67945000D01*
X161758333Y-68278334D01*
X161758333Y-68135476D01*
X161805952Y-68040238D01*
X161853571Y-67992619D01*
X161948810Y-67945000D01*
X162186905Y-67945000D01*
X162282143Y-67992619D01*
X162329762Y-68040238D01*
X162377381Y-68135476D01*
X162377381Y-68421191D01*
X162329762Y-68516429D01*
X162282143Y-68564048D01*
X161377381Y-67659286D02*
X162377381Y-67325953D01*
X161377381Y-66992619D01*
X161377381Y-66754524D02*
X161377381Y-66135476D01*
X161758333Y-66468810D01*
X161758333Y-66325952D01*
X161805952Y-66230714D01*
X161853571Y-66183095D01*
X161948810Y-66135476D01*
X162186905Y-66135476D01*
X162282143Y-66183095D01*
X162329762Y-66230714D01*
X162377381Y-66325952D01*
X162377381Y-66611667D01*
X162329762Y-66706905D01*
X162282143Y-66754524D01*
D12*
X154583572Y-57113571D02*
X154869287Y-57113571D01*
X155012144Y-57042143D01*
X155083572Y-56970714D01*
X155226430Y-56756429D01*
X155297858Y-56470714D01*
X155297858Y-55899286D01*
X155226430Y-55756429D01*
X155155001Y-55685000D01*
X155012144Y-55613571D01*
X154726430Y-55613571D01*
X154583572Y-55685000D01*
X154512144Y-55756429D01*
X154440715Y-55899286D01*
X154440715Y-56256429D01*
X154512144Y-56399286D01*
X154583572Y-56470714D01*
X154726430Y-56542143D01*
X155012144Y-56542143D01*
X155155001Y-56470714D01*
X155226430Y-56399286D01*
X155297858Y-56256429D01*
X156012143Y-57113571D02*
X156297858Y-57113571D01*
X156440715Y-57042143D01*
X156512143Y-56970714D01*
X156655001Y-56756429D01*
X156726429Y-56470714D01*
X156726429Y-55899286D01*
X156655001Y-55756429D01*
X156583572Y-55685000D01*
X156440715Y-55613571D01*
X156155001Y-55613571D01*
X156012143Y-55685000D01*
X155940715Y-55756429D01*
X155869286Y-55899286D01*
X155869286Y-56256429D01*
X155940715Y-56399286D01*
X156012143Y-56470714D01*
X156155001Y-56542143D01*
X156440715Y-56542143D01*
X156583572Y-56470714D01*
X156655001Y-56399286D01*
X156726429Y-56256429D01*
X157440714Y-57042143D02*
X157440714Y-57113571D01*
X157369286Y-57256429D01*
X157297857Y-57327857D01*
X158369286Y-55613571D02*
X158512143Y-55613571D01*
X158655000Y-55685000D01*
X158726429Y-55756429D01*
X158797858Y-55899286D01*
X158869286Y-56185000D01*
X158869286Y-56542143D01*
X158797858Y-56827857D01*
X158726429Y-56970714D01*
X158655000Y-57042143D01*
X158512143Y-57113571D01*
X158369286Y-57113571D01*
X158226429Y-57042143D01*
X158155000Y-56970714D01*
X158083572Y-56827857D01*
X158012143Y-56542143D01*
X158012143Y-56185000D01*
X158083572Y-55899286D01*
X158155000Y-55756429D01*
X158226429Y-55685000D01*
X158369286Y-55613571D01*
X160155000Y-55613571D02*
X159869286Y-55613571D01*
X159726429Y-55685000D01*
X159655000Y-55756429D01*
X159512143Y-55970714D01*
X159440714Y-56256429D01*
X159440714Y-56827857D01*
X159512143Y-56970714D01*
X159583571Y-57042143D01*
X159726429Y-57113571D01*
X160012143Y-57113571D01*
X160155000Y-57042143D01*
X160226429Y-56970714D01*
X160297857Y-56827857D01*
X160297857Y-56470714D01*
X160226429Y-56327857D01*
X160155000Y-56256429D01*
X160012143Y-56185000D01*
X159726429Y-56185000D01*
X159583571Y-56256429D01*
X159512143Y-56327857D01*
X159440714Y-56470714D01*
X161226428Y-55613571D02*
X161369285Y-55613571D01*
X161512142Y-55685000D01*
X161583571Y-55756429D01*
X161655000Y-55899286D01*
X161726428Y-56185000D01*
X161726428Y-56542143D01*
X161655000Y-56827857D01*
X161583571Y-56970714D01*
X161512142Y-57042143D01*
X161369285Y-57113571D01*
X161226428Y-57113571D01*
X161083571Y-57042143D01*
X161012142Y-56970714D01*
X160940714Y-56827857D01*
X160869285Y-56542143D01*
X160869285Y-56185000D01*
X160940714Y-55899286D01*
X161012142Y-55756429D01*
X161083571Y-55685000D01*
X161226428Y-55613571D01*
X163512142Y-57113571D02*
X163512142Y-56113571D01*
X163512142Y-56256429D02*
X163583570Y-56185000D01*
X163726428Y-56113571D01*
X163940713Y-56113571D01*
X164083570Y-56185000D01*
X164154999Y-56327857D01*
X164154999Y-57113571D01*
X164154999Y-56327857D02*
X164226428Y-56185000D01*
X164369285Y-56113571D01*
X164583570Y-56113571D01*
X164726428Y-56185000D01*
X164797856Y-56327857D01*
X164797856Y-57113571D01*
X165512142Y-57113571D02*
X165512142Y-56113571D01*
X165512142Y-56256429D02*
X165583570Y-56185000D01*
X165726428Y-56113571D01*
X165940713Y-56113571D01*
X166083570Y-56185000D01*
X166154999Y-56327857D01*
X166154999Y-57113571D01*
X166154999Y-56327857D02*
X166226428Y-56185000D01*
X166369285Y-56113571D01*
X166583570Y-56113571D01*
X166726428Y-56185000D01*
X166797856Y-56327857D01*
X166797856Y-57113571D01*
X111125000Y-57785000D02*
X210185000Y-57785000D01*
X111125000Y-64135000D02*
X111125000Y-55085000D01*
X210185000Y-64135000D02*
X210185000Y-55085000D01*
X210185000Y-57785000D02*
X209058496Y-58371421D01*
X210185000Y-57785000D02*
X209058496Y-57198579D01*
X111125000Y-57785000D02*
X112251504Y-58371421D01*
X111125000Y-57785000D02*
X112251504Y-57198579D01*
X99166429Y-98171787D02*
X99166429Y-99171787D01*
X97666429Y-98528930D01*
X97666429Y-99814643D02*
X97666429Y-100100358D01*
X97737857Y-100243215D01*
X97809286Y-100314643D01*
X98023571Y-100457501D01*
X98309286Y-100528929D01*
X98880714Y-100528929D01*
X99023571Y-100457501D01*
X99095000Y-100386072D01*
X99166429Y-100243215D01*
X99166429Y-99957501D01*
X99095000Y-99814643D01*
X99023571Y-99743215D01*
X98880714Y-99671786D01*
X98523571Y-99671786D01*
X98380714Y-99743215D01*
X98309286Y-99814643D01*
X98237857Y-99957501D01*
X98237857Y-100243215D01*
X98309286Y-100386072D01*
X98380714Y-100457501D01*
X98523571Y-100528929D01*
X97737857Y-101243214D02*
X97666429Y-101243214D01*
X97523571Y-101171786D01*
X97452143Y-101100357D01*
X99166429Y-101743215D02*
X99166429Y-102671786D01*
X98595000Y-102171786D01*
X98595000Y-102386072D01*
X98523571Y-102528929D01*
X98452143Y-102600358D01*
X98309286Y-102671786D01*
X97952143Y-102671786D01*
X97809286Y-102600358D01*
X97737857Y-102528929D01*
X97666429Y-102386072D01*
X97666429Y-101957500D01*
X97737857Y-101814643D01*
X97809286Y-101743215D01*
X99166429Y-103171786D02*
X99166429Y-104171786D01*
X97666429Y-103528929D01*
X99166429Y-105457500D02*
X99166429Y-104743214D01*
X98452143Y-104671785D01*
X98523571Y-104743214D01*
X98595000Y-104886071D01*
X98595000Y-105243214D01*
X98523571Y-105386071D01*
X98452143Y-105457500D01*
X98309286Y-105528928D01*
X97952143Y-105528928D01*
X97809286Y-105457500D01*
X97737857Y-105386071D01*
X97666429Y-105243214D01*
X97666429Y-104886071D01*
X97737857Y-104743214D01*
X97809286Y-104671785D01*
X97666429Y-107314642D02*
X98666429Y-107314642D01*
X98523571Y-107314642D02*
X98595000Y-107386070D01*
X98666429Y-107528928D01*
X98666429Y-107743213D01*
X98595000Y-107886070D01*
X98452143Y-107957499D01*
X97666429Y-107957499D01*
X98452143Y-107957499D02*
X98595000Y-108028928D01*
X98666429Y-108171785D01*
X98666429Y-108386070D01*
X98595000Y-108528928D01*
X98452143Y-108600356D01*
X97666429Y-108600356D01*
X97666429Y-109314642D02*
X98666429Y-109314642D01*
X98523571Y-109314642D02*
X98595000Y-109386070D01*
X98666429Y-109528928D01*
X98666429Y-109743213D01*
X98595000Y-109886070D01*
X98452143Y-109957499D01*
X97666429Y-109957499D01*
X98452143Y-109957499D02*
X98595000Y-110028928D01*
X98666429Y-110171785D01*
X98666429Y-110386070D01*
X98595000Y-110528928D01*
X98452143Y-110600356D01*
X97666429Y-110600356D01*
X99695000Y-64770000D02*
X99695000Y-144145000D01*
X110490000Y-64770000D02*
X96995000Y-64770000D01*
X110490000Y-144145000D02*
X96995000Y-144145000D01*
X99695000Y-144145000D02*
X99108579Y-143018496D01*
X99695000Y-144145000D02*
X100281421Y-143018496D01*
X99695000Y-64770000D02*
X99108579Y-65896504D01*
X99695000Y-64770000D02*
X100281421Y-65896504D01*
D11*
X188547381Y-65492381D02*
X188642620Y-65492381D01*
X188737858Y-65540000D01*
X188785477Y-65587619D01*
X188833096Y-65682857D01*
X188880715Y-65873333D01*
X188880715Y-66111429D01*
X188833096Y-66301905D01*
X188785477Y-66397143D01*
X188737858Y-66444762D01*
X188642620Y-66492381D01*
X188547381Y-66492381D01*
X188452143Y-66444762D01*
X188404524Y-66397143D01*
X188356905Y-66301905D01*
X188309286Y-66111429D01*
X188309286Y-65873333D01*
X188356905Y-65682857D01*
X188404524Y-65587619D01*
X188452143Y-65540000D01*
X188547381Y-65492381D01*
X186340715Y-66492381D02*
X185769286Y-66492381D01*
X186055000Y-66492381D02*
X186055000Y-65492381D01*
X185959762Y-65635238D01*
X185864524Y-65730476D01*
X185769286Y-65778095D01*
X183229286Y-65587619D02*
X183276905Y-65540000D01*
X183372143Y-65492381D01*
X183610239Y-65492381D01*
X183705477Y-65540000D01*
X183753096Y-65587619D01*
X183800715Y-65682857D01*
X183800715Y-65778095D01*
X183753096Y-65920952D01*
X183181667Y-66492381D01*
X183800715Y-66492381D01*
X180641667Y-65492381D02*
X181260715Y-65492381D01*
X180927381Y-65873333D01*
X181070239Y-65873333D01*
X181165477Y-65920952D01*
X181213096Y-65968571D01*
X181260715Y-66063810D01*
X181260715Y-66301905D01*
X181213096Y-66397143D01*
X181165477Y-66444762D01*
X181070239Y-66492381D01*
X180784524Y-66492381D01*
X180689286Y-66444762D01*
X180641667Y-66397143D01*
X178625477Y-65825714D02*
X178625477Y-66492381D01*
X178387381Y-65444762D02*
X178149286Y-66159048D01*
X178768334Y-66159048D01*
X176133096Y-65492381D02*
X175656905Y-65492381D01*
X175609286Y-65968571D01*
X175656905Y-65920952D01*
X175752143Y-65873333D01*
X175990239Y-65873333D01*
X176085477Y-65920952D01*
X176133096Y-65968571D01*
X176180715Y-66063810D01*
X176180715Y-66301905D01*
X176133096Y-66397143D01*
X176085477Y-66444762D01*
X175990239Y-66492381D01*
X175752143Y-66492381D01*
X175656905Y-66444762D01*
X175609286Y-66397143D01*
X173545477Y-65492381D02*
X173355000Y-65492381D01*
X173259762Y-65540000D01*
X173212143Y-65587619D01*
X173116905Y-65730476D01*
X173069286Y-65920952D01*
X173069286Y-66301905D01*
X173116905Y-66397143D01*
X173164524Y-66444762D01*
X173259762Y-66492381D01*
X173450239Y-66492381D01*
X173545477Y-66444762D01*
X173593096Y-66397143D01*
X173640715Y-66301905D01*
X173640715Y-66063810D01*
X173593096Y-65968571D01*
X173545477Y-65920952D01*
X173450239Y-65873333D01*
X173259762Y-65873333D01*
X173164524Y-65920952D01*
X173116905Y-65968571D01*
X173069286Y-66063810D01*
X170481667Y-65492381D02*
X171148334Y-65492381D01*
X170719762Y-66492381D01*
X168179762Y-65920952D02*
X168084524Y-65873333D01*
X168036905Y-65825714D01*
X167989286Y-65730476D01*
X167989286Y-65682857D01*
X168036905Y-65587619D01*
X168084524Y-65540000D01*
X168179762Y-65492381D01*
X168370239Y-65492381D01*
X168465477Y-65540000D01*
X168513096Y-65587619D01*
X168560715Y-65682857D01*
X168560715Y-65730476D01*
X168513096Y-65825714D01*
X168465477Y-65873333D01*
X168370239Y-65920952D01*
X168179762Y-65920952D01*
X168084524Y-65968571D01*
X168036905Y-66016190D01*
X167989286Y-66111429D01*
X167989286Y-66301905D01*
X168036905Y-66397143D01*
X168084524Y-66444762D01*
X168179762Y-66492381D01*
X168370239Y-66492381D01*
X168465477Y-66444762D01*
X168513096Y-66397143D01*
X168560715Y-66301905D01*
X168560715Y-66111429D01*
X168513096Y-66016190D01*
X168465477Y-65968571D01*
X168370239Y-65920952D01*
X165544524Y-66492381D02*
X165735000Y-66492381D01*
X165830239Y-66444762D01*
X165877858Y-66397143D01*
X165973096Y-66254286D01*
X166020715Y-66063810D01*
X166020715Y-65682857D01*
X165973096Y-65587619D01*
X165925477Y-65540000D01*
X165830239Y-65492381D01*
X165639762Y-65492381D01*
X165544524Y-65540000D01*
X165496905Y-65587619D01*
X165449286Y-65682857D01*
X165449286Y-65920952D01*
X165496905Y-66016190D01*
X165544524Y-66063810D01*
X165639762Y-66111429D01*
X165830239Y-66111429D01*
X165925477Y-66063810D01*
X165973096Y-66016190D01*
X166020715Y-65920952D01*
X127350000Y-78795000D02*
X126650000Y-78795000D01*
X127000000Y-79145000D02*
X127000000Y-78445000D01*
X127000000Y-82845000D02*
X127000000Y-82145000D01*
X127350000Y-81195000D02*
G75*
G03X127550000Y-80295000I-350000J550000D01*
G01*
X126450000Y-80295000D02*
G75*
G03X126650000Y-81195000I550000J-350000D01*
G01*
D12*
X127200000Y-80645000D02*
G75*
G03X127200000Y-80645000I-200000J0D01*
G01*
X127100000Y-80645000D02*
G75*
G03X127100000Y-80645000I-100000J0D01*
G01*
D11*
X127000000Y-79445000D02*
X127000000Y-80345000D01*
X127650000Y-78795000D02*
G75*
G03X127650000Y-78795000I-650000J0D01*
G01*
X127650000Y-82495000D02*
G75*
G03X127650000Y-82495000I-650000J0D01*
G01*
X127000000Y-81295000D02*
X127000000Y-81845000D01*
X127000000Y-81295000D02*
G75*
G03X127650000Y-80645000I0J650000D01*
G01*
X126350000Y-80645000D02*
G75*
G03X127000000Y-81295000I650000J0D01*
G01*
X135770000Y-137475000D02*
X133770000Y-142475000D01*
X133770000Y-142475000D02*
X132770000Y-142475000D01*
X135770000Y-117475000D02*
X135770000Y-137475000D01*
X132770000Y-142475000D02*
X122770000Y-142475000D01*
X135770000Y-117475000D02*
X120770000Y-117475000D01*
X120770000Y-117475000D02*
X120770000Y-137475000D01*
X120770000Y-137475000D02*
X122770000Y-142475000D01*
X162675000Y-73990000D02*
X162675000Y-71290000D01*
X161175000Y-73990000D02*
X161175000Y-71290000D01*
X162075000Y-72490000D02*
X161825000Y-72490000D01*
X161825000Y-72490000D02*
X161975000Y-72640000D01*
X161575000Y-72740000D02*
X162275000Y-72740000D01*
X161925000Y-72390000D02*
X161925000Y-72040000D01*
X161925000Y-72740000D02*
X161575000Y-72390000D01*
X161575000Y-72390000D02*
X162275000Y-72390000D01*
X162275000Y-72390000D02*
X161925000Y-72740000D01*
X158865000Y-73990000D02*
X158865000Y-71290000D01*
X157365000Y-73990000D02*
X157365000Y-71290000D01*
X158265000Y-72490000D02*
X158015000Y-72490000D01*
X158015000Y-72490000D02*
X158165000Y-72640000D01*
X157765000Y-72740000D02*
X158465000Y-72740000D01*
X158115000Y-72390000D02*
X158115000Y-72040000D01*
X158115000Y-72740000D02*
X157765000Y-72390000D01*
X157765000Y-72390000D02*
X158465000Y-72390000D01*
X158465000Y-72390000D02*
X158115000Y-72740000D01*
X139827000Y-142113000D02*
X139827000Y-136017000D01*
X139827000Y-136017000D02*
X145923000Y-136017000D01*
X145923000Y-136017000D02*
X145923000Y-142113000D01*
X145923000Y-142113000D02*
X139827000Y-142113000D01*
D16*
X143678219Y-139065000D02*
G75*
G03X143678219Y-139065000I-803219J0D01*
G01*
D11*
X140970000Y-130175000D02*
X148590000Y-130175000D01*
X140970000Y-132715000D02*
X148590000Y-132715000D01*
X138150000Y-132995000D02*
X139700000Y-132995000D01*
X148590000Y-130175000D02*
X148590000Y-132715000D01*
X140970000Y-132715000D02*
X140970000Y-130175000D01*
X139700000Y-129895000D02*
X138150000Y-129895000D01*
X138150000Y-129895000D02*
X138150000Y-132995000D01*
X136025000Y-110705000D02*
X137025000Y-110705000D01*
X137025000Y-109005000D02*
X136025000Y-109005000D01*
X190365000Y-98845000D02*
X189365000Y-98845000D01*
X189365000Y-100545000D02*
X190365000Y-100545000D01*
X189365000Y-86575000D02*
X190365000Y-86575000D01*
X190365000Y-84875000D02*
X189365000Y-84875000D01*
X179389594Y-84842513D02*
X178682487Y-84135406D01*
X177480406Y-85337487D02*
X178187513Y-86044594D01*
X163582513Y-84770406D02*
X162875406Y-85477513D01*
X164077487Y-86679594D02*
X164784594Y-85972487D01*
X162240406Y-99942487D02*
X162947513Y-100649594D01*
X164149594Y-99447513D02*
X163442487Y-98740406D01*
X178187513Y-98740406D02*
X177480406Y-99447513D01*
X178682487Y-100649594D02*
X179389594Y-99942487D01*
X127600000Y-76119000D02*
X127600000Y-66121000D01*
X127460000Y-76115000D02*
X127460000Y-66125000D01*
X127320000Y-76107000D02*
X127320000Y-66133000D01*
X127180000Y-76095000D02*
X127180000Y-66145000D01*
X127040000Y-76080000D02*
X127040000Y-66160000D01*
X126900000Y-76060000D02*
X126900000Y-66180000D01*
X126760000Y-76036000D02*
X126760000Y-66204000D01*
X126620000Y-76007000D02*
X126620000Y-66233000D01*
X126480000Y-75975000D02*
X126480000Y-66265000D01*
X126340000Y-75938000D02*
X126340000Y-66302000D01*
X126200000Y-75897000D02*
X126200000Y-66343000D01*
X126060000Y-75852000D02*
X126060000Y-71586000D01*
X126060000Y-70654000D02*
X126060000Y-66388000D01*
X125920000Y-75802000D02*
X125920000Y-71787000D01*
X125920000Y-70453000D02*
X125920000Y-66438000D01*
X125780000Y-75747000D02*
X125780000Y-71916000D01*
X125780000Y-70324000D02*
X125780000Y-66493000D01*
X125640000Y-75687000D02*
X125640000Y-72005000D01*
X125640000Y-70235000D02*
X125640000Y-66553000D01*
X125500000Y-75622000D02*
X125500000Y-72066000D01*
X125500000Y-70174000D02*
X125500000Y-66618000D01*
X125360000Y-75552000D02*
X125360000Y-72103000D01*
X125360000Y-70137000D02*
X125360000Y-66688000D01*
X125220000Y-75476000D02*
X125220000Y-72119000D01*
X125220000Y-70121000D02*
X125220000Y-66764000D01*
X125080000Y-75394000D02*
X125080000Y-72115000D01*
X125080000Y-70125000D02*
X125080000Y-66846000D01*
X124940000Y-75306000D02*
X124940000Y-72092000D01*
X124940000Y-70148000D02*
X124940000Y-66934000D01*
X124800000Y-75211000D02*
X124800000Y-72047000D01*
X124800000Y-70193000D02*
X124800000Y-67029000D01*
X124660000Y-75109000D02*
X124660000Y-71977000D01*
X124660000Y-70263000D02*
X124660000Y-67131000D01*
X124520000Y-74999000D02*
X124520000Y-71876000D01*
X124520000Y-70364000D02*
X124520000Y-67241000D01*
X124380000Y-74881000D02*
X124380000Y-71727000D01*
X124380000Y-70513000D02*
X124380000Y-67359000D01*
X124240000Y-74753000D02*
X124240000Y-71475000D01*
X124240000Y-70765000D02*
X124240000Y-67487000D01*
X124100000Y-74616000D02*
X124100000Y-67624000D01*
X123960000Y-74466000D02*
X123960000Y-67774000D01*
X123820000Y-74304000D02*
X123820000Y-67936000D01*
X123680000Y-74127000D02*
X123680000Y-68113000D01*
X123540000Y-73931000D02*
X123540000Y-68309000D01*
X123400000Y-73713000D02*
X123400000Y-68527000D01*
X123260000Y-73467000D02*
X123260000Y-68773000D01*
X123120000Y-73182000D02*
X123120000Y-69058000D01*
X122980000Y-72840000D02*
X122980000Y-69400000D01*
X122840000Y-72394000D02*
X122840000Y-69846000D01*
X122700000Y-71619000D02*
X122700000Y-70621000D01*
X126175000Y-71120000D02*
G75*
G03X126175000Y-71120000I-1000000J0D01*
G01*
X132712500Y-71120000D02*
G75*
G03X132712500Y-71120000I-5037500J0D01*
G01*
X116125000Y-129986000D02*
X116125000Y-137984000D01*
X116265000Y-129991000D02*
X116265000Y-137979000D01*
X116405000Y-130001000D02*
X116405000Y-137969000D01*
X116545000Y-130016000D02*
X116545000Y-137954000D01*
X116685000Y-130036000D02*
X116685000Y-137934000D01*
X116825000Y-130061000D02*
X116825000Y-133763000D01*
X116825000Y-134207000D02*
X116825000Y-137909000D01*
X116965000Y-130091000D02*
X116965000Y-133435000D01*
X116965000Y-134535000D02*
X116965000Y-137879000D01*
X117105000Y-130127000D02*
X117105000Y-133266000D01*
X117105000Y-134704000D02*
X117105000Y-137843000D01*
X117245000Y-130168000D02*
X117245000Y-133153000D01*
X117245000Y-134817000D02*
X117245000Y-137802000D01*
X117385000Y-130214000D02*
X117385000Y-133075000D01*
X117385000Y-134895000D02*
X117385000Y-137756000D01*
X117525000Y-130267000D02*
X117525000Y-133024000D01*
X117525000Y-134946000D02*
X117525000Y-137703000D01*
X117665000Y-130326000D02*
X117665000Y-132994000D01*
X117665000Y-134976000D02*
X117665000Y-137644000D01*
X117805000Y-130391000D02*
X117805000Y-132985000D01*
X117805000Y-134985000D02*
X117805000Y-137579000D01*
X117945000Y-130462000D02*
X117945000Y-132996000D01*
X117945000Y-134974000D02*
X117945000Y-137508000D01*
X118085000Y-130541000D02*
X118085000Y-133026000D01*
X118085000Y-134944000D02*
X118085000Y-137429000D01*
X118225000Y-130628000D02*
X118225000Y-133080000D01*
X118225000Y-134890000D02*
X118225000Y-137342000D01*
X118365000Y-130723000D02*
X118365000Y-133160000D01*
X118365000Y-134810000D02*
X118365000Y-137247000D01*
X118505000Y-130827000D02*
X118505000Y-133276000D01*
X118505000Y-134694000D02*
X118505000Y-137143000D01*
X118645000Y-130941000D02*
X118645000Y-133450000D01*
X118645000Y-134520000D02*
X118645000Y-137029000D01*
X118785000Y-131066000D02*
X118785000Y-133812000D01*
X118785000Y-134158000D02*
X118785000Y-136904000D01*
X118925000Y-131204000D02*
X118925000Y-136766000D01*
X119065000Y-131356000D02*
X119065000Y-136614000D01*
X119205000Y-131526000D02*
X119205000Y-136444000D01*
X119345000Y-131717000D02*
X119345000Y-136253000D01*
X119485000Y-131935000D02*
X119485000Y-136035000D01*
X119625000Y-132191000D02*
X119625000Y-135779000D01*
X119765000Y-132502000D02*
X119765000Y-135468000D01*
X119905000Y-132918000D02*
X119905000Y-135052000D01*
X120045000Y-133785000D02*
X120045000Y-134185000D01*
X118800000Y-133985000D02*
G75*
G03X118800000Y-133985000I-1000000J0D01*
G01*
X120087500Y-133985000D02*
G75*
G03X120087500Y-133985000I-4037500J0D01*
G01*
X136470000Y-74269000D02*
X136470000Y-67971000D01*
X136330000Y-74263000D02*
X136330000Y-67977000D01*
X136190000Y-74250000D02*
X136190000Y-71566000D01*
X136190000Y-70674000D02*
X136190000Y-67990000D01*
X136050000Y-74231000D02*
X136050000Y-71776000D01*
X136050000Y-70464000D02*
X136050000Y-68009000D01*
X135910000Y-74205000D02*
X135910000Y-71909000D01*
X135910000Y-70331000D02*
X135910000Y-68035000D01*
X135770000Y-74173000D02*
X135770000Y-72000000D01*
X135770000Y-70240000D02*
X135770000Y-68067000D01*
X135630000Y-74134000D02*
X135630000Y-72062000D01*
X135630000Y-70178000D02*
X135630000Y-68106000D01*
X135490000Y-74088000D02*
X135490000Y-72101000D01*
X135490000Y-70139000D02*
X135490000Y-68152000D01*
X135350000Y-74035000D02*
X135350000Y-72118000D01*
X135350000Y-70122000D02*
X135350000Y-68205000D01*
X135210000Y-73973000D02*
X135210000Y-72116000D01*
X135210000Y-70124000D02*
X135210000Y-68267000D01*
X135070000Y-73903000D02*
X135070000Y-72094000D01*
X135070000Y-70146000D02*
X135070000Y-68337000D01*
X134930000Y-73824000D02*
X134930000Y-72051000D01*
X134930000Y-70189000D02*
X134930000Y-68416000D01*
X134790000Y-73736000D02*
X134790000Y-71983000D01*
X134790000Y-70257000D02*
X134790000Y-68504000D01*
X134650000Y-73636000D02*
X134650000Y-71884000D01*
X134650000Y-70356000D02*
X134650000Y-68604000D01*
X134510000Y-73524000D02*
X134510000Y-71739000D01*
X134510000Y-70501000D02*
X134510000Y-68716000D01*
X134370000Y-73399000D02*
X134370000Y-71500000D01*
X134370000Y-70740000D02*
X134370000Y-68841000D01*
X134230000Y-73256000D02*
X134230000Y-68984000D01*
X134090000Y-73094000D02*
X134090000Y-69146000D01*
X133950000Y-72906000D02*
X133950000Y-69334000D01*
X133810000Y-72683000D02*
X133810000Y-69557000D01*
X133670000Y-72407000D02*
X133670000Y-69833000D01*
X133530000Y-72032000D02*
X133530000Y-70208000D01*
X136295000Y-71120000D02*
G75*
G03X136295000Y-71120000I-1000000J0D01*
G01*
X139732500Y-71120000D02*
G75*
G03X139732500Y-71120000I-3187500J0D01*
G01*
X151210000Y-75119000D02*
X151210000Y-67121000D01*
X151070000Y-75114000D02*
X151070000Y-67126000D01*
X150930000Y-75104000D02*
X150930000Y-67136000D01*
X150790000Y-75089000D02*
X150790000Y-67151000D01*
X150650000Y-75069000D02*
X150650000Y-67171000D01*
X150510000Y-75044000D02*
X150510000Y-71342000D01*
X150510000Y-70898000D02*
X150510000Y-67196000D01*
X150370000Y-75014000D02*
X150370000Y-71670000D01*
X150370000Y-70570000D02*
X150370000Y-67226000D01*
X150230000Y-74978000D02*
X150230000Y-71839000D01*
X150230000Y-70401000D02*
X150230000Y-67262000D01*
X150090000Y-74937000D02*
X150090000Y-71952000D01*
X150090000Y-70288000D02*
X150090000Y-67303000D01*
X149950000Y-74891000D02*
X149950000Y-72030000D01*
X149950000Y-70210000D02*
X149950000Y-67349000D01*
X149810000Y-74838000D02*
X149810000Y-72081000D01*
X149810000Y-70159000D02*
X149810000Y-67402000D01*
X149670000Y-74779000D02*
X149670000Y-72111000D01*
X149670000Y-70129000D02*
X149670000Y-67461000D01*
X149530000Y-74714000D02*
X149530000Y-72120000D01*
X149530000Y-70120000D02*
X149530000Y-67526000D01*
X149390000Y-74643000D02*
X149390000Y-72109000D01*
X149390000Y-70131000D02*
X149390000Y-67597000D01*
X149250000Y-74564000D02*
X149250000Y-72079000D01*
X149250000Y-70161000D02*
X149250000Y-67676000D01*
X149110000Y-74477000D02*
X149110000Y-72025000D01*
X149110000Y-70215000D02*
X149110000Y-67763000D01*
X148970000Y-74382000D02*
X148970000Y-71945000D01*
X148970000Y-70295000D02*
X148970000Y-67858000D01*
X148830000Y-74278000D02*
X148830000Y-71829000D01*
X148830000Y-70411000D02*
X148830000Y-67962000D01*
X148690000Y-74164000D02*
X148690000Y-71655000D01*
X148690000Y-70585000D02*
X148690000Y-68076000D01*
X148550000Y-74039000D02*
X148550000Y-71293000D01*
X148550000Y-70947000D02*
X148550000Y-68201000D01*
X148410000Y-73901000D02*
X148410000Y-68339000D01*
X148270000Y-73749000D02*
X148270000Y-68491000D01*
X148130000Y-73579000D02*
X148130000Y-68661000D01*
X147990000Y-73388000D02*
X147990000Y-68852000D01*
X147850000Y-73170000D02*
X147850000Y-69070000D01*
X147710000Y-72914000D02*
X147710000Y-69326000D01*
X147570000Y-72603000D02*
X147570000Y-69637000D01*
X147430000Y-72187000D02*
X147430000Y-70053000D01*
X147290000Y-71320000D02*
X147290000Y-70920000D01*
X150535000Y-71120000D02*
G75*
G03X150535000Y-71120000I-1000000J0D01*
G01*
X155322500Y-71120000D02*
G75*
G03X155322500Y-71120000I-4037500J0D01*
G01*
X159979000Y-93150000D02*
X154981000Y-93150000D01*
X159971000Y-93290000D02*
X157634000Y-93290000D01*
X157326000Y-93290000D02*
X154989000Y-93290000D01*
X159955000Y-93430000D02*
X157953000Y-93430000D01*
X157007000Y-93430000D02*
X155005000Y-93430000D01*
X159931000Y-93570000D02*
X158100000Y-93570000D01*
X156860000Y-93570000D02*
X155029000Y-93570000D01*
X159898000Y-93710000D02*
X158192000Y-93710000D01*
X156768000Y-93710000D02*
X155062000Y-93710000D01*
X159857000Y-93850000D02*
X158248000Y-93850000D01*
X156712000Y-93850000D02*
X155103000Y-93850000D01*
X159807000Y-93990000D02*
X158275000Y-93990000D01*
X156685000Y-93990000D02*
X155153000Y-93990000D01*
X159746000Y-94130000D02*
X158278000Y-94130000D01*
X156682000Y-94130000D02*
X155214000Y-94130000D01*
X159676000Y-94270000D02*
X158256000Y-94270000D01*
X156704000Y-94270000D02*
X155284000Y-94270000D01*
X159594000Y-94410000D02*
X158206000Y-94410000D01*
X156754000Y-94410000D02*
X155366000Y-94410000D01*
X159499000Y-94550000D02*
X158124000Y-94550000D01*
X156836000Y-94550000D02*
X155461000Y-94550000D01*
X159388000Y-94690000D02*
X157992000Y-94690000D01*
X156968000Y-94690000D02*
X155572000Y-94690000D01*
X159260000Y-94830000D02*
X157745000Y-94830000D01*
X157215000Y-94830000D02*
X155700000Y-94830000D01*
X159111000Y-94970000D02*
X155849000Y-94970000D01*
X158932000Y-95110000D02*
X156028000Y-95110000D01*
X158713000Y-95250000D02*
X156247000Y-95250000D01*
X158424000Y-95390000D02*
X156536000Y-95390000D01*
X157952000Y-95530000D02*
X157008000Y-95530000D01*
X158280000Y-94075000D02*
G75*
G03X158280000Y-94075000I-800000J0D01*
G01*
X160017500Y-93075000D02*
G75*
G03X160017500Y-93075000I-2537500J0D01*
G01*
X155575000Y-83820000D02*
X155575000Y-76200000D01*
X158115000Y-83820000D02*
X158115000Y-76200000D01*
X158395000Y-86640000D02*
X158395000Y-85090000D01*
X155575000Y-76200000D02*
X158115000Y-76200000D01*
X158115000Y-83820000D02*
X155575000Y-83820000D01*
X155295000Y-85090000D02*
X155295000Y-86640000D01*
X155295000Y-86640000D02*
X158395000Y-86640000D01*
X138430000Y-116205000D02*
X138430000Y-121285000D01*
X138430000Y-121285000D02*
X140970000Y-121285000D01*
X140970000Y-121285000D02*
X140970000Y-116205000D01*
X141250000Y-113385000D02*
X141250000Y-114935000D01*
X140970000Y-116205000D02*
X138430000Y-116205000D01*
X138150000Y-114935000D02*
X138150000Y-113385000D01*
X138150000Y-113385000D02*
X141250000Y-113385000D01*
X112903000Y-82042000D02*
X112141000Y-82042000D01*
X112141000Y-82042000D02*
X112141000Y-90678000D01*
X112141000Y-90678000D02*
X112903000Y-90678000D01*
X115951000Y-82042000D02*
X115951000Y-90678000D01*
X125603000Y-82042000D02*
X125603000Y-90678000D01*
X112903000Y-90678000D02*
X125603000Y-90678000D01*
X112903000Y-82042000D02*
X125603000Y-82042000D01*
X204470000Y-79375000D02*
X204470000Y-99695000D01*
X204470000Y-99695000D02*
X207010000Y-99695000D01*
X207010000Y-99695000D02*
X207010000Y-79375000D01*
X204190000Y-76555000D02*
X204190000Y-78105000D01*
X204470000Y-79375000D02*
X207010000Y-79375000D01*
X207290000Y-78105000D02*
X207290000Y-76555000D01*
X207290000Y-76555000D02*
X204190000Y-76555000D01*
X114300000Y-126365000D02*
X114300000Y-93345000D01*
X114300000Y-93345000D02*
X116840000Y-93345000D01*
X116840000Y-93345000D02*
X116840000Y-126365000D01*
X117120000Y-129185000D02*
X117120000Y-127635000D01*
X116840000Y-126365000D02*
X114300000Y-126365000D01*
X114020000Y-127635000D02*
X114020000Y-129185000D01*
X114020000Y-129185000D02*
X117120000Y-129185000D01*
X187325000Y-67945000D02*
X164465000Y-67945000D01*
X164465000Y-67945000D02*
X164465000Y-70485000D01*
X164465000Y-70485000D02*
X187325000Y-70485000D01*
X190145000Y-67665000D02*
X188595000Y-67665000D01*
X187325000Y-67945000D02*
X187325000Y-70485000D01*
X188595000Y-70765000D02*
X190145000Y-70765000D01*
X190145000Y-70765000D02*
X190145000Y-67665000D01*
X204470000Y-107315000D02*
X204470000Y-99695000D01*
X207010000Y-107315000D02*
X207010000Y-99695000D01*
X207290000Y-110135000D02*
X207290000Y-108585000D01*
X204470000Y-99695000D02*
X207010000Y-99695000D01*
X207010000Y-107315000D02*
X204470000Y-107315000D01*
X204190000Y-108585000D02*
X204190000Y-110135000D01*
X204190000Y-110135000D02*
X207290000Y-110135000D01*
X167005000Y-72390000D02*
X205105000Y-72390000D01*
X205105000Y-72390000D02*
X205105000Y-74930000D01*
X205105000Y-74930000D02*
X167005000Y-74930000D01*
X164185000Y-75210000D02*
X165735000Y-75210000D01*
X167005000Y-74930000D02*
X167005000Y-72390000D01*
X165735000Y-72110000D02*
X164185000Y-72110000D01*
X164185000Y-72110000D02*
X164185000Y-75210000D01*
X191440000Y-109970000D02*
X194140000Y-109970000D01*
X191440000Y-108470000D02*
X194140000Y-108470000D01*
X192940000Y-109370000D02*
X192940000Y-109120000D01*
X192940000Y-109120000D02*
X192790000Y-109270000D01*
X192690000Y-108870000D02*
X192690000Y-109570000D01*
X193040000Y-109220000D02*
X193390000Y-109220000D01*
X192690000Y-109220000D02*
X193040000Y-108870000D01*
X193040000Y-108870000D02*
X193040000Y-109570000D01*
X193040000Y-109570000D02*
X192690000Y-109220000D01*
X147435000Y-94310000D02*
X147435000Y-91610000D01*
X145935000Y-94310000D02*
X145935000Y-91610000D01*
X146835000Y-92810000D02*
X146585000Y-92810000D01*
X146585000Y-92810000D02*
X146735000Y-92960000D01*
X146335000Y-93060000D02*
X147035000Y-93060000D01*
X146685000Y-92710000D02*
X146685000Y-92360000D01*
X146685000Y-93060000D02*
X146335000Y-92710000D01*
X146335000Y-92710000D02*
X147035000Y-92710000D01*
X147035000Y-92710000D02*
X146685000Y-93060000D01*
X196965000Y-70815000D02*
X196965000Y-68115000D01*
X195465000Y-70815000D02*
X195465000Y-68115000D01*
X196365000Y-69315000D02*
X196115000Y-69315000D01*
X196115000Y-69315000D02*
X196265000Y-69465000D01*
X195865000Y-69565000D02*
X196565000Y-69565000D01*
X196215000Y-69215000D02*
X196215000Y-68865000D01*
X196215000Y-69565000D02*
X195865000Y-69215000D01*
X195865000Y-69215000D02*
X196565000Y-69215000D01*
X196565000Y-69215000D02*
X196215000Y-69565000D01*
X183951000Y-142284000D02*
X183951000Y-142084000D01*
X183951000Y-139690000D02*
X183951000Y-139870000D01*
X187178744Y-140000357D02*
G75*
G03X183951000Y-139684000I-1727744J-1003643D01*
G01*
X186503006Y-139870932D02*
G75*
G03X184400000Y-139870000I-1052006J-1133068D01*
G01*
X183963780Y-142310726D02*
G75*
G03X187201000Y-141964000I1497220J1306726D01*
G01*
X184437111Y-142083253D02*
G75*
G03X186485000Y-142064000I1013889J1079253D01*
G01*
X183951000Y-135934000D02*
X183951000Y-135734000D01*
X183951000Y-133340000D02*
X183951000Y-133520000D01*
X187178744Y-133650357D02*
G75*
G03X183951000Y-133334000I-1727744J-1003643D01*
G01*
X186503006Y-133520932D02*
G75*
G03X184400000Y-133520000I-1052006J-1133068D01*
G01*
X183963780Y-135960726D02*
G75*
G03X187201000Y-135614000I1497220J1306726D01*
G01*
X184437111Y-135733253D02*
G75*
G03X186485000Y-135714000I1013889J1079253D01*
G01*
X183951000Y-129584000D02*
X183951000Y-129384000D01*
X183951000Y-126990000D02*
X183951000Y-127170000D01*
X187178744Y-127300357D02*
G75*
G03X183951000Y-126984000I-1727744J-1003643D01*
G01*
X186503006Y-127170932D02*
G75*
G03X184400000Y-127170000I-1052006J-1133068D01*
G01*
X183963780Y-129610726D02*
G75*
G03X187201000Y-129264000I1497220J1306726D01*
G01*
X184437111Y-129383253D02*
G75*
G03X186485000Y-129364000I1013889J1079253D01*
G01*
X183951000Y-123234000D02*
X183951000Y-123034000D01*
X183951000Y-120640000D02*
X183951000Y-120820000D01*
X187178744Y-120950357D02*
G75*
G03X183951000Y-120634000I-1727744J-1003643D01*
G01*
X186503006Y-120820932D02*
G75*
G03X184400000Y-120820000I-1052006J-1133068D01*
G01*
X183963780Y-123260726D02*
G75*
G03X187201000Y-122914000I1497220J1306726D01*
G01*
X184437111Y-123033253D02*
G75*
G03X186485000Y-123014000I1013889J1079253D01*
G01*
X140970000Y-116205000D02*
X140970000Y-121285000D01*
X140970000Y-121285000D02*
X143510000Y-121285000D01*
X143510000Y-121285000D02*
X143510000Y-116205000D01*
X143790000Y-113385000D02*
X143790000Y-114935000D01*
X143510000Y-116205000D02*
X140970000Y-116205000D01*
X140690000Y-114935000D02*
X140690000Y-113385000D01*
X140690000Y-113385000D02*
X143790000Y-113385000D01*
X153035000Y-131800000D02*
X151485000Y-131800000D01*
X151485000Y-131800000D02*
X151485000Y-134900000D01*
X151485000Y-134900000D02*
X153035000Y-134900000D01*
X154305000Y-132080000D02*
X159385000Y-132080000D01*
X159385000Y-132080000D02*
X159385000Y-134620000D01*
X159385000Y-134620000D02*
X154305000Y-134620000D01*
X154305000Y-134620000D02*
X154305000Y-132080000D01*
X163830000Y-131800000D02*
X162280000Y-131800000D01*
X162280000Y-131800000D02*
X162280000Y-134900000D01*
X162280000Y-134900000D02*
X163830000Y-134900000D01*
X165100000Y-132080000D02*
X170180000Y-132080000D01*
X170180000Y-132080000D02*
X170180000Y-134620000D01*
X170180000Y-134620000D02*
X165100000Y-134620000D01*
X165100000Y-134620000D02*
X165100000Y-132080000D01*
X174625000Y-131800000D02*
X173075000Y-131800000D01*
X173075000Y-131800000D02*
X173075000Y-134900000D01*
X173075000Y-134900000D02*
X174625000Y-134900000D01*
X175895000Y-132080000D02*
X180975000Y-132080000D01*
X180975000Y-132080000D02*
X180975000Y-134620000D01*
X180975000Y-134620000D02*
X175895000Y-134620000D01*
X175895000Y-134620000D02*
X175895000Y-132080000D01*
X170815000Y-114935000D02*
X170815000Y-109855000D01*
X170815000Y-109855000D02*
X168275000Y-109855000D01*
X168275000Y-109855000D02*
X168275000Y-114935000D01*
X167995000Y-117755000D02*
X167995000Y-116205000D01*
X168275000Y-114935000D02*
X170815000Y-114935000D01*
X171095000Y-116205000D02*
X171095000Y-117755000D01*
X171095000Y-117755000D02*
X167995000Y-117755000D01*
X181610000Y-114935000D02*
X181610000Y-109855000D01*
X181610000Y-109855000D02*
X179070000Y-109855000D01*
X179070000Y-109855000D02*
X179070000Y-114935000D01*
X178790000Y-117755000D02*
X178790000Y-116205000D01*
X179070000Y-114935000D02*
X181610000Y-114935000D01*
X181890000Y-116205000D02*
X181890000Y-117755000D01*
X181890000Y-117755000D02*
X178790000Y-117755000D01*
X199990000Y-110095000D02*
X198790000Y-110095000D01*
X198790000Y-108345000D02*
X199990000Y-108345000D01*
X119415000Y-106440000D02*
X120615000Y-106440000D01*
X120615000Y-108190000D02*
X119415000Y-108190000D01*
X119415000Y-111520000D02*
X120615000Y-111520000D01*
X120615000Y-113270000D02*
X119415000Y-113270000D01*
X137125000Y-108190000D02*
X135925000Y-108190000D01*
X135925000Y-106440000D02*
X137125000Y-106440000D01*
X137830000Y-101360000D02*
X139030000Y-101360000D01*
X139030000Y-103110000D02*
X137830000Y-103110000D01*
X137125000Y-113270000D02*
X135925000Y-113270000D01*
X135925000Y-111520000D02*
X137125000Y-111520000D01*
X139030000Y-98030000D02*
X137830000Y-98030000D01*
X137830000Y-96280000D02*
X139030000Y-96280000D01*
X139030000Y-100570000D02*
X137830000Y-100570000D01*
X137830000Y-98820000D02*
X139030000Y-98820000D01*
X139030000Y-95490000D02*
X137830000Y-95490000D01*
X137830000Y-93740000D02*
X139030000Y-93740000D01*
X150100000Y-92110000D02*
X150100000Y-93310000D01*
X148350000Y-93310000D02*
X148350000Y-92110000D01*
X170215000Y-80405000D02*
X171415000Y-80405000D01*
X171415000Y-82155000D02*
X170215000Y-82155000D01*
X165700000Y-82155000D02*
X164500000Y-82155000D01*
X164500000Y-80405000D02*
X165700000Y-80405000D01*
X165700000Y-105015000D02*
X164500000Y-105015000D01*
X164500000Y-103265000D02*
X165700000Y-103265000D01*
X171415000Y-105015000D02*
X170215000Y-105015000D01*
X170215000Y-103265000D02*
X171415000Y-103265000D01*
X200420000Y-69815000D02*
X200420000Y-68615000D01*
X202170000Y-68615000D02*
X202170000Y-69815000D01*
X138230000Y-88470000D02*
G75*
G03X138230000Y-88470000I-100000J0D01*
G01*
X138680000Y-88720000D02*
X138180000Y-88720000D01*
X138680000Y-91620000D02*
X138680000Y-88720000D01*
X138180000Y-91620000D02*
X138680000Y-91620000D01*
X138180000Y-88720000D02*
X138180000Y-91620000D01*
D17*
X133350000Y-110490000D02*
X133350000Y-107950000D01*
X133350000Y-107950000D02*
X130810000Y-107950000D01*
X130810000Y-107950000D02*
X123190000Y-107950000D01*
X123190000Y-107950000D02*
X123190000Y-113030000D01*
X123190000Y-113030000D02*
X133350000Y-113030000D01*
X133350000Y-113030000D02*
X133350000Y-110490000D01*
D11*
X142835000Y-86280000D02*
X142835000Y-85030000D01*
X142835000Y-86280000D02*
X144335000Y-86280000D01*
X142835000Y-76280000D02*
X144335000Y-76280000D01*
X142835000Y-76280000D02*
X142835000Y-77530000D01*
X170815000Y-85391445D02*
X170337703Y-85868742D01*
X178133555Y-92710000D02*
X177656258Y-93187297D01*
X170815000Y-100028555D02*
X171292297Y-99551258D01*
X163496445Y-92710000D02*
X163973742Y-92232703D01*
X170815000Y-85391445D02*
X171292297Y-85868742D01*
X163496445Y-92710000D02*
X163973742Y-93187297D01*
X170815000Y-100028555D02*
X170337703Y-99551258D01*
X178133555Y-92710000D02*
X177656258Y-92232703D01*
X170337703Y-85868742D02*
X169436142Y-84967181D01*
X134620000Y-100965000D02*
X134620000Y-85725000D01*
X134620000Y-85725000D02*
X132080000Y-85725000D01*
X132080000Y-85725000D02*
X132080000Y-100965000D01*
X134900000Y-103785000D02*
X134900000Y-102235000D01*
X134620000Y-100965000D02*
X132080000Y-100965000D01*
X131800000Y-102235000D02*
X131800000Y-103785000D01*
X131800000Y-103785000D02*
X134900000Y-103785000D01*
X143510000Y-116205000D02*
X143510000Y-121285000D01*
X143510000Y-121285000D02*
X146050000Y-121285000D01*
X146050000Y-121285000D02*
X146050000Y-116205000D01*
X146330000Y-113385000D02*
X146330000Y-114935000D01*
X146050000Y-116205000D02*
X143510000Y-116205000D01*
X143230000Y-114935000D02*
X143230000Y-113385000D01*
X143230000Y-113385000D02*
X146330000Y-113385000D01*
X146050000Y-116205000D02*
X146050000Y-121285000D01*
X146050000Y-121285000D02*
X148590000Y-121285000D01*
X148590000Y-121285000D02*
X148590000Y-116205000D01*
X148870000Y-113385000D02*
X148870000Y-114935000D01*
X148590000Y-116205000D02*
X146050000Y-116205000D01*
X145770000Y-114935000D02*
X145770000Y-113385000D01*
X145770000Y-113385000D02*
X148870000Y-113385000D01*
X153315000Y-103860000D02*
X153315000Y-105410000D01*
X150215000Y-105410000D02*
X150215000Y-103860000D01*
X150215000Y-103860000D02*
X153315000Y-103860000D01*
X150495000Y-106680000D02*
X153035000Y-106680000D01*
X170920000Y-128725000D02*
X170920000Y-126375000D01*
X161820000Y-126375000D02*
X161820000Y-128725000D01*
X161820000Y-128725000D02*
X170920000Y-128725000D01*
X170930000Y-126335000D02*
G75*
G03X168880000Y-119265000I-4560000J2510000D01*
G01*
X170840000Y-121165000D02*
G75*
G03X163710000Y-119355000I-4470000J-2660000D01*
G01*
X163900000Y-119245000D02*
G75*
G03X161790000Y-126295000I2470000J-4580000D01*
G01*
X168570000Y-123825000D02*
G75*
G03X168570000Y-123825000I-2200000J0D01*
G01*
X202035000Y-86815000D02*
X202035000Y-84465000D01*
X192935000Y-84465000D02*
X192935000Y-86815000D01*
X192935000Y-86815000D02*
X202035000Y-86815000D01*
X202045000Y-84425000D02*
G75*
G03X199995000Y-77355000I-4560000J2510000D01*
G01*
X201955000Y-79255000D02*
G75*
G03X194825000Y-77445000I-4470000J-2660000D01*
G01*
X195015000Y-77335000D02*
G75*
G03X192905000Y-84385000I2470000J-4580000D01*
G01*
X199685000Y-81915000D02*
G75*
G03X199685000Y-81915000I-2200000J0D01*
G01*
X181715000Y-128725000D02*
X181715000Y-126375000D01*
X172615000Y-126375000D02*
X172615000Y-128725000D01*
X172615000Y-128725000D02*
X181715000Y-128725000D01*
X181725000Y-126335000D02*
G75*
G03X179675000Y-119265000I-4560000J2510000D01*
G01*
X181635000Y-121165000D02*
G75*
G03X174505000Y-119355000I-4470000J-2660000D01*
G01*
X174695000Y-119245000D02*
G75*
G03X172585000Y-126295000I2470000J-4580000D01*
G01*
X179365000Y-123825000D02*
G75*
G03X179365000Y-123825000I-2200000J0D01*
G01*
D18*
X145811240Y-69121020D02*
X145811240Y-73118980D01*
X145709640Y-73118980D02*
X145709640Y-69121020D01*
X145610580Y-69121020D02*
X145610580Y-73118980D01*
X145508980Y-73118980D02*
X145508980Y-69121020D01*
X145409920Y-69121020D02*
X145409920Y-73118980D01*
X145310860Y-69121020D02*
X145310860Y-73118980D01*
X145910300Y-69121020D02*
X145910300Y-73118980D01*
X145910300Y-73118980D02*
X141109700Y-73118980D01*
X141109700Y-73118980D02*
X141109700Y-69121020D01*
X141109700Y-69121020D02*
X145910300Y-69121020D01*
D11*
X116586000Y-67945000D02*
G75*
G03X116586000Y-67945000I-2286000J0D01*
G01*
X209296000Y-67945000D02*
G75*
G03X209296000Y-67945000I-2286000J0D01*
G01*
X127250000Y-97790000D02*
X129250000Y-97790000D01*
X128250000Y-98790000D02*
X128250000Y-96790000D01*
X131095000Y-100330000D02*
G75*
G03X131095000Y-100330000I-6000000J0D01*
G01*
D18*
X135651240Y-79281020D02*
X135651240Y-83278980D01*
X135549640Y-83278980D02*
X135549640Y-79281020D01*
X135450580Y-79281020D02*
X135450580Y-83278980D01*
X135348980Y-83278980D02*
X135348980Y-79281020D01*
X135249920Y-79281020D02*
X135249920Y-83278980D01*
X135150860Y-79281020D02*
X135150860Y-83278980D01*
X135750300Y-79281020D02*
X135750300Y-83278980D01*
X135750300Y-83278980D02*
X130949700Y-83278980D01*
X130949700Y-83278980D02*
X130949700Y-79281020D01*
X130949700Y-79281020D02*
X135750300Y-79281020D01*
D11*
X149308820Y-135176260D02*
X137711180Y-135176260D01*
X137711180Y-125173740D02*
X149308820Y-125173740D01*
D19*
X148021040Y-128374140D02*
X146618960Y-128374140D01*
X148021040Y-131975860D02*
X148021040Y-128374140D01*
X146618960Y-131975860D02*
X148021040Y-131975860D01*
X146618960Y-128374140D02*
X146618960Y-131975860D01*
X146618960Y-129974340D02*
X148021040Y-129974340D01*
X146618960Y-129773680D02*
X148021040Y-129773680D01*
X146618960Y-129374900D02*
X148021040Y-129374900D01*
X146618960Y-129575560D02*
X148021040Y-129575560D01*
X146618960Y-128775460D02*
X148021040Y-128775460D01*
X146618960Y-128574800D02*
X148021040Y-128574800D01*
X146618960Y-128973580D02*
X148021040Y-128973580D01*
X146618960Y-129174240D02*
X148021040Y-129174240D01*
X140401040Y-128374140D02*
X138998960Y-128374140D01*
X140401040Y-131975860D02*
X140401040Y-128374140D01*
X138998960Y-131975860D02*
X140401040Y-131975860D01*
X138998960Y-128374140D02*
X138998960Y-131975860D01*
X138998960Y-129974340D02*
X140401040Y-129974340D01*
X138998960Y-129773680D02*
X140401040Y-129773680D01*
X138998960Y-129374900D02*
X140401040Y-129374900D01*
X138998960Y-129575560D02*
X140401040Y-129575560D01*
X138998960Y-128775460D02*
X140401040Y-128775460D01*
X138998960Y-128574800D02*
X140401040Y-128574800D01*
X138998960Y-128973580D02*
X140401040Y-128973580D01*
X138998960Y-129174240D02*
X140401040Y-129174240D01*
X142941040Y-128374140D02*
X141538960Y-128374140D01*
X142941040Y-131975860D02*
X142941040Y-128374140D01*
X141538960Y-131975860D02*
X142941040Y-131975860D01*
X141538960Y-128374140D02*
X141538960Y-131975860D01*
X141538960Y-129974340D02*
X142941040Y-129974340D01*
X141538960Y-129773680D02*
X142941040Y-129773680D01*
X141538960Y-129374900D02*
X142941040Y-129374900D01*
X141538960Y-129575560D02*
X142941040Y-129575560D01*
X141538960Y-128775460D02*
X142941040Y-128775460D01*
X141538960Y-128574800D02*
X142941040Y-128574800D01*
X141538960Y-128973580D02*
X142941040Y-128973580D01*
X141538960Y-129174240D02*
X142941040Y-129174240D01*
X144078960Y-129174240D02*
X145481040Y-129174240D01*
X144078960Y-128973580D02*
X145481040Y-128973580D01*
X144078960Y-128574800D02*
X145481040Y-128574800D01*
X144078960Y-128775460D02*
X145481040Y-128775460D01*
X144078960Y-129575560D02*
X145481040Y-129575560D01*
X144078960Y-129374900D02*
X145481040Y-129374900D01*
X144078960Y-129773680D02*
X145481040Y-129773680D01*
X144078960Y-129974340D02*
X145481040Y-129974340D01*
X144078960Y-128374140D02*
X144078960Y-131975860D01*
X144078960Y-131975860D02*
X145481040Y-131975860D01*
X145481040Y-131975860D02*
X145481040Y-128374140D01*
X145481040Y-128374140D02*
X144078960Y-128374140D01*
D11*
X149308820Y-125176280D02*
X149308820Y-135176260D01*
X137711180Y-135176260D02*
X137711180Y-125173740D01*
X175895000Y-105765000D02*
X177445000Y-105765000D01*
X177445000Y-105765000D02*
X177445000Y-108865000D01*
X177445000Y-108865000D02*
X175895000Y-108865000D01*
X174625000Y-108585000D02*
X164465000Y-108585000D01*
X164465000Y-108585000D02*
X164465000Y-106045000D01*
X164465000Y-106045000D02*
X174625000Y-106045000D01*
X174625000Y-108585000D02*
X174625000Y-106045000D01*
X113030000Y-71120000D02*
X112268000Y-71120000D01*
X112268000Y-71120000D02*
X112268000Y-81280000D01*
X112268000Y-81280000D02*
X113030000Y-81280000D01*
X121412000Y-71120000D02*
X121412000Y-81280000D01*
X121412000Y-81280000D02*
X120396000Y-81280000D01*
X120396000Y-81280000D02*
X120396000Y-71120000D01*
X120396000Y-71120000D02*
X121412000Y-71120000D01*
X120650000Y-71120000D02*
X113030000Y-71120000D01*
X113030000Y-81280000D02*
X120650000Y-81280000D01*
X160125000Y-128725000D02*
X160125000Y-126375000D01*
X151025000Y-126375000D02*
X151025000Y-128725000D01*
X151025000Y-128725000D02*
X160125000Y-128725000D01*
X160135000Y-126335000D02*
G75*
G03X158085000Y-119265000I-4560000J2510000D01*
G01*
X160045000Y-121165000D02*
G75*
G03X152915000Y-119355000I-4470000J-2660000D01*
G01*
X153105000Y-119245000D02*
G75*
G03X150995000Y-126295000I2470000J-4580000D01*
G01*
X157775000Y-123825000D02*
G75*
G03X157775000Y-123825000I-2200000J0D01*
G01*
X188515000Y-132055000D02*
X203915000Y-132055000D01*
X188515000Y-113055000D02*
X188515000Y-132055000D01*
X203915000Y-113055000D02*
X203915000Y-132055000D01*
X188515000Y-113055000D02*
X203915000Y-113055000D01*
X194515000Y-128655000D02*
X190215000Y-128655000D01*
X202215000Y-128655000D02*
X197915000Y-128655000D01*
X196215000Y-123955000D02*
X196215000Y-125455000D01*
X196215000Y-125455000D02*
X198715000Y-130055000D01*
X192615000Y-123955000D02*
X192615000Y-117155000D01*
X196215000Y-123955000D02*
X192615000Y-123955000D01*
X196215000Y-114455000D02*
X196215000Y-117155000D01*
X196215000Y-117155000D02*
X192615000Y-117155000D01*
X190215000Y-116455000D02*
X190215000Y-120555000D01*
X202215000Y-116455000D02*
X202215000Y-120555000D01*
X202215000Y-120555000D02*
X198015000Y-120555000D01*
X194415000Y-120555000D02*
X190215000Y-120555000D01*
X194415000Y-122555000D02*
X198015000Y-118555000D01*
X194415000Y-118555000D02*
X198015000Y-118555000D01*
X198015000Y-118555000D02*
X198015000Y-122555000D01*
X198015000Y-122555000D02*
X194415000Y-122555000D01*
X194415000Y-122555000D02*
X194415000Y-118555000D01*
X203835000Y-132588000D02*
X203835000Y-133604000D01*
X203835000Y-133604000D02*
X188595000Y-133604000D01*
X188595000Y-133604000D02*
X188595000Y-132588000D01*
X188595000Y-132588000D02*
X203835000Y-132588000D01*
X203835000Y-141732000D02*
X203835000Y-140970000D01*
X203835000Y-141732000D02*
X188595000Y-141732000D01*
X188595000Y-141732000D02*
X188595000Y-140970000D01*
X203835000Y-133350000D02*
X203835000Y-140970000D01*
X188595000Y-133350000D02*
X188595000Y-140970000D01*
X182285640Y-98508820D02*
X187284360Y-98508820D01*
X187284360Y-98508820D02*
X187284360Y-86911180D01*
X187284360Y-86911180D02*
X182285640Y-86911180D01*
X182285640Y-86911180D02*
X182285640Y-98508820D01*
X184785000Y-87122000D02*
G75*
G03X182499000Y-89408000I0J-2286000D01*
G01*
X186563000Y-96012000D02*
X186563000Y-89408000D01*
X183007000Y-89408000D02*
X183007000Y-96012000D01*
X186563000Y-89408000D02*
G75*
G03X184785000Y-87630000I-1778000J0D01*
G01*
X184785000Y-87630000D02*
G75*
G03X183007000Y-89408000I0J-1778000D01*
G01*
X184785000Y-97790000D02*
G75*
G03X186563000Y-96012000I0J1778000D01*
G01*
X183007000Y-96012000D02*
G75*
G03X184785000Y-97790000I1778000J0D01*
G01*
X187071000Y-89408000D02*
G75*
G03X184785000Y-87122000I-2286000J0D01*
G01*
X187071000Y-89408000D02*
X187071000Y-96012000D01*
X182499000Y-96012000D02*
X182499000Y-89408000D01*
X184785000Y-98298000D02*
G75*
G03X187071000Y-96012000I0J2286000D01*
G01*
X182499000Y-96012000D02*
G75*
G03X184785000Y-98298000I2286000J0D01*
G01*
X116586000Y-140970000D02*
G75*
G03X116586000Y-140970000I-2286000J0D01*
G01*
X209296000Y-140970000D02*
G75*
G03X209296000Y-140970000I-2286000J0D01*
G01*
X149352000Y-142113000D02*
X149352000Y-136017000D01*
X149352000Y-136017000D02*
X155448000Y-136017000D01*
X155448000Y-136017000D02*
X155448000Y-142113000D01*
X155448000Y-142113000D02*
X149352000Y-142113000D01*
D16*
X153203219Y-139065000D02*
G75*
G03X153203219Y-139065000I-803219J0D01*
G01*
D11*
X158877000Y-142113000D02*
X158877000Y-136017000D01*
X158877000Y-136017000D02*
X164973000Y-136017000D01*
X164973000Y-136017000D02*
X164973000Y-142113000D01*
X164973000Y-142113000D02*
X158877000Y-142113000D01*
D16*
X162728219Y-139065000D02*
G75*
G03X162728219Y-139065000I-803219J0D01*
G01*
D11*
X168402000Y-142113000D02*
X168402000Y-136017000D01*
X168402000Y-136017000D02*
X174498000Y-136017000D01*
X174498000Y-136017000D02*
X174498000Y-142113000D01*
X174498000Y-142113000D02*
X168402000Y-142113000D01*
D16*
X172253219Y-139065000D02*
G75*
G03X172253219Y-139065000I-803219J0D01*
G01*
D11*
X161798000Y-108077000D02*
X161798000Y-114173000D01*
X161798000Y-114173000D02*
X155702000Y-114173000D01*
X155702000Y-114173000D02*
X155702000Y-108077000D01*
X155702000Y-108077000D02*
X161798000Y-108077000D01*
D16*
X159553219Y-111125000D02*
G75*
G03X159553219Y-111125000I-803219J0D01*
G01*
D11*
X127508095Y-124547381D02*
X127508095Y-125356905D01*
X127555714Y-125452143D01*
X127603333Y-125499762D01*
X127698571Y-125547381D01*
X127889048Y-125547381D01*
X127984286Y-125499762D01*
X128031905Y-125452143D01*
X128079524Y-125356905D01*
X128079524Y-124547381D01*
X128460476Y-124547381D02*
X129127143Y-124547381D01*
X128698571Y-125547381D01*
X160627381Y-73509047D02*
X160627381Y-73985238D01*
X159627381Y-73985238D01*
X160103571Y-73175714D02*
X160103571Y-72842380D01*
X160627381Y-72699523D02*
X160627381Y-73175714D01*
X159627381Y-73175714D01*
X159627381Y-72699523D01*
X160627381Y-72270952D02*
X159627381Y-72270952D01*
X159627381Y-72032857D01*
X159675000Y-71889999D01*
X159770238Y-71794761D01*
X159865476Y-71747142D01*
X160055952Y-71699523D01*
X160198810Y-71699523D01*
X160389286Y-71747142D01*
X160484524Y-71794761D01*
X160579762Y-71889999D01*
X160627381Y-72032857D01*
X160627381Y-72270952D01*
X159627381Y-71366190D02*
X159627381Y-70747142D01*
X160008333Y-71080476D01*
X160008333Y-70937618D01*
X160055952Y-70842380D01*
X160103571Y-70794761D01*
X160198810Y-70747142D01*
X160436905Y-70747142D01*
X160532143Y-70794761D01*
X160579762Y-70842380D01*
X160627381Y-70937618D01*
X160627381Y-71223333D01*
X160579762Y-71318571D01*
X160532143Y-71366190D01*
X156817381Y-73509047D02*
X156817381Y-73985238D01*
X155817381Y-73985238D01*
X156293571Y-73175714D02*
X156293571Y-72842380D01*
X156817381Y-72699523D02*
X156817381Y-73175714D01*
X155817381Y-73175714D01*
X155817381Y-72699523D01*
X156817381Y-72270952D02*
X155817381Y-72270952D01*
X155817381Y-72032857D01*
X155865000Y-71889999D01*
X155960238Y-71794761D01*
X156055476Y-71747142D01*
X156245952Y-71699523D01*
X156388810Y-71699523D01*
X156579286Y-71747142D01*
X156674524Y-71794761D01*
X156769762Y-71889999D01*
X156817381Y-72032857D01*
X156817381Y-72270952D01*
X155912619Y-71318571D02*
X155865000Y-71270952D01*
X155817381Y-71175714D01*
X155817381Y-70937618D01*
X155865000Y-70842380D01*
X155912619Y-70794761D01*
X156007857Y-70747142D01*
X156103095Y-70747142D01*
X156245952Y-70794761D01*
X156817381Y-71366190D01*
X156817381Y-70747142D01*
X141541667Y-143279762D02*
X141684524Y-143327381D01*
X141922620Y-143327381D01*
X142017858Y-143279762D01*
X142065477Y-143232143D01*
X142113096Y-143136905D01*
X142113096Y-143041667D01*
X142065477Y-142946429D01*
X142017858Y-142898810D01*
X141922620Y-142851190D01*
X141732143Y-142803571D01*
X141636905Y-142755952D01*
X141589286Y-142708333D01*
X141541667Y-142613095D01*
X141541667Y-142517857D01*
X141589286Y-142422619D01*
X141636905Y-142375000D01*
X141732143Y-142327381D01*
X141970239Y-142327381D01*
X142113096Y-142375000D01*
X142446429Y-142327381D02*
X142684524Y-143327381D01*
X142875001Y-142613095D01*
X143065477Y-143327381D01*
X143303572Y-142327381D01*
X144208334Y-143327381D02*
X143636905Y-143327381D01*
X143922619Y-143327381D02*
X143922619Y-142327381D01*
X143827381Y-142470238D01*
X143732143Y-142565476D01*
X143636905Y-142613095D01*
X140295715Y-128198571D02*
X140438572Y-128246190D01*
X140486191Y-128293810D01*
X140533810Y-128389048D01*
X140533810Y-128531905D01*
X140486191Y-128627143D01*
X140438572Y-128674762D01*
X140343334Y-128722381D01*
X139962381Y-128722381D01*
X139962381Y-127722381D01*
X140295715Y-127722381D01*
X140390953Y-127770000D01*
X140438572Y-127817619D01*
X140486191Y-127912857D01*
X140486191Y-128008095D01*
X140438572Y-128103333D01*
X140390953Y-128150952D01*
X140295715Y-128198571D01*
X139962381Y-128198571D01*
X140819524Y-127722381D02*
X141390953Y-127722381D01*
X141105238Y-128722381D02*
X141105238Y-127722381D01*
X141724286Y-128722381D02*
X141724286Y-127722381D01*
X142295715Y-128722381D01*
X142295715Y-127722381D01*
X142533810Y-128817619D02*
X143295715Y-128817619D01*
X144057620Y-127770000D02*
X143962382Y-127722381D01*
X143819525Y-127722381D01*
X143676667Y-127770000D01*
X143581429Y-127865238D01*
X143533810Y-127960476D01*
X143486191Y-128150952D01*
X143486191Y-128293810D01*
X143533810Y-128484286D01*
X143581429Y-128579524D01*
X143676667Y-128674762D01*
X143819525Y-128722381D01*
X143914763Y-128722381D01*
X144057620Y-128674762D01*
X144105239Y-128627143D01*
X144105239Y-128293810D01*
X143914763Y-128293810D01*
X144533810Y-128722381D02*
X144533810Y-127722381D01*
X145105239Y-128722381D01*
X145105239Y-127722381D01*
X145581429Y-128722381D02*
X145581429Y-127722381D01*
X145819524Y-127722381D01*
X145962382Y-127770000D01*
X146057620Y-127865238D01*
X146105239Y-127960476D01*
X146152858Y-128150952D01*
X146152858Y-128293810D01*
X146105239Y-128484286D01*
X146057620Y-128579524D01*
X145962382Y-128674762D01*
X145819524Y-128722381D01*
X145581429Y-128722381D01*
X147105239Y-128722381D02*
X146533810Y-128722381D01*
X146819524Y-128722381D02*
X146819524Y-127722381D01*
X146724286Y-127865238D01*
X146629048Y-127960476D01*
X146533810Y-128008095D01*
X133183334Y-110847143D02*
X133135715Y-110894762D01*
X132992858Y-110942381D01*
X132897620Y-110942381D01*
X132754762Y-110894762D01*
X132659524Y-110799524D01*
X132611905Y-110704286D01*
X132564286Y-110513810D01*
X132564286Y-110370952D01*
X132611905Y-110180476D01*
X132659524Y-110085238D01*
X132754762Y-109990000D01*
X132897620Y-109942381D01*
X132992858Y-109942381D01*
X133135715Y-109990000D01*
X133183334Y-110037619D01*
X134088096Y-109942381D02*
X133611905Y-109942381D01*
X133564286Y-110418571D01*
X133611905Y-110370952D01*
X133707143Y-110323333D01*
X133945239Y-110323333D01*
X134040477Y-110370952D01*
X134088096Y-110418571D01*
X134135715Y-110513810D01*
X134135715Y-110751905D01*
X134088096Y-110847143D01*
X134040477Y-110894762D01*
X133945239Y-110942381D01*
X133707143Y-110942381D01*
X133611905Y-110894762D01*
X133564286Y-110847143D01*
X189698334Y-101957143D02*
X189650715Y-102004762D01*
X189507858Y-102052381D01*
X189412620Y-102052381D01*
X189269762Y-102004762D01*
X189174524Y-101909524D01*
X189126905Y-101814286D01*
X189079286Y-101623810D01*
X189079286Y-101480952D01*
X189126905Y-101290476D01*
X189174524Y-101195238D01*
X189269762Y-101100000D01*
X189412620Y-101052381D01*
X189507858Y-101052381D01*
X189650715Y-101100000D01*
X189698334Y-101147619D01*
X190555477Y-101052381D02*
X190365000Y-101052381D01*
X190269762Y-101100000D01*
X190222143Y-101147619D01*
X190126905Y-101290476D01*
X190079286Y-101480952D01*
X190079286Y-101861905D01*
X190126905Y-101957143D01*
X190174524Y-102004762D01*
X190269762Y-102052381D01*
X190460239Y-102052381D01*
X190555477Y-102004762D01*
X190603096Y-101957143D01*
X190650715Y-101861905D01*
X190650715Y-101623810D01*
X190603096Y-101528571D01*
X190555477Y-101480952D01*
X190460239Y-101433333D01*
X190269762Y-101433333D01*
X190174524Y-101480952D01*
X190126905Y-101528571D01*
X190079286Y-101623810D01*
X189698334Y-84177143D02*
X189650715Y-84224762D01*
X189507858Y-84272381D01*
X189412620Y-84272381D01*
X189269762Y-84224762D01*
X189174524Y-84129524D01*
X189126905Y-84034286D01*
X189079286Y-83843810D01*
X189079286Y-83700952D01*
X189126905Y-83510476D01*
X189174524Y-83415238D01*
X189269762Y-83320000D01*
X189412620Y-83272381D01*
X189507858Y-83272381D01*
X189650715Y-83320000D01*
X189698334Y-83367619D01*
X190031667Y-83272381D02*
X190698334Y-83272381D01*
X190269762Y-84272381D01*
X179334611Y-83954688D02*
X179267268Y-83954688D01*
X179132581Y-83887344D01*
X179065237Y-83820001D01*
X178997893Y-83685313D01*
X178997893Y-83550626D01*
X179031565Y-83449611D01*
X179132580Y-83281253D01*
X179233596Y-83180237D01*
X179401955Y-83079222D01*
X179502970Y-83045550D01*
X179637657Y-83045550D01*
X179772344Y-83112894D01*
X179839688Y-83180237D01*
X179907031Y-83314924D01*
X179907031Y-83382268D01*
X180075390Y-84022030D02*
X180041718Y-83921015D01*
X180041718Y-83853672D01*
X180075390Y-83752657D01*
X180109061Y-83718985D01*
X180210076Y-83685313D01*
X180277420Y-83685313D01*
X180378435Y-83718985D01*
X180513123Y-83853672D01*
X180546794Y-83954688D01*
X180546794Y-84022031D01*
X180513123Y-84123046D01*
X180479451Y-84156718D01*
X180378436Y-84190390D01*
X180311092Y-84190390D01*
X180210077Y-84156718D01*
X180075390Y-84022030D01*
X179974374Y-83988359D01*
X179907031Y-83988359D01*
X179806015Y-84022031D01*
X179671328Y-84156718D01*
X179637657Y-84257733D01*
X179637657Y-84325076D01*
X179671328Y-84426092D01*
X179806016Y-84560779D01*
X179907031Y-84594451D01*
X179974374Y-84594451D01*
X180075390Y-84560779D01*
X180210076Y-84426092D01*
X180243749Y-84325076D01*
X180243749Y-84257733D01*
X180210077Y-84156718D01*
X162694688Y-84825389D02*
X162694688Y-84892732D01*
X162627344Y-85027419D01*
X162560001Y-85094763D01*
X162425313Y-85162107D01*
X162290626Y-85162107D01*
X162189611Y-85128435D01*
X162021253Y-85027420D01*
X161920237Y-84926404D01*
X161819222Y-84758045D01*
X161785550Y-84657030D01*
X161785550Y-84522343D01*
X161852894Y-84387656D01*
X161920237Y-84320312D01*
X162054924Y-84252969D01*
X162122268Y-84252969D01*
X163098748Y-84556015D02*
X163233435Y-84421328D01*
X163267107Y-84320312D01*
X163267107Y-84252969D01*
X163233436Y-84084610D01*
X163132421Y-83916252D01*
X162863046Y-83646877D01*
X162762031Y-83613206D01*
X162694688Y-83613206D01*
X162593672Y-83646877D01*
X162458985Y-83781565D01*
X162425313Y-83882580D01*
X162425313Y-83949924D01*
X162458985Y-84050939D01*
X162627343Y-84219297D01*
X162728359Y-84252969D01*
X162795703Y-84252970D01*
X162896718Y-84219298D01*
X163031405Y-84084610D01*
X163065077Y-83983595D01*
X163065076Y-83916251D01*
X163031405Y-83815236D01*
X161217893Y-100762970D02*
X161150550Y-100762970D01*
X161015863Y-100695626D01*
X160948519Y-100628283D01*
X160881175Y-100493595D01*
X160881175Y-100358908D01*
X160914847Y-100257893D01*
X161015862Y-100089535D01*
X161116878Y-99988519D01*
X161285237Y-99887504D01*
X161386252Y-99853832D01*
X161520939Y-99853832D01*
X161655626Y-99921176D01*
X161722970Y-99988519D01*
X161790313Y-100123206D01*
X161790313Y-100190550D01*
X161823985Y-101503748D02*
X161419924Y-101099687D01*
X161621954Y-101301717D02*
X162329061Y-100594610D01*
X162160702Y-100628282D01*
X162026015Y-100628282D01*
X161925000Y-100594610D01*
X162968824Y-101234374D02*
X163036168Y-101301718D01*
X163069840Y-101402733D01*
X163069840Y-101470076D01*
X163036168Y-101571092D01*
X162935153Y-101739450D01*
X162766794Y-101907810D01*
X162598435Y-102008825D01*
X162497420Y-102042496D01*
X162430076Y-102042496D01*
X162329061Y-102008825D01*
X162261717Y-101941481D01*
X162228045Y-101840465D01*
X162228045Y-101773122D01*
X162261717Y-101672107D01*
X162362732Y-101503748D01*
X162531092Y-101335389D01*
X162699450Y-101234374D01*
X162800465Y-101200702D01*
X162867809Y-101200702D01*
X162968824Y-101234374D01*
X179502970Y-101672107D02*
X179502970Y-101739450D01*
X179435626Y-101874137D01*
X179368283Y-101941481D01*
X179233595Y-102008825D01*
X179098908Y-102008825D01*
X178997893Y-101975153D01*
X178829535Y-101874138D01*
X178728519Y-101773122D01*
X178627504Y-101604763D01*
X178593832Y-101503748D01*
X178593832Y-101369061D01*
X178661176Y-101234374D01*
X178728519Y-101167030D01*
X178863206Y-101099687D01*
X178930550Y-101099687D01*
X180243748Y-101066015D02*
X179839687Y-101470076D01*
X180041717Y-101268046D02*
X179334610Y-100560939D01*
X179368282Y-100729298D01*
X179368282Y-100863985D01*
X179334610Y-100965000D01*
X180917183Y-100392580D02*
X180513122Y-100796641D01*
X180715152Y-100594611D02*
X180008045Y-99887504D01*
X180041717Y-100055863D01*
X180041717Y-100190550D01*
X180008045Y-100291565D01*
X120618334Y-67667143D02*
X120570715Y-67714762D01*
X120427858Y-67762381D01*
X120332620Y-67762381D01*
X120189762Y-67714762D01*
X120094524Y-67619524D01*
X120046905Y-67524286D01*
X119999286Y-67333810D01*
X119999286Y-67190952D01*
X120046905Y-67000476D01*
X120094524Y-66905238D01*
X120189762Y-66810000D01*
X120332620Y-66762381D01*
X120427858Y-66762381D01*
X120570715Y-66810000D01*
X120618334Y-66857619D01*
X121046905Y-67762381D02*
X121046905Y-66762381D01*
X121427858Y-66762381D01*
X121523096Y-66810000D01*
X121570715Y-66857619D01*
X121618334Y-66952857D01*
X121618334Y-67095714D01*
X121570715Y-67190952D01*
X121523096Y-67238571D01*
X121427858Y-67286190D01*
X121046905Y-67286190D01*
X122570715Y-67762381D02*
X121999286Y-67762381D01*
X122285000Y-67762381D02*
X122285000Y-66762381D01*
X122189762Y-66905238D01*
X122094524Y-67000476D01*
X121999286Y-67048095D01*
X118078334Y-129897143D02*
X118030715Y-129944762D01*
X117887858Y-129992381D01*
X117792620Y-129992381D01*
X117649762Y-129944762D01*
X117554524Y-129849524D01*
X117506905Y-129754286D01*
X117459286Y-129563810D01*
X117459286Y-129420952D01*
X117506905Y-129230476D01*
X117554524Y-129135238D01*
X117649762Y-129040000D01*
X117792620Y-128992381D01*
X117887858Y-128992381D01*
X118030715Y-129040000D01*
X118078334Y-129087619D01*
X118506905Y-129992381D02*
X118506905Y-128992381D01*
X118887858Y-128992381D01*
X118983096Y-129040000D01*
X119030715Y-129087619D01*
X119078334Y-129182857D01*
X119078334Y-129325714D01*
X119030715Y-129420952D01*
X118983096Y-129468571D01*
X118887858Y-129516190D01*
X118506905Y-129516190D01*
X119459286Y-129087619D02*
X119506905Y-129040000D01*
X119602143Y-128992381D01*
X119840239Y-128992381D01*
X119935477Y-129040000D01*
X119983096Y-129087619D01*
X120030715Y-129182857D01*
X120030715Y-129278095D01*
X119983096Y-129420952D01*
X119411667Y-129992381D01*
X120030715Y-129992381D01*
X132683334Y-67667143D02*
X132635715Y-67714762D01*
X132492858Y-67762381D01*
X132397620Y-67762381D01*
X132254762Y-67714762D01*
X132159524Y-67619524D01*
X132111905Y-67524286D01*
X132064286Y-67333810D01*
X132064286Y-67190952D01*
X132111905Y-67000476D01*
X132159524Y-66905238D01*
X132254762Y-66810000D01*
X132397620Y-66762381D01*
X132492858Y-66762381D01*
X132635715Y-66810000D01*
X132683334Y-66857619D01*
X133111905Y-67762381D02*
X133111905Y-66762381D01*
X133492858Y-66762381D01*
X133588096Y-66810000D01*
X133635715Y-66857619D01*
X133683334Y-66952857D01*
X133683334Y-67095714D01*
X133635715Y-67190952D01*
X133588096Y-67238571D01*
X133492858Y-67286190D01*
X133111905Y-67286190D01*
X134016667Y-66762381D02*
X134635715Y-66762381D01*
X134302381Y-67143333D01*
X134445239Y-67143333D01*
X134540477Y-67190952D01*
X134588096Y-67238571D01*
X134635715Y-67333810D01*
X134635715Y-67571905D01*
X134588096Y-67667143D01*
X134540477Y-67714762D01*
X134445239Y-67762381D01*
X134159524Y-67762381D01*
X134064286Y-67714762D01*
X134016667Y-67667143D01*
X146018334Y-67667143D02*
X145970715Y-67714762D01*
X145827858Y-67762381D01*
X145732620Y-67762381D01*
X145589762Y-67714762D01*
X145494524Y-67619524D01*
X145446905Y-67524286D01*
X145399286Y-67333810D01*
X145399286Y-67190952D01*
X145446905Y-67000476D01*
X145494524Y-66905238D01*
X145589762Y-66810000D01*
X145732620Y-66762381D01*
X145827858Y-66762381D01*
X145970715Y-66810000D01*
X146018334Y-66857619D01*
X146446905Y-67762381D02*
X146446905Y-66762381D01*
X146827858Y-66762381D01*
X146923096Y-66810000D01*
X146970715Y-66857619D01*
X147018334Y-66952857D01*
X147018334Y-67095714D01*
X146970715Y-67190952D01*
X146923096Y-67238571D01*
X146827858Y-67286190D01*
X146446905Y-67286190D01*
X147875477Y-67095714D02*
X147875477Y-67762381D01*
X147637381Y-66714762D02*
X147399286Y-67429048D01*
X148018334Y-67429048D01*
X154027143Y-94011666D02*
X154074762Y-94059285D01*
X154122381Y-94202142D01*
X154122381Y-94297380D01*
X154074762Y-94440238D01*
X153979524Y-94535476D01*
X153884286Y-94583095D01*
X153693810Y-94630714D01*
X153550952Y-94630714D01*
X153360476Y-94583095D01*
X153265238Y-94535476D01*
X153170000Y-94440238D01*
X153122381Y-94297380D01*
X153122381Y-94202142D01*
X153170000Y-94059285D01*
X153217619Y-94011666D01*
X154122381Y-93583095D02*
X153122381Y-93583095D01*
X153122381Y-93202142D01*
X153170000Y-93106904D01*
X153217619Y-93059285D01*
X153312857Y-93011666D01*
X153455714Y-93011666D01*
X153550952Y-93059285D01*
X153598571Y-93106904D01*
X153646190Y-93202142D01*
X153646190Y-93583095D01*
X153122381Y-92106904D02*
X153122381Y-92583095D01*
X153598571Y-92630714D01*
X153550952Y-92583095D01*
X153503333Y-92487857D01*
X153503333Y-92249761D01*
X153550952Y-92154523D01*
X153598571Y-92106904D01*
X153693810Y-92059285D01*
X153931905Y-92059285D01*
X154027143Y-92106904D01*
X154074762Y-92154523D01*
X154122381Y-92249761D01*
X154122381Y-92487857D01*
X154074762Y-92583095D01*
X154027143Y-92630714D01*
X159837381Y-82732381D02*
X158837381Y-82732381D01*
X158932619Y-82303810D02*
X158885000Y-82256191D01*
X158837381Y-82160953D01*
X158837381Y-81922857D01*
X158885000Y-81827619D01*
X158932619Y-81780000D01*
X159027857Y-81732381D01*
X159123095Y-81732381D01*
X159265952Y-81780000D01*
X159837381Y-82351429D01*
X159837381Y-81732381D01*
X159742143Y-80732381D02*
X159789762Y-80780000D01*
X159837381Y-80922857D01*
X159837381Y-81018095D01*
X159789762Y-81160953D01*
X159694524Y-81256191D01*
X159599286Y-81303810D01*
X159408810Y-81351429D01*
X159265952Y-81351429D01*
X159075476Y-81303810D01*
X158980238Y-81256191D01*
X158885000Y-81160953D01*
X158837381Y-81018095D01*
X158837381Y-80922857D01*
X158885000Y-80780000D01*
X158932619Y-80732381D01*
X159837381Y-79780000D02*
X159837381Y-80351429D01*
X159837381Y-80065715D02*
X158837381Y-80065715D01*
X158980238Y-80160953D01*
X159075476Y-80256191D01*
X159123095Y-80351429D01*
X140152381Y-113037619D02*
X139152381Y-113037619D01*
X139247619Y-112609048D02*
X139200000Y-112561429D01*
X139152381Y-112466191D01*
X139152381Y-112228095D01*
X139200000Y-112132857D01*
X139247619Y-112085238D01*
X139342857Y-112037619D01*
X139438095Y-112037619D01*
X139580952Y-112085238D01*
X140152381Y-112656667D01*
X140152381Y-112037619D01*
X140057143Y-111037619D02*
X140104762Y-111085238D01*
X140152381Y-111228095D01*
X140152381Y-111323333D01*
X140104762Y-111466191D01*
X140009524Y-111561429D01*
X139914286Y-111609048D01*
X139723810Y-111656667D01*
X139580952Y-111656667D01*
X139390476Y-111609048D01*
X139295238Y-111561429D01*
X139200000Y-111466191D01*
X139152381Y-111323333D01*
X139152381Y-111228095D01*
X139200000Y-111085238D01*
X139247619Y-111037619D01*
X140152381Y-110609048D02*
X139152381Y-110609048D01*
X139152381Y-110228095D01*
X139200000Y-110132857D01*
X139247619Y-110085238D01*
X139342857Y-110037619D01*
X139485714Y-110037619D01*
X139580952Y-110085238D01*
X139628571Y-110132857D01*
X139676190Y-110228095D01*
X139676190Y-110609048D01*
X139152381Y-109704286D02*
X140152381Y-109466191D01*
X139438095Y-109275714D01*
X140152381Y-109085238D01*
X139152381Y-108847143D01*
X140152381Y-107894762D02*
X139676190Y-108228096D01*
X140152381Y-108466191D02*
X139152381Y-108466191D01*
X139152381Y-108085238D01*
X139200000Y-107990000D01*
X139247619Y-107942381D01*
X139342857Y-107894762D01*
X139485714Y-107894762D01*
X139580952Y-107942381D01*
X139628571Y-107990000D01*
X139676190Y-108085238D01*
X139676190Y-108466191D01*
X113752381Y-86693333D02*
X114466667Y-86693333D01*
X114609524Y-86740953D01*
X114704762Y-86836191D01*
X114752381Y-86979048D01*
X114752381Y-87074286D01*
X114752381Y-85693333D02*
X114752381Y-86264762D01*
X114752381Y-85979048D02*
X113752381Y-85979048D01*
X113895238Y-86074286D01*
X113990476Y-86169524D01*
X114038095Y-86264762D01*
X205906667Y-75803095D02*
X205906667Y-75326904D01*
X206192381Y-75898333D02*
X205192381Y-75565000D01*
X206192381Y-75231666D01*
X115498571Y-92003571D02*
X115546190Y-91860714D01*
X115593810Y-91813095D01*
X115689048Y-91765476D01*
X115831905Y-91765476D01*
X115927143Y-91813095D01*
X115974762Y-91860714D01*
X116022381Y-91955952D01*
X116022381Y-92336905D01*
X115022381Y-92336905D01*
X115022381Y-92003571D01*
X115070000Y-91908333D01*
X115117619Y-91860714D01*
X115212857Y-91813095D01*
X115308095Y-91813095D01*
X115403333Y-91860714D01*
X115450952Y-91908333D01*
X115498571Y-92003571D01*
X115498571Y-92336905D01*
X191444524Y-69572143D02*
X191396905Y-69619762D01*
X191254048Y-69667381D01*
X191158810Y-69667381D01*
X191015952Y-69619762D01*
X190920714Y-69524524D01*
X190873095Y-69429286D01*
X190825476Y-69238810D01*
X190825476Y-69095952D01*
X190873095Y-68905476D01*
X190920714Y-68810238D01*
X191015952Y-68715000D01*
X191158810Y-68667381D01*
X191254048Y-68667381D01*
X191396905Y-68715000D01*
X191444524Y-68762619D01*
X205192381Y-112093333D02*
X205906667Y-112093333D01*
X206049524Y-112140953D01*
X206144762Y-112236191D01*
X206192381Y-112379048D01*
X206192381Y-112474286D01*
X205192381Y-111188571D02*
X205192381Y-111379048D01*
X205240000Y-111474286D01*
X205287619Y-111521905D01*
X205430476Y-111617143D01*
X205620952Y-111664762D01*
X206001905Y-111664762D01*
X206097143Y-111617143D01*
X206144762Y-111569524D01*
X206192381Y-111474286D01*
X206192381Y-111283809D01*
X206144762Y-111188571D01*
X206097143Y-111140952D01*
X206001905Y-111093333D01*
X205763810Y-111093333D01*
X205668571Y-111140952D01*
X205620952Y-111188571D01*
X205573333Y-111283809D01*
X205573333Y-111474286D01*
X205620952Y-111569524D01*
X205668571Y-111617143D01*
X205763810Y-111664762D01*
X206319524Y-74112381D02*
X205843333Y-74112381D01*
X205843333Y-73112381D01*
X207224286Y-74017143D02*
X207176667Y-74064762D01*
X207033810Y-74112381D01*
X206938572Y-74112381D01*
X206795714Y-74064762D01*
X206700476Y-73969524D01*
X206652857Y-73874286D01*
X206605238Y-73683810D01*
X206605238Y-73540952D01*
X206652857Y-73350476D01*
X206700476Y-73255238D01*
X206795714Y-73160000D01*
X206938572Y-73112381D01*
X207033810Y-73112381D01*
X207176667Y-73160000D01*
X207224286Y-73207619D01*
X207652857Y-74112381D02*
X207652857Y-73112381D01*
X207890952Y-73112381D01*
X208033810Y-73160000D01*
X208129048Y-73255238D01*
X208176667Y-73350476D01*
X208224286Y-73540952D01*
X208224286Y-73683810D01*
X208176667Y-73874286D01*
X208129048Y-73969524D01*
X208033810Y-74064762D01*
X207890952Y-74112381D01*
X207652857Y-74112381D01*
X191920953Y-107922381D02*
X191444762Y-107922381D01*
X191444762Y-106922381D01*
X192254286Y-107398571D02*
X192587620Y-107398571D01*
X192730477Y-107922381D02*
X192254286Y-107922381D01*
X192254286Y-106922381D01*
X192730477Y-106922381D01*
X193159048Y-107922381D02*
X193159048Y-106922381D01*
X193397143Y-106922381D01*
X193540001Y-106970000D01*
X193635239Y-107065238D01*
X193682858Y-107160476D01*
X193730477Y-107350952D01*
X193730477Y-107493810D01*
X193682858Y-107684286D01*
X193635239Y-107779524D01*
X193540001Y-107874762D01*
X193397143Y-107922381D01*
X193159048Y-107922381D01*
X194682858Y-107922381D02*
X194111429Y-107922381D01*
X194397143Y-107922381D02*
X194397143Y-106922381D01*
X194301905Y-107065238D01*
X194206667Y-107160476D01*
X194111429Y-107208095D01*
X145232381Y-93829047D02*
X145232381Y-94305238D01*
X144232381Y-94305238D01*
X144708571Y-93495714D02*
X144708571Y-93162380D01*
X145232381Y-93019523D02*
X145232381Y-93495714D01*
X144232381Y-93495714D01*
X144232381Y-93019523D01*
X145232381Y-92590952D02*
X144232381Y-92590952D01*
X144232381Y-92352857D01*
X144280000Y-92209999D01*
X144375238Y-92114761D01*
X144470476Y-92067142D01*
X144660952Y-92019523D01*
X144803810Y-92019523D01*
X144994286Y-92067142D01*
X145089524Y-92114761D01*
X145184762Y-92209999D01*
X145232381Y-92352857D01*
X145232381Y-92590952D01*
X144565714Y-91162380D02*
X145232381Y-91162380D01*
X144184762Y-91400476D02*
X144899048Y-91638571D01*
X144899048Y-91019523D01*
X194917381Y-70334047D02*
X194917381Y-70810238D01*
X193917381Y-70810238D01*
X194393571Y-70000714D02*
X194393571Y-69667380D01*
X194917381Y-69524523D02*
X194917381Y-70000714D01*
X193917381Y-70000714D01*
X193917381Y-69524523D01*
X194917381Y-69095952D02*
X193917381Y-69095952D01*
X193917381Y-68857857D01*
X193965000Y-68714999D01*
X194060238Y-68619761D01*
X194155476Y-68572142D01*
X194345952Y-68524523D01*
X194488810Y-68524523D01*
X194679286Y-68572142D01*
X194774524Y-68619761D01*
X194869762Y-68714999D01*
X194917381Y-68857857D01*
X194917381Y-69095952D01*
X193917381Y-67619761D02*
X193917381Y-68095952D01*
X194393571Y-68143571D01*
X194345952Y-68095952D01*
X194298333Y-68000714D01*
X194298333Y-67762618D01*
X194345952Y-67667380D01*
X194393571Y-67619761D01*
X194488810Y-67572142D01*
X194726905Y-67572142D01*
X194822143Y-67619761D01*
X194869762Y-67667380D01*
X194917381Y-67762618D01*
X194917381Y-68000714D01*
X194869762Y-68095952D01*
X194822143Y-68143571D01*
X183015238Y-138247381D02*
X182539047Y-138247381D01*
X182539047Y-137247381D01*
X183348571Y-137723571D02*
X183681905Y-137723571D01*
X183824762Y-138247381D02*
X183348571Y-138247381D01*
X183348571Y-137247381D01*
X183824762Y-137247381D01*
X184253333Y-138247381D02*
X184253333Y-137247381D01*
X184491428Y-137247381D01*
X184634286Y-137295000D01*
X184729524Y-137390238D01*
X184777143Y-137485476D01*
X184824762Y-137675952D01*
X184824762Y-137818810D01*
X184777143Y-138009286D01*
X184729524Y-138104524D01*
X184634286Y-138199762D01*
X184491428Y-138247381D01*
X184253333Y-138247381D01*
X185015238Y-138342619D02*
X185777143Y-138342619D01*
X185872381Y-137247381D02*
X186443810Y-137247381D01*
X186158095Y-138247381D02*
X186158095Y-137247381D01*
X186777143Y-138247381D02*
X186777143Y-137247381D01*
X186777143Y-137723571D02*
X187348572Y-137723571D01*
X187348572Y-138247381D02*
X187348572Y-137247381D01*
X188348572Y-138247381D02*
X187777143Y-138247381D01*
X188062857Y-138247381D02*
X188062857Y-137247381D01*
X187967619Y-137390238D01*
X187872381Y-137485476D01*
X187777143Y-137533095D01*
X182198095Y-143162381D02*
X182198095Y-142162381D01*
X182769524Y-143162381D02*
X182340952Y-142590952D01*
X182769524Y-142162381D02*
X182198095Y-142733810D01*
X183015238Y-131897381D02*
X182539047Y-131897381D01*
X182539047Y-130897381D01*
X183348571Y-131373571D02*
X183681905Y-131373571D01*
X183824762Y-131897381D02*
X183348571Y-131897381D01*
X183348571Y-130897381D01*
X183824762Y-130897381D01*
X184253333Y-131897381D02*
X184253333Y-130897381D01*
X184491428Y-130897381D01*
X184634286Y-130945000D01*
X184729524Y-131040238D01*
X184777143Y-131135476D01*
X184824762Y-131325952D01*
X184824762Y-131468810D01*
X184777143Y-131659286D01*
X184729524Y-131754524D01*
X184634286Y-131849762D01*
X184491428Y-131897381D01*
X184253333Y-131897381D01*
X185015238Y-131992619D02*
X185777143Y-131992619D01*
X185872381Y-130897381D02*
X186443810Y-130897381D01*
X186158095Y-131897381D02*
X186158095Y-130897381D01*
X186777143Y-131897381D02*
X186777143Y-130897381D01*
X186777143Y-131373571D02*
X187348572Y-131373571D01*
X187348572Y-131897381D02*
X187348572Y-130897381D01*
X187777143Y-130992619D02*
X187824762Y-130945000D01*
X187920000Y-130897381D01*
X188158096Y-130897381D01*
X188253334Y-130945000D01*
X188300953Y-130992619D01*
X188348572Y-131087857D01*
X188348572Y-131183095D01*
X188300953Y-131325952D01*
X187729524Y-131897381D01*
X188348572Y-131897381D01*
X182198095Y-136812381D02*
X182198095Y-135812381D01*
X182769524Y-136812381D02*
X182340952Y-136240952D01*
X182769524Y-135812381D02*
X182198095Y-136383810D01*
X183015238Y-125547381D02*
X182539047Y-125547381D01*
X182539047Y-124547381D01*
X183348571Y-125023571D02*
X183681905Y-125023571D01*
X183824762Y-125547381D02*
X183348571Y-125547381D01*
X183348571Y-124547381D01*
X183824762Y-124547381D01*
X184253333Y-125547381D02*
X184253333Y-124547381D01*
X184491428Y-124547381D01*
X184634286Y-124595000D01*
X184729524Y-124690238D01*
X184777143Y-124785476D01*
X184824762Y-124975952D01*
X184824762Y-125118810D01*
X184777143Y-125309286D01*
X184729524Y-125404524D01*
X184634286Y-125499762D01*
X184491428Y-125547381D01*
X184253333Y-125547381D01*
X185015238Y-125642619D02*
X185777143Y-125642619D01*
X185872381Y-124547381D02*
X186443810Y-124547381D01*
X186158095Y-125547381D02*
X186158095Y-124547381D01*
X186777143Y-125547381D02*
X186777143Y-124547381D01*
X186777143Y-125023571D02*
X187348572Y-125023571D01*
X187348572Y-125547381D02*
X187348572Y-124547381D01*
X187729524Y-124547381D02*
X188348572Y-124547381D01*
X188015238Y-124928333D01*
X188158096Y-124928333D01*
X188253334Y-124975952D01*
X188300953Y-125023571D01*
X188348572Y-125118810D01*
X188348572Y-125356905D01*
X188300953Y-125452143D01*
X188253334Y-125499762D01*
X188158096Y-125547381D01*
X187872381Y-125547381D01*
X187777143Y-125499762D01*
X187729524Y-125452143D01*
X182198095Y-130462381D02*
X182198095Y-129462381D01*
X182769524Y-130462381D02*
X182340952Y-129890952D01*
X182769524Y-129462381D02*
X182198095Y-130033810D01*
X183015238Y-119197381D02*
X182539047Y-119197381D01*
X182539047Y-118197381D01*
X183348571Y-118673571D02*
X183681905Y-118673571D01*
X183824762Y-119197381D02*
X183348571Y-119197381D01*
X183348571Y-118197381D01*
X183824762Y-118197381D01*
X184253333Y-119197381D02*
X184253333Y-118197381D01*
X184491428Y-118197381D01*
X184634286Y-118245000D01*
X184729524Y-118340238D01*
X184777143Y-118435476D01*
X184824762Y-118625952D01*
X184824762Y-118768810D01*
X184777143Y-118959286D01*
X184729524Y-119054524D01*
X184634286Y-119149762D01*
X184491428Y-119197381D01*
X184253333Y-119197381D01*
X185015238Y-119292619D02*
X185777143Y-119292619D01*
X185872381Y-118197381D02*
X186443810Y-118197381D01*
X186158095Y-119197381D02*
X186158095Y-118197381D01*
X186777143Y-119197381D02*
X186777143Y-118197381D01*
X186777143Y-118673571D02*
X187348572Y-118673571D01*
X187348572Y-119197381D02*
X187348572Y-118197381D01*
X188253334Y-118530714D02*
X188253334Y-119197381D01*
X188015238Y-118149762D02*
X187777143Y-118864048D01*
X188396191Y-118864048D01*
X182198095Y-124112381D02*
X182198095Y-123112381D01*
X182769524Y-124112381D02*
X182340952Y-123540952D01*
X182769524Y-123112381D02*
X182198095Y-123683810D01*
X142692381Y-112926429D02*
X141692381Y-112926429D01*
X141692381Y-112545476D01*
X141740000Y-112450238D01*
X141787619Y-112402619D01*
X141882857Y-112355000D01*
X142025714Y-112355000D01*
X142120952Y-112402619D01*
X142168571Y-112450238D01*
X142216190Y-112545476D01*
X142216190Y-112926429D01*
X142597143Y-111355000D02*
X142644762Y-111402619D01*
X142692381Y-111545476D01*
X142692381Y-111640714D01*
X142644762Y-111783572D01*
X142549524Y-111878810D01*
X142454286Y-111926429D01*
X142263810Y-111974048D01*
X142120952Y-111974048D01*
X141930476Y-111926429D01*
X141835238Y-111878810D01*
X141740000Y-111783572D01*
X141692381Y-111640714D01*
X141692381Y-111545476D01*
X141740000Y-111402619D01*
X141787619Y-111355000D01*
X142168571Y-110593095D02*
X142168571Y-110926429D01*
X142692381Y-110926429D02*
X141692381Y-110926429D01*
X141692381Y-110450238D01*
X142406667Y-110116905D02*
X142406667Y-109640714D01*
X142692381Y-110212143D02*
X141692381Y-109878810D01*
X142692381Y-109545476D01*
X142168571Y-109212143D02*
X142168571Y-108878809D01*
X142692381Y-108735952D02*
X142692381Y-109212143D01*
X141692381Y-109212143D01*
X141692381Y-108735952D01*
X142692381Y-108307381D02*
X141692381Y-108307381D01*
X142692381Y-107735952D01*
X141692381Y-107735952D01*
X142692381Y-106735952D02*
X142692381Y-107307381D01*
X142692381Y-107021667D02*
X141692381Y-107021667D01*
X141835238Y-107116905D01*
X141930476Y-107212143D01*
X141978095Y-107307381D01*
X153003571Y-131262381D02*
X153003571Y-130262381D01*
X153384524Y-130262381D01*
X153479762Y-130310000D01*
X153527381Y-130357619D01*
X153575000Y-130452857D01*
X153575000Y-130595714D01*
X153527381Y-130690952D01*
X153479762Y-130738571D01*
X153384524Y-130786190D01*
X153003571Y-130786190D01*
X154194047Y-130262381D02*
X154384524Y-130262381D01*
X154479762Y-130310000D01*
X154575000Y-130405238D01*
X154622619Y-130595714D01*
X154622619Y-130929048D01*
X154575000Y-131119524D01*
X154479762Y-131214762D01*
X154384524Y-131262381D01*
X154194047Y-131262381D01*
X154098809Y-131214762D01*
X154003571Y-131119524D01*
X153955952Y-130929048D01*
X153955952Y-130595714D01*
X154003571Y-130405238D01*
X154098809Y-130310000D01*
X154194047Y-130262381D01*
X154908333Y-130262381D02*
X155479762Y-130262381D01*
X155194047Y-131262381D02*
X155194047Y-130262381D01*
X155813095Y-130738571D02*
X156146429Y-130738571D01*
X156289286Y-131262381D02*
X155813095Y-131262381D01*
X155813095Y-130262381D01*
X156289286Y-130262381D01*
X156622619Y-130262381D02*
X157289286Y-131262381D01*
X157289286Y-130262381D02*
X156622619Y-131262381D01*
X158194048Y-131262381D02*
X157622619Y-131262381D01*
X157908333Y-131262381D02*
X157908333Y-130262381D01*
X157813095Y-130405238D01*
X157717857Y-130500476D01*
X157622619Y-130548095D01*
X163798571Y-131262381D02*
X163798571Y-130262381D01*
X164179524Y-130262381D01*
X164274762Y-130310000D01*
X164322381Y-130357619D01*
X164370000Y-130452857D01*
X164370000Y-130595714D01*
X164322381Y-130690952D01*
X164274762Y-130738571D01*
X164179524Y-130786190D01*
X163798571Y-130786190D01*
X164989047Y-130262381D02*
X165179524Y-130262381D01*
X165274762Y-130310000D01*
X165370000Y-130405238D01*
X165417619Y-130595714D01*
X165417619Y-130929048D01*
X165370000Y-131119524D01*
X165274762Y-131214762D01*
X165179524Y-131262381D01*
X164989047Y-131262381D01*
X164893809Y-131214762D01*
X164798571Y-131119524D01*
X164750952Y-130929048D01*
X164750952Y-130595714D01*
X164798571Y-130405238D01*
X164893809Y-130310000D01*
X164989047Y-130262381D01*
X165703333Y-130262381D02*
X166274762Y-130262381D01*
X165989047Y-131262381D02*
X165989047Y-130262381D01*
X166608095Y-130738571D02*
X166941429Y-130738571D01*
X167084286Y-131262381D02*
X166608095Y-131262381D01*
X166608095Y-130262381D01*
X167084286Y-130262381D01*
X167417619Y-130262381D02*
X168084286Y-131262381D01*
X168084286Y-130262381D02*
X167417619Y-131262381D01*
X168417619Y-130357619D02*
X168465238Y-130310000D01*
X168560476Y-130262381D01*
X168798572Y-130262381D01*
X168893810Y-130310000D01*
X168941429Y-130357619D01*
X168989048Y-130452857D01*
X168989048Y-130548095D01*
X168941429Y-130690952D01*
X168370000Y-131262381D01*
X168989048Y-131262381D01*
X174593571Y-131262381D02*
X174593571Y-130262381D01*
X174974524Y-130262381D01*
X175069762Y-130310000D01*
X175117381Y-130357619D01*
X175165000Y-130452857D01*
X175165000Y-130595714D01*
X175117381Y-130690952D01*
X175069762Y-130738571D01*
X174974524Y-130786190D01*
X174593571Y-130786190D01*
X175784047Y-130262381D02*
X175974524Y-130262381D01*
X176069762Y-130310000D01*
X176165000Y-130405238D01*
X176212619Y-130595714D01*
X176212619Y-130929048D01*
X176165000Y-131119524D01*
X176069762Y-131214762D01*
X175974524Y-131262381D01*
X175784047Y-131262381D01*
X175688809Y-131214762D01*
X175593571Y-131119524D01*
X175545952Y-130929048D01*
X175545952Y-130595714D01*
X175593571Y-130405238D01*
X175688809Y-130310000D01*
X175784047Y-130262381D01*
X176498333Y-130262381D02*
X177069762Y-130262381D01*
X176784047Y-131262381D02*
X176784047Y-130262381D01*
X177403095Y-130738571D02*
X177736429Y-130738571D01*
X177879286Y-131262381D02*
X177403095Y-131262381D01*
X177403095Y-130262381D01*
X177879286Y-130262381D01*
X178212619Y-130262381D02*
X178879286Y-131262381D01*
X178879286Y-130262381D02*
X178212619Y-131262381D01*
X179165000Y-130262381D02*
X179784048Y-130262381D01*
X179450714Y-130643333D01*
X179593572Y-130643333D01*
X179688810Y-130690952D01*
X179736429Y-130738571D01*
X179784048Y-130833810D01*
X179784048Y-131071905D01*
X179736429Y-131167143D01*
X179688810Y-131214762D01*
X179593572Y-131262381D01*
X179307857Y-131262381D01*
X179212619Y-131214762D01*
X179165000Y-131167143D01*
X167457381Y-116665000D02*
X166457381Y-116665000D01*
X166457381Y-116284047D01*
X166505000Y-116188809D01*
X166552619Y-116141190D01*
X166647857Y-116093571D01*
X166790714Y-116093571D01*
X166885952Y-116141190D01*
X166933571Y-116188809D01*
X166981190Y-116284047D01*
X166981190Y-116665000D01*
X166457381Y-115474524D02*
X166457381Y-115284047D01*
X166505000Y-115188809D01*
X166600238Y-115093571D01*
X166790714Y-115045952D01*
X167124048Y-115045952D01*
X167314524Y-115093571D01*
X167409762Y-115188809D01*
X167457381Y-115284047D01*
X167457381Y-115474524D01*
X167409762Y-115569762D01*
X167314524Y-115665000D01*
X167124048Y-115712619D01*
X166790714Y-115712619D01*
X166600238Y-115665000D01*
X166505000Y-115569762D01*
X166457381Y-115474524D01*
X166457381Y-114760238D02*
X166457381Y-114188809D01*
X167457381Y-114474524D02*
X166457381Y-114474524D01*
X167552619Y-114093571D02*
X167552619Y-113331666D01*
X166933571Y-113093571D02*
X166933571Y-112760237D01*
X167457381Y-112617380D02*
X167457381Y-113093571D01*
X166457381Y-113093571D01*
X166457381Y-112617380D01*
X167457381Y-112188809D02*
X166457381Y-112188809D01*
X167457381Y-111617380D01*
X166457381Y-111617380D01*
X166552619Y-111188809D02*
X166505000Y-111141190D01*
X166457381Y-111045952D01*
X166457381Y-110807856D01*
X166505000Y-110712618D01*
X166552619Y-110664999D01*
X166647857Y-110617380D01*
X166743095Y-110617380D01*
X166885952Y-110664999D01*
X167457381Y-111236428D01*
X167457381Y-110617380D01*
X178252381Y-116665000D02*
X177252381Y-116665000D01*
X177252381Y-116284047D01*
X177300000Y-116188809D01*
X177347619Y-116141190D01*
X177442857Y-116093571D01*
X177585714Y-116093571D01*
X177680952Y-116141190D01*
X177728571Y-116188809D01*
X177776190Y-116284047D01*
X177776190Y-116665000D01*
X177252381Y-115474524D02*
X177252381Y-115284047D01*
X177300000Y-115188809D01*
X177395238Y-115093571D01*
X177585714Y-115045952D01*
X177919048Y-115045952D01*
X178109524Y-115093571D01*
X178204762Y-115188809D01*
X178252381Y-115284047D01*
X178252381Y-115474524D01*
X178204762Y-115569762D01*
X178109524Y-115665000D01*
X177919048Y-115712619D01*
X177585714Y-115712619D01*
X177395238Y-115665000D01*
X177300000Y-115569762D01*
X177252381Y-115474524D01*
X177252381Y-114760238D02*
X177252381Y-114188809D01*
X178252381Y-114474524D02*
X177252381Y-114474524D01*
X178347619Y-114093571D02*
X178347619Y-113331666D01*
X177728571Y-113093571D02*
X177728571Y-112760237D01*
X178252381Y-112617380D02*
X178252381Y-113093571D01*
X177252381Y-113093571D01*
X177252381Y-112617380D01*
X178252381Y-112188809D02*
X177252381Y-112188809D01*
X178252381Y-111617380D01*
X177252381Y-111617380D01*
X177252381Y-111236428D02*
X177252381Y-110617380D01*
X177633333Y-110950714D01*
X177633333Y-110807856D01*
X177680952Y-110712618D01*
X177728571Y-110664999D01*
X177823810Y-110617380D01*
X178061905Y-110617380D01*
X178157143Y-110664999D01*
X178204762Y-110712618D01*
X178252381Y-110807856D01*
X178252381Y-111093571D01*
X178204762Y-111188809D01*
X178157143Y-111236428D01*
X199223334Y-107572381D02*
X198890000Y-107096190D01*
X198651905Y-107572381D02*
X198651905Y-106572381D01*
X199032858Y-106572381D01*
X199128096Y-106620000D01*
X199175715Y-106667619D01*
X199223334Y-106762857D01*
X199223334Y-106905714D01*
X199175715Y-107000952D01*
X199128096Y-107048571D01*
X199032858Y-107096190D01*
X198651905Y-107096190D01*
X200080477Y-106905714D02*
X200080477Y-107572381D01*
X199842381Y-106524762D02*
X199604286Y-107239048D01*
X200223334Y-107239048D01*
X119848334Y-105862381D02*
X119515000Y-105386190D01*
X119276905Y-105862381D02*
X119276905Y-104862381D01*
X119657858Y-104862381D01*
X119753096Y-104910000D01*
X119800715Y-104957619D01*
X119848334Y-105052857D01*
X119848334Y-105195714D01*
X119800715Y-105290952D01*
X119753096Y-105338571D01*
X119657858Y-105386190D01*
X119276905Y-105386190D01*
X120324524Y-105862381D02*
X120515000Y-105862381D01*
X120610239Y-105814762D01*
X120657858Y-105767143D01*
X120753096Y-105624286D01*
X120800715Y-105433810D01*
X120800715Y-105052857D01*
X120753096Y-104957619D01*
X120705477Y-104910000D01*
X120610239Y-104862381D01*
X120419762Y-104862381D01*
X120324524Y-104910000D01*
X120276905Y-104957619D01*
X120229286Y-105052857D01*
X120229286Y-105290952D01*
X120276905Y-105386190D01*
X120324524Y-105433810D01*
X120419762Y-105481429D01*
X120610239Y-105481429D01*
X120705477Y-105433810D01*
X120753096Y-105386190D01*
X120800715Y-105290952D01*
X119372143Y-114947381D02*
X119038809Y-114471190D01*
X118800714Y-114947381D02*
X118800714Y-113947381D01*
X119181667Y-113947381D01*
X119276905Y-113995000D01*
X119324524Y-114042619D01*
X119372143Y-114137857D01*
X119372143Y-114280714D01*
X119324524Y-114375952D01*
X119276905Y-114423571D01*
X119181667Y-114471190D01*
X118800714Y-114471190D01*
X120324524Y-114947381D02*
X119753095Y-114947381D01*
X120038809Y-114947381D02*
X120038809Y-113947381D01*
X119943571Y-114090238D01*
X119848333Y-114185476D01*
X119753095Y-114233095D01*
X120943571Y-113947381D02*
X121038810Y-113947381D01*
X121134048Y-113995000D01*
X121181667Y-114042619D01*
X121229286Y-114137857D01*
X121276905Y-114328333D01*
X121276905Y-114566429D01*
X121229286Y-114756905D01*
X121181667Y-114852143D01*
X121134048Y-114899762D01*
X121038810Y-114947381D01*
X120943571Y-114947381D01*
X120848333Y-114899762D01*
X120800714Y-114852143D01*
X120753095Y-114756905D01*
X120705476Y-114566429D01*
X120705476Y-114328333D01*
X120753095Y-114137857D01*
X120800714Y-114042619D01*
X120848333Y-113995000D01*
X120943571Y-113947381D01*
X135882143Y-105667381D02*
X135548809Y-105191190D01*
X135310714Y-105667381D02*
X135310714Y-104667381D01*
X135691667Y-104667381D01*
X135786905Y-104715000D01*
X135834524Y-104762619D01*
X135882143Y-104857857D01*
X135882143Y-105000714D01*
X135834524Y-105095952D01*
X135786905Y-105143571D01*
X135691667Y-105191190D01*
X135310714Y-105191190D01*
X136834524Y-105667381D02*
X136263095Y-105667381D01*
X136548809Y-105667381D02*
X136548809Y-104667381D01*
X136453571Y-104810238D01*
X136358333Y-104905476D01*
X136263095Y-104953095D01*
X137786905Y-105667381D02*
X137215476Y-105667381D01*
X137501190Y-105667381D02*
X137501190Y-104667381D01*
X137405952Y-104810238D01*
X137310714Y-104905476D01*
X137215476Y-104953095D01*
X141597143Y-102687381D02*
X141263809Y-102211190D01*
X141025714Y-102687381D02*
X141025714Y-101687381D01*
X141406667Y-101687381D01*
X141501905Y-101735000D01*
X141549524Y-101782619D01*
X141597143Y-101877857D01*
X141597143Y-102020714D01*
X141549524Y-102115952D01*
X141501905Y-102163571D01*
X141406667Y-102211190D01*
X141025714Y-102211190D01*
X142549524Y-102687381D02*
X141978095Y-102687381D01*
X142263809Y-102687381D02*
X142263809Y-101687381D01*
X142168571Y-101830238D01*
X142073333Y-101925476D01*
X141978095Y-101973095D01*
X143406667Y-101687381D02*
X143216190Y-101687381D01*
X143120952Y-101735000D01*
X143073333Y-101782619D01*
X142978095Y-101925476D01*
X142930476Y-102115952D01*
X142930476Y-102496905D01*
X142978095Y-102592143D01*
X143025714Y-102639762D01*
X143120952Y-102687381D01*
X143311429Y-102687381D01*
X143406667Y-102639762D01*
X143454286Y-102592143D01*
X143501905Y-102496905D01*
X143501905Y-102258810D01*
X143454286Y-102163571D01*
X143406667Y-102115952D01*
X143311429Y-102068333D01*
X143120952Y-102068333D01*
X143025714Y-102115952D01*
X142978095Y-102163571D01*
X142930476Y-102258810D01*
X135882143Y-114752381D02*
X135548809Y-114276190D01*
X135310714Y-114752381D02*
X135310714Y-113752381D01*
X135691667Y-113752381D01*
X135786905Y-113800000D01*
X135834524Y-113847619D01*
X135882143Y-113942857D01*
X135882143Y-114085714D01*
X135834524Y-114180952D01*
X135786905Y-114228571D01*
X135691667Y-114276190D01*
X135310714Y-114276190D01*
X136834524Y-114752381D02*
X136263095Y-114752381D01*
X136548809Y-114752381D02*
X136548809Y-113752381D01*
X136453571Y-113895238D01*
X136358333Y-113990476D01*
X136263095Y-114038095D01*
X137405952Y-114180952D02*
X137310714Y-114133333D01*
X137263095Y-114085714D01*
X137215476Y-113990476D01*
X137215476Y-113942857D01*
X137263095Y-113847619D01*
X137310714Y-113800000D01*
X137405952Y-113752381D01*
X137596429Y-113752381D01*
X137691667Y-113800000D01*
X137739286Y-113847619D01*
X137786905Y-113942857D01*
X137786905Y-113990476D01*
X137739286Y-114085714D01*
X137691667Y-114133333D01*
X137596429Y-114180952D01*
X137405952Y-114180952D01*
X137310714Y-114228571D01*
X137263095Y-114276190D01*
X137215476Y-114371429D01*
X137215476Y-114561905D01*
X137263095Y-114657143D01*
X137310714Y-114704762D01*
X137405952Y-114752381D01*
X137596429Y-114752381D01*
X137691667Y-114704762D01*
X137739286Y-114657143D01*
X137786905Y-114561905D01*
X137786905Y-114371429D01*
X137739286Y-114276190D01*
X137691667Y-114228571D01*
X137596429Y-114180952D01*
X141597143Y-97607381D02*
X141263809Y-97131190D01*
X141025714Y-97607381D02*
X141025714Y-96607381D01*
X141406667Y-96607381D01*
X141501905Y-96655000D01*
X141549524Y-96702619D01*
X141597143Y-96797857D01*
X141597143Y-96940714D01*
X141549524Y-97035952D01*
X141501905Y-97083571D01*
X141406667Y-97131190D01*
X141025714Y-97131190D01*
X142549524Y-97607381D02*
X141978095Y-97607381D01*
X142263809Y-97607381D02*
X142263809Y-96607381D01*
X142168571Y-96750238D01*
X142073333Y-96845476D01*
X141978095Y-96893095D01*
X143025714Y-97607381D02*
X143216190Y-97607381D01*
X143311429Y-97559762D01*
X143359048Y-97512143D01*
X143454286Y-97369286D01*
X143501905Y-97178810D01*
X143501905Y-96797857D01*
X143454286Y-96702619D01*
X143406667Y-96655000D01*
X143311429Y-96607381D01*
X143120952Y-96607381D01*
X143025714Y-96655000D01*
X142978095Y-96702619D01*
X142930476Y-96797857D01*
X142930476Y-97035952D01*
X142978095Y-97131190D01*
X143025714Y-97178810D01*
X143120952Y-97226429D01*
X143311429Y-97226429D01*
X143406667Y-97178810D01*
X143454286Y-97131190D01*
X143501905Y-97035952D01*
X141597143Y-100147381D02*
X141263809Y-99671190D01*
X141025714Y-100147381D02*
X141025714Y-99147381D01*
X141406667Y-99147381D01*
X141501905Y-99195000D01*
X141549524Y-99242619D01*
X141597143Y-99337857D01*
X141597143Y-99480714D01*
X141549524Y-99575952D01*
X141501905Y-99623571D01*
X141406667Y-99671190D01*
X141025714Y-99671190D01*
X141978095Y-99242619D02*
X142025714Y-99195000D01*
X142120952Y-99147381D01*
X142359048Y-99147381D01*
X142454286Y-99195000D01*
X142501905Y-99242619D01*
X142549524Y-99337857D01*
X142549524Y-99433095D01*
X142501905Y-99575952D01*
X141930476Y-100147381D01*
X142549524Y-100147381D01*
X143168571Y-99147381D02*
X143263810Y-99147381D01*
X143359048Y-99195000D01*
X143406667Y-99242619D01*
X143454286Y-99337857D01*
X143501905Y-99528333D01*
X143501905Y-99766429D01*
X143454286Y-99956905D01*
X143406667Y-100052143D01*
X143359048Y-100099762D01*
X143263810Y-100147381D01*
X143168571Y-100147381D01*
X143073333Y-100099762D01*
X143025714Y-100052143D01*
X142978095Y-99956905D01*
X142930476Y-99766429D01*
X142930476Y-99528333D01*
X142978095Y-99337857D01*
X143025714Y-99242619D01*
X143073333Y-99195000D01*
X143168571Y-99147381D01*
X141597143Y-95067381D02*
X141263809Y-94591190D01*
X141025714Y-95067381D02*
X141025714Y-94067381D01*
X141406667Y-94067381D01*
X141501905Y-94115000D01*
X141549524Y-94162619D01*
X141597143Y-94257857D01*
X141597143Y-94400714D01*
X141549524Y-94495952D01*
X141501905Y-94543571D01*
X141406667Y-94591190D01*
X141025714Y-94591190D01*
X141978095Y-94162619D02*
X142025714Y-94115000D01*
X142120952Y-94067381D01*
X142359048Y-94067381D01*
X142454286Y-94115000D01*
X142501905Y-94162619D01*
X142549524Y-94257857D01*
X142549524Y-94353095D01*
X142501905Y-94495952D01*
X141930476Y-95067381D01*
X142549524Y-95067381D01*
X142882857Y-94067381D02*
X143501905Y-94067381D01*
X143168571Y-94448333D01*
X143311429Y-94448333D01*
X143406667Y-94495952D01*
X143454286Y-94543571D01*
X143501905Y-94638810D01*
X143501905Y-94876905D01*
X143454286Y-94972143D01*
X143406667Y-95019762D01*
X143311429Y-95067381D01*
X143025714Y-95067381D01*
X142930476Y-95019762D01*
X142882857Y-94972143D01*
X151582381Y-93352857D02*
X151106190Y-93686191D01*
X151582381Y-93924286D02*
X150582381Y-93924286D01*
X150582381Y-93543333D01*
X150630000Y-93448095D01*
X150677619Y-93400476D01*
X150772857Y-93352857D01*
X150915714Y-93352857D01*
X151010952Y-93400476D01*
X151058571Y-93448095D01*
X151106190Y-93543333D01*
X151106190Y-93924286D01*
X150582381Y-93019524D02*
X150582381Y-92400476D01*
X150963333Y-92733810D01*
X150963333Y-92590952D01*
X151010952Y-92495714D01*
X151058571Y-92448095D01*
X151153810Y-92400476D01*
X151391905Y-92400476D01*
X151487143Y-92448095D01*
X151534762Y-92495714D01*
X151582381Y-92590952D01*
X151582381Y-92876667D01*
X151534762Y-92971905D01*
X151487143Y-93019524D01*
X150582381Y-91781429D02*
X150582381Y-91686190D01*
X150630000Y-91590952D01*
X150677619Y-91543333D01*
X150772857Y-91495714D01*
X150963333Y-91448095D01*
X151201429Y-91448095D01*
X151391905Y-91495714D01*
X151487143Y-91543333D01*
X151534762Y-91590952D01*
X151582381Y-91686190D01*
X151582381Y-91781429D01*
X151534762Y-91876667D01*
X151487143Y-91924286D01*
X151391905Y-91971905D01*
X151201429Y-92019524D01*
X150963333Y-92019524D01*
X150772857Y-91971905D01*
X150677619Y-91924286D01*
X150630000Y-91876667D01*
X150582381Y-91781429D01*
X170172143Y-83637381D02*
X169838809Y-83161190D01*
X169600714Y-83637381D02*
X169600714Y-82637381D01*
X169981667Y-82637381D01*
X170076905Y-82685000D01*
X170124524Y-82732619D01*
X170172143Y-82827857D01*
X170172143Y-82970714D01*
X170124524Y-83065952D01*
X170076905Y-83113571D01*
X169981667Y-83161190D01*
X169600714Y-83161190D01*
X170505476Y-82637381D02*
X171124524Y-82637381D01*
X170791190Y-83018333D01*
X170934048Y-83018333D01*
X171029286Y-83065952D01*
X171076905Y-83113571D01*
X171124524Y-83208810D01*
X171124524Y-83446905D01*
X171076905Y-83542143D01*
X171029286Y-83589762D01*
X170934048Y-83637381D01*
X170648333Y-83637381D01*
X170553095Y-83589762D01*
X170505476Y-83542143D01*
X171457857Y-82637381D02*
X172076905Y-82637381D01*
X171743571Y-83018333D01*
X171886429Y-83018333D01*
X171981667Y-83065952D01*
X172029286Y-83113571D01*
X172076905Y-83208810D01*
X172076905Y-83446905D01*
X172029286Y-83542143D01*
X171981667Y-83589762D01*
X171886429Y-83637381D01*
X171600714Y-83637381D01*
X171505476Y-83589762D01*
X171457857Y-83542143D01*
X164457143Y-83637381D02*
X164123809Y-83161190D01*
X163885714Y-83637381D02*
X163885714Y-82637381D01*
X164266667Y-82637381D01*
X164361905Y-82685000D01*
X164409524Y-82732619D01*
X164457143Y-82827857D01*
X164457143Y-82970714D01*
X164409524Y-83065952D01*
X164361905Y-83113571D01*
X164266667Y-83161190D01*
X163885714Y-83161190D01*
X164790476Y-82637381D02*
X165409524Y-82637381D01*
X165076190Y-83018333D01*
X165219048Y-83018333D01*
X165314286Y-83065952D01*
X165361905Y-83113571D01*
X165409524Y-83208810D01*
X165409524Y-83446905D01*
X165361905Y-83542143D01*
X165314286Y-83589762D01*
X165219048Y-83637381D01*
X164933333Y-83637381D01*
X164838095Y-83589762D01*
X164790476Y-83542143D01*
X166266667Y-82970714D02*
X166266667Y-83637381D01*
X166028571Y-82589762D02*
X165790476Y-83304048D01*
X166409524Y-83304048D01*
X164457143Y-102687381D02*
X164123809Y-102211190D01*
X163885714Y-102687381D02*
X163885714Y-101687381D01*
X164266667Y-101687381D01*
X164361905Y-101735000D01*
X164409524Y-101782619D01*
X164457143Y-101877857D01*
X164457143Y-102020714D01*
X164409524Y-102115952D01*
X164361905Y-102163571D01*
X164266667Y-102211190D01*
X163885714Y-102211190D01*
X164790476Y-101687381D02*
X165409524Y-101687381D01*
X165076190Y-102068333D01*
X165219048Y-102068333D01*
X165314286Y-102115952D01*
X165361905Y-102163571D01*
X165409524Y-102258810D01*
X165409524Y-102496905D01*
X165361905Y-102592143D01*
X165314286Y-102639762D01*
X165219048Y-102687381D01*
X164933333Y-102687381D01*
X164838095Y-102639762D01*
X164790476Y-102592143D01*
X166314286Y-101687381D02*
X165838095Y-101687381D01*
X165790476Y-102163571D01*
X165838095Y-102115952D01*
X165933333Y-102068333D01*
X166171429Y-102068333D01*
X166266667Y-102115952D01*
X166314286Y-102163571D01*
X166361905Y-102258810D01*
X166361905Y-102496905D01*
X166314286Y-102592143D01*
X166266667Y-102639762D01*
X166171429Y-102687381D01*
X165933333Y-102687381D01*
X165838095Y-102639762D01*
X165790476Y-102592143D01*
X170172143Y-102687381D02*
X169838809Y-102211190D01*
X169600714Y-102687381D02*
X169600714Y-101687381D01*
X169981667Y-101687381D01*
X170076905Y-101735000D01*
X170124524Y-101782619D01*
X170172143Y-101877857D01*
X170172143Y-102020714D01*
X170124524Y-102115952D01*
X170076905Y-102163571D01*
X169981667Y-102211190D01*
X169600714Y-102211190D01*
X170505476Y-101687381D02*
X171124524Y-101687381D01*
X170791190Y-102068333D01*
X170934048Y-102068333D01*
X171029286Y-102115952D01*
X171076905Y-102163571D01*
X171124524Y-102258810D01*
X171124524Y-102496905D01*
X171076905Y-102592143D01*
X171029286Y-102639762D01*
X170934048Y-102687381D01*
X170648333Y-102687381D01*
X170553095Y-102639762D01*
X170505476Y-102592143D01*
X171981667Y-101687381D02*
X171791190Y-101687381D01*
X171695952Y-101735000D01*
X171648333Y-101782619D01*
X171553095Y-101925476D01*
X171505476Y-102115952D01*
X171505476Y-102496905D01*
X171553095Y-102592143D01*
X171600714Y-102639762D01*
X171695952Y-102687381D01*
X171886429Y-102687381D01*
X171981667Y-102639762D01*
X172029286Y-102592143D01*
X172076905Y-102496905D01*
X172076905Y-102258810D01*
X172029286Y-102163571D01*
X171981667Y-102115952D01*
X171886429Y-102068333D01*
X171695952Y-102068333D01*
X171600714Y-102115952D01*
X171553095Y-102163571D01*
X171505476Y-102258810D01*
X203847381Y-69857857D02*
X203371190Y-70191191D01*
X203847381Y-70429286D02*
X202847381Y-70429286D01*
X202847381Y-70048333D01*
X202895000Y-69953095D01*
X202942619Y-69905476D01*
X203037857Y-69857857D01*
X203180714Y-69857857D01*
X203275952Y-69905476D01*
X203323571Y-69953095D01*
X203371190Y-70048333D01*
X203371190Y-70429286D01*
X202847381Y-69524524D02*
X202847381Y-68905476D01*
X203228333Y-69238810D01*
X203228333Y-69095952D01*
X203275952Y-69000714D01*
X203323571Y-68953095D01*
X203418810Y-68905476D01*
X203656905Y-68905476D01*
X203752143Y-68953095D01*
X203799762Y-69000714D01*
X203847381Y-69095952D01*
X203847381Y-69381667D01*
X203799762Y-69476905D01*
X203752143Y-69524524D01*
X202847381Y-68572143D02*
X202847381Y-67905476D01*
X203847381Y-68334048D01*
X140843095Y-89622381D02*
X140843095Y-90431905D01*
X140890714Y-90527143D01*
X140938333Y-90574762D01*
X141033571Y-90622381D01*
X141224048Y-90622381D01*
X141319286Y-90574762D01*
X141366905Y-90527143D01*
X141414524Y-90431905D01*
X141414524Y-89622381D01*
X142414524Y-90622381D02*
X141843095Y-90622381D01*
X142128809Y-90622381D02*
X142128809Y-89622381D01*
X142033571Y-89765238D01*
X141938333Y-89860476D01*
X141843095Y-89908095D01*
X127508095Y-106132381D02*
X127508095Y-106941905D01*
X127555714Y-107037143D01*
X127603333Y-107084762D01*
X127698571Y-107132381D01*
X127889048Y-107132381D01*
X127984286Y-107084762D01*
X128031905Y-107037143D01*
X128079524Y-106941905D01*
X128079524Y-106132381D01*
X128508095Y-106227619D02*
X128555714Y-106180000D01*
X128650952Y-106132381D01*
X128889048Y-106132381D01*
X128984286Y-106180000D01*
X129031905Y-106227619D01*
X129079524Y-106322857D01*
X129079524Y-106418095D01*
X129031905Y-106560952D01*
X128460476Y-107132381D01*
X129079524Y-107132381D01*
X140422381Y-76961905D02*
X141231905Y-76961905D01*
X141327143Y-76914286D01*
X141374762Y-76866667D01*
X141422381Y-76771429D01*
X141422381Y-76580952D01*
X141374762Y-76485714D01*
X141327143Y-76438095D01*
X141231905Y-76390476D01*
X140422381Y-76390476D01*
X140422381Y-76009524D02*
X140422381Y-75390476D01*
X140803333Y-75723810D01*
X140803333Y-75580952D01*
X140850952Y-75485714D01*
X140898571Y-75438095D01*
X140993810Y-75390476D01*
X141231905Y-75390476D01*
X141327143Y-75438095D01*
X141374762Y-75485714D01*
X141422381Y-75580952D01*
X141422381Y-75866667D01*
X141374762Y-75961905D01*
X141327143Y-76009524D01*
X164948477Y-96864027D02*
X164376057Y-97436447D01*
X164342385Y-97537462D01*
X164342385Y-97604805D01*
X164376057Y-97705820D01*
X164510745Y-97840508D01*
X164611760Y-97874180D01*
X164679103Y-97874180D01*
X164780118Y-97840508D01*
X165352538Y-97268088D01*
X165487225Y-98008866D02*
X165453553Y-97907851D01*
X165453553Y-97840507D01*
X165487225Y-97739492D01*
X165520897Y-97705820D01*
X165621912Y-97672149D01*
X165689255Y-97672149D01*
X165790271Y-97705820D01*
X165924958Y-97840508D01*
X165958630Y-97941523D01*
X165958630Y-98008867D01*
X165924958Y-98109882D01*
X165891286Y-98143553D01*
X165790271Y-98177225D01*
X165722928Y-98177225D01*
X165621913Y-98143553D01*
X165487225Y-98008866D01*
X165386210Y-97975194D01*
X165318867Y-97975194D01*
X165217851Y-98008867D01*
X165083164Y-98143553D01*
X165049492Y-98244569D01*
X165049492Y-98311912D01*
X165083164Y-98412927D01*
X165217851Y-98547615D01*
X165318867Y-98581286D01*
X165386210Y-98581286D01*
X165487225Y-98547615D01*
X165621912Y-98412928D01*
X165655584Y-98311912D01*
X165655584Y-98244569D01*
X165621913Y-98143553D01*
X130262381Y-92304762D02*
X131071905Y-92304762D01*
X131167143Y-92257143D01*
X131214762Y-92209524D01*
X131262381Y-92114286D01*
X131262381Y-91923809D01*
X131214762Y-91828571D01*
X131167143Y-91780952D01*
X131071905Y-91733333D01*
X130262381Y-91733333D01*
X131214762Y-91304762D02*
X131262381Y-91161905D01*
X131262381Y-90923809D01*
X131214762Y-90828571D01*
X131167143Y-90780952D01*
X131071905Y-90733333D01*
X130976667Y-90733333D01*
X130881429Y-90780952D01*
X130833810Y-90828571D01*
X130786190Y-90923809D01*
X130738571Y-91114286D01*
X130690952Y-91209524D01*
X130643333Y-91257143D01*
X130548095Y-91304762D01*
X130452857Y-91304762D01*
X130357619Y-91257143D01*
X130310000Y-91209524D01*
X130262381Y-91114286D01*
X130262381Y-90876190D01*
X130310000Y-90733333D01*
X130976667Y-90352381D02*
X130976667Y-89876190D01*
X131262381Y-90447619D02*
X130262381Y-90114286D01*
X131262381Y-89780952D01*
X131262381Y-88876190D02*
X130786190Y-89209524D01*
X131262381Y-89447619D02*
X130262381Y-89447619D01*
X130262381Y-89066666D01*
X130310000Y-88971428D01*
X130357619Y-88923809D01*
X130452857Y-88876190D01*
X130595714Y-88876190D01*
X130690952Y-88923809D01*
X130738571Y-88971428D01*
X130786190Y-89066666D01*
X130786190Y-89447619D01*
X130262381Y-88590476D02*
X130262381Y-88019047D01*
X131262381Y-88304762D02*
X130262381Y-88304762D01*
X130357619Y-87733333D02*
X130310000Y-87685714D01*
X130262381Y-87590476D01*
X130262381Y-87352380D01*
X130310000Y-87257142D01*
X130357619Y-87209523D01*
X130452857Y-87161904D01*
X130548095Y-87161904D01*
X130690952Y-87209523D01*
X131262381Y-87780952D01*
X131262381Y-87161904D01*
X131357619Y-86971428D02*
X131357619Y-86209523D01*
X131262381Y-85447618D02*
X131262381Y-86019047D01*
X131262381Y-85733333D02*
X130262381Y-85733333D01*
X130405238Y-85828571D01*
X130500476Y-85923809D01*
X130548095Y-86019047D01*
X144232381Y-113164762D02*
X145232381Y-112926667D01*
X144518095Y-112736190D01*
X145232381Y-112545714D01*
X144232381Y-112307619D01*
X145232381Y-111926667D02*
X144232381Y-111926667D01*
X144232381Y-111545714D01*
X144280000Y-111450476D01*
X144327619Y-111402857D01*
X144422857Y-111355238D01*
X144565714Y-111355238D01*
X144660952Y-111402857D01*
X144708571Y-111450476D01*
X144756190Y-111545714D01*
X144756190Y-111926667D01*
X145232381Y-110402857D02*
X145232381Y-110974286D01*
X145232381Y-110688572D02*
X144232381Y-110688572D01*
X144375238Y-110783810D01*
X144470476Y-110879048D01*
X144518095Y-110974286D01*
X146772381Y-113164762D02*
X147772381Y-112926667D01*
X147058095Y-112736190D01*
X147772381Y-112545714D01*
X146772381Y-112307619D01*
X147772381Y-111926667D02*
X146772381Y-111926667D01*
X146772381Y-111545714D01*
X146820000Y-111450476D01*
X146867619Y-111402857D01*
X146962857Y-111355238D01*
X147105714Y-111355238D01*
X147200952Y-111402857D01*
X147248571Y-111450476D01*
X147296190Y-111545714D01*
X147296190Y-111926667D01*
X146867619Y-110974286D02*
X146820000Y-110926667D01*
X146772381Y-110831429D01*
X146772381Y-110593333D01*
X146820000Y-110498095D01*
X146867619Y-110450476D01*
X146962857Y-110402857D01*
X147058095Y-110402857D01*
X147200952Y-110450476D01*
X147772381Y-111021905D01*
X147772381Y-110402857D01*
X148256667Y-104862381D02*
X148256667Y-105576667D01*
X148209047Y-105719524D01*
X148113809Y-105814762D01*
X147970952Y-105862381D01*
X147875714Y-105862381D01*
X148637619Y-104862381D02*
X149304286Y-104862381D01*
X148875714Y-105862381D01*
X160917143Y-117292381D02*
X160917143Y-116292381D01*
X161298096Y-116292381D01*
X161393334Y-116340000D01*
X161440953Y-116387619D01*
X161488572Y-116482857D01*
X161488572Y-116625714D01*
X161440953Y-116720952D01*
X161393334Y-116768571D01*
X161298096Y-116816190D01*
X160917143Y-116816190D01*
X162107619Y-116292381D02*
X162298096Y-116292381D01*
X162393334Y-116340000D01*
X162488572Y-116435238D01*
X162536191Y-116625714D01*
X162536191Y-116959048D01*
X162488572Y-117149524D01*
X162393334Y-117244762D01*
X162298096Y-117292381D01*
X162107619Y-117292381D01*
X162012381Y-117244762D01*
X161917143Y-117149524D01*
X161869524Y-116959048D01*
X161869524Y-116625714D01*
X161917143Y-116435238D01*
X162012381Y-116340000D01*
X162107619Y-116292381D01*
X162821905Y-116292381D02*
X163393334Y-116292381D01*
X163107619Y-117292381D02*
X163107619Y-116292381D01*
X163679048Y-116387619D02*
X163726667Y-116340000D01*
X163821905Y-116292381D01*
X164060001Y-116292381D01*
X164155239Y-116340000D01*
X164202858Y-116387619D01*
X164250477Y-116482857D01*
X164250477Y-116578095D01*
X164202858Y-116720952D01*
X163631429Y-117292381D01*
X164250477Y-117292381D01*
X195842143Y-89352381D02*
X195842143Y-88352381D01*
X196223096Y-88352381D01*
X196318334Y-88400000D01*
X196365953Y-88447619D01*
X196413572Y-88542857D01*
X196413572Y-88685714D01*
X196365953Y-88780952D01*
X196318334Y-88828571D01*
X196223096Y-88876190D01*
X195842143Y-88876190D01*
X197032619Y-88352381D02*
X197223096Y-88352381D01*
X197318334Y-88400000D01*
X197413572Y-88495238D01*
X197461191Y-88685714D01*
X197461191Y-89019048D01*
X197413572Y-89209524D01*
X197318334Y-89304762D01*
X197223096Y-89352381D01*
X197032619Y-89352381D01*
X196937381Y-89304762D01*
X196842143Y-89209524D01*
X196794524Y-89019048D01*
X196794524Y-88685714D01*
X196842143Y-88495238D01*
X196937381Y-88400000D01*
X197032619Y-88352381D01*
X197746905Y-88352381D02*
X198318334Y-88352381D01*
X198032619Y-89352381D02*
X198032619Y-88352381D01*
X199080239Y-88685714D02*
X199080239Y-89352381D01*
X198842143Y-88304762D02*
X198604048Y-89019048D01*
X199223096Y-89019048D01*
X171712143Y-117292381D02*
X171712143Y-116292381D01*
X172093096Y-116292381D01*
X172188334Y-116340000D01*
X172235953Y-116387619D01*
X172283572Y-116482857D01*
X172283572Y-116625714D01*
X172235953Y-116720952D01*
X172188334Y-116768571D01*
X172093096Y-116816190D01*
X171712143Y-116816190D01*
X172902619Y-116292381D02*
X173093096Y-116292381D01*
X173188334Y-116340000D01*
X173283572Y-116435238D01*
X173331191Y-116625714D01*
X173331191Y-116959048D01*
X173283572Y-117149524D01*
X173188334Y-117244762D01*
X173093096Y-117292381D01*
X172902619Y-117292381D01*
X172807381Y-117244762D01*
X172712143Y-117149524D01*
X172664524Y-116959048D01*
X172664524Y-116625714D01*
X172712143Y-116435238D01*
X172807381Y-116340000D01*
X172902619Y-116292381D01*
X173616905Y-116292381D02*
X174188334Y-116292381D01*
X173902619Y-117292381D02*
X173902619Y-116292381D01*
X174426429Y-116292381D02*
X175045477Y-116292381D01*
X174712143Y-116673333D01*
X174855001Y-116673333D01*
X174950239Y-116720952D01*
X174997858Y-116768571D01*
X175045477Y-116863810D01*
X175045477Y-117101905D01*
X174997858Y-117197143D01*
X174950239Y-117244762D01*
X174855001Y-117292381D01*
X174569286Y-117292381D01*
X174474048Y-117244762D01*
X174426429Y-117197143D01*
X140231905Y-67762381D02*
X140231905Y-66762381D01*
X140470000Y-66762381D01*
X140612858Y-66810000D01*
X140708096Y-66905238D01*
X140755715Y-67000476D01*
X140803334Y-67190952D01*
X140803334Y-67333810D01*
X140755715Y-67524286D01*
X140708096Y-67619524D01*
X140612858Y-67714762D01*
X140470000Y-67762381D01*
X140231905Y-67762381D01*
X141136667Y-66762381D02*
X141755715Y-66762381D01*
X141422381Y-67143333D01*
X141565239Y-67143333D01*
X141660477Y-67190952D01*
X141708096Y-67238571D01*
X141755715Y-67333810D01*
X141755715Y-67571905D01*
X141708096Y-67667143D01*
X141660477Y-67714762D01*
X141565239Y-67762381D01*
X141279524Y-67762381D01*
X141184286Y-67714762D01*
X141136667Y-67667143D01*
X127389048Y-93908571D02*
X127531905Y-93956190D01*
X127579524Y-94003810D01*
X127627143Y-94099048D01*
X127627143Y-94241905D01*
X127579524Y-94337143D01*
X127531905Y-94384762D01*
X127436667Y-94432381D01*
X127055714Y-94432381D01*
X127055714Y-93432381D01*
X127389048Y-93432381D01*
X127484286Y-93480000D01*
X127531905Y-93527619D01*
X127579524Y-93622857D01*
X127579524Y-93718095D01*
X127531905Y-93813333D01*
X127484286Y-93860952D01*
X127389048Y-93908571D01*
X127055714Y-93908571D01*
X127960476Y-93432381D02*
X128627143Y-93432381D01*
X127960476Y-94432381D01*
X128627143Y-94432381D01*
X129531905Y-94432381D02*
X128960476Y-94432381D01*
X129246190Y-94432381D02*
X129246190Y-93432381D01*
X129150952Y-93575238D01*
X129055714Y-93670476D01*
X128960476Y-93718095D01*
X132611905Y-78557381D02*
X132611905Y-77557381D01*
X132850000Y-77557381D01*
X132992858Y-77605000D01*
X133088096Y-77700238D01*
X133135715Y-77795476D01*
X133183334Y-77985952D01*
X133183334Y-78128810D01*
X133135715Y-78319286D01*
X133088096Y-78414524D01*
X132992858Y-78509762D01*
X132850000Y-78557381D01*
X132611905Y-78557381D01*
X133564286Y-77652619D02*
X133611905Y-77605000D01*
X133707143Y-77557381D01*
X133945239Y-77557381D01*
X134040477Y-77605000D01*
X134088096Y-77652619D01*
X134135715Y-77747857D01*
X134135715Y-77843095D01*
X134088096Y-77985952D01*
X133516667Y-78557381D01*
X134135715Y-78557381D01*
X178887381Y-109267381D02*
X177887381Y-109267381D01*
X178792143Y-108219762D02*
X178839762Y-108267381D01*
X178887381Y-108410238D01*
X178887381Y-108505476D01*
X178839762Y-108648334D01*
X178744524Y-108743572D01*
X178649286Y-108791191D01*
X178458810Y-108838810D01*
X178315952Y-108838810D01*
X178125476Y-108791191D01*
X178030238Y-108743572D01*
X177935000Y-108648334D01*
X177887381Y-108505476D01*
X177887381Y-108410238D01*
X177935000Y-108267381D01*
X177982619Y-108219762D01*
X178839762Y-107838810D02*
X178887381Y-107695953D01*
X178887381Y-107457857D01*
X178839762Y-107362619D01*
X178792143Y-107315000D01*
X178696905Y-107267381D01*
X178601667Y-107267381D01*
X178506429Y-107315000D01*
X178458810Y-107362619D01*
X178411190Y-107457857D01*
X178363571Y-107648334D01*
X178315952Y-107743572D01*
X178268333Y-107791191D01*
X178173095Y-107838810D01*
X178077857Y-107838810D01*
X177982619Y-107791191D01*
X177935000Y-107743572D01*
X177887381Y-107648334D01*
X177887381Y-107410238D01*
X177935000Y-107267381D01*
X178887381Y-106838810D02*
X177887381Y-106838810D01*
X177887381Y-106457857D01*
X177935000Y-106362619D01*
X177982619Y-106315000D01*
X178077857Y-106267381D01*
X178220714Y-106267381D01*
X178315952Y-106315000D01*
X178363571Y-106362619D01*
X178411190Y-106457857D01*
X178411190Y-106838810D01*
X178887381Y-105315000D02*
X178887381Y-105886429D01*
X178887381Y-105600715D02*
X177887381Y-105600715D01*
X178030238Y-105695953D01*
X178125476Y-105791191D01*
X178173095Y-105886429D01*
X113752381Y-76533333D02*
X114466667Y-76533333D01*
X114609524Y-76580953D01*
X114704762Y-76676191D01*
X114752381Y-76819048D01*
X114752381Y-76914286D01*
X113847619Y-76104762D02*
X113800000Y-76057143D01*
X113752381Y-75961905D01*
X113752381Y-75723809D01*
X113800000Y-75628571D01*
X113847619Y-75580952D01*
X113942857Y-75533333D01*
X114038095Y-75533333D01*
X114180952Y-75580952D01*
X114752381Y-76152381D01*
X114752381Y-75533333D01*
X150122143Y-117292381D02*
X150122143Y-116292381D01*
X150503096Y-116292381D01*
X150598334Y-116340000D01*
X150645953Y-116387619D01*
X150693572Y-116482857D01*
X150693572Y-116625714D01*
X150645953Y-116720952D01*
X150598334Y-116768571D01*
X150503096Y-116816190D01*
X150122143Y-116816190D01*
X151312619Y-116292381D02*
X151503096Y-116292381D01*
X151598334Y-116340000D01*
X151693572Y-116435238D01*
X151741191Y-116625714D01*
X151741191Y-116959048D01*
X151693572Y-117149524D01*
X151598334Y-117244762D01*
X151503096Y-117292381D01*
X151312619Y-117292381D01*
X151217381Y-117244762D01*
X151122143Y-117149524D01*
X151074524Y-116959048D01*
X151074524Y-116625714D01*
X151122143Y-116435238D01*
X151217381Y-116340000D01*
X151312619Y-116292381D01*
X152026905Y-116292381D02*
X152598334Y-116292381D01*
X152312619Y-117292381D02*
X152312619Y-116292381D01*
X153455477Y-117292381D02*
X152884048Y-117292381D01*
X153169762Y-117292381D02*
X153169762Y-116292381D01*
X153074524Y-116435238D01*
X152979286Y-116530476D01*
X152884048Y-116578095D01*
X195215000Y-131262381D02*
X194881666Y-130786190D01*
X194643571Y-131262381D02*
X194643571Y-130262381D01*
X195024524Y-130262381D01*
X195119762Y-130310000D01*
X195167381Y-130357619D01*
X195215000Y-130452857D01*
X195215000Y-130595714D01*
X195167381Y-130690952D01*
X195119762Y-130738571D01*
X195024524Y-130786190D01*
X194643571Y-130786190D01*
X196119762Y-131262381D02*
X195643571Y-131262381D01*
X195643571Y-130262381D01*
X196643571Y-130786190D02*
X196643571Y-131262381D01*
X196310238Y-130262381D02*
X196643571Y-130786190D01*
X196976905Y-130262381D01*
X197834048Y-131262381D02*
X197262619Y-131262381D01*
X197548333Y-131262381D02*
X197548333Y-130262381D01*
X197453095Y-130405238D01*
X197357857Y-130500476D01*
X197262619Y-130548095D01*
X193786429Y-141422381D02*
X193453095Y-140946190D01*
X193215000Y-141422381D02*
X193215000Y-140422381D01*
X193595953Y-140422381D01*
X193691191Y-140470000D01*
X193738810Y-140517619D01*
X193786429Y-140612857D01*
X193786429Y-140755714D01*
X193738810Y-140850952D01*
X193691191Y-140898571D01*
X193595953Y-140946190D01*
X193215000Y-140946190D01*
X194691191Y-141422381D02*
X194215000Y-141422381D01*
X194215000Y-140422381D01*
X195215000Y-140946190D02*
X195215000Y-141422381D01*
X194881667Y-140422381D02*
X195215000Y-140946190D01*
X195548334Y-140422381D01*
X196072143Y-140422381D02*
X196262620Y-140422381D01*
X196357858Y-140470000D01*
X196453096Y-140565238D01*
X196500715Y-140755714D01*
X196500715Y-141089048D01*
X196453096Y-141279524D01*
X196357858Y-141374762D01*
X196262620Y-141422381D01*
X196072143Y-141422381D01*
X195976905Y-141374762D01*
X195881667Y-141279524D01*
X195834048Y-141089048D01*
X195834048Y-140755714D01*
X195881667Y-140565238D01*
X195976905Y-140470000D01*
X196072143Y-140422381D01*
X196929286Y-140422381D02*
X196929286Y-141231905D01*
X196976905Y-141327143D01*
X197024524Y-141374762D01*
X197119762Y-141422381D01*
X197310239Y-141422381D01*
X197405477Y-141374762D01*
X197453096Y-141327143D01*
X197500715Y-141231905D01*
X197500715Y-140422381D01*
X197834048Y-140422381D02*
X198405477Y-140422381D01*
X198119762Y-141422381D02*
X198119762Y-140422381D01*
X199262620Y-141422381D02*
X198691191Y-141422381D01*
X198976905Y-141422381D02*
X198976905Y-140422381D01*
X198881667Y-140565238D01*
X198786429Y-140660476D01*
X198691191Y-140708095D01*
X180935381Y-93519524D02*
X181935381Y-92852857D01*
X180935381Y-92852857D02*
X181935381Y-93519524D01*
X181935381Y-91948095D02*
X181935381Y-92519524D01*
X181935381Y-92233810D02*
X180935381Y-92233810D01*
X181078238Y-92329048D01*
X181173476Y-92424286D01*
X181221095Y-92519524D01*
X151066667Y-143279762D02*
X151209524Y-143327381D01*
X151447620Y-143327381D01*
X151542858Y-143279762D01*
X151590477Y-143232143D01*
X151638096Y-143136905D01*
X151638096Y-143041667D01*
X151590477Y-142946429D01*
X151542858Y-142898810D01*
X151447620Y-142851190D01*
X151257143Y-142803571D01*
X151161905Y-142755952D01*
X151114286Y-142708333D01*
X151066667Y-142613095D01*
X151066667Y-142517857D01*
X151114286Y-142422619D01*
X151161905Y-142375000D01*
X151257143Y-142327381D01*
X151495239Y-142327381D01*
X151638096Y-142375000D01*
X151971429Y-142327381D02*
X152209524Y-143327381D01*
X152400001Y-142613095D01*
X152590477Y-143327381D01*
X152828572Y-142327381D01*
X153161905Y-142422619D02*
X153209524Y-142375000D01*
X153304762Y-142327381D01*
X153542858Y-142327381D01*
X153638096Y-142375000D01*
X153685715Y-142422619D01*
X153733334Y-142517857D01*
X153733334Y-142613095D01*
X153685715Y-142755952D01*
X153114286Y-143327381D01*
X153733334Y-143327381D01*
X160591667Y-143279762D02*
X160734524Y-143327381D01*
X160972620Y-143327381D01*
X161067858Y-143279762D01*
X161115477Y-143232143D01*
X161163096Y-143136905D01*
X161163096Y-143041667D01*
X161115477Y-142946429D01*
X161067858Y-142898810D01*
X160972620Y-142851190D01*
X160782143Y-142803571D01*
X160686905Y-142755952D01*
X160639286Y-142708333D01*
X160591667Y-142613095D01*
X160591667Y-142517857D01*
X160639286Y-142422619D01*
X160686905Y-142375000D01*
X160782143Y-142327381D01*
X161020239Y-142327381D01*
X161163096Y-142375000D01*
X161496429Y-142327381D02*
X161734524Y-143327381D01*
X161925001Y-142613095D01*
X162115477Y-143327381D01*
X162353572Y-142327381D01*
X162639286Y-142327381D02*
X163258334Y-142327381D01*
X162925000Y-142708333D01*
X163067858Y-142708333D01*
X163163096Y-142755952D01*
X163210715Y-142803571D01*
X163258334Y-142898810D01*
X163258334Y-143136905D01*
X163210715Y-143232143D01*
X163163096Y-143279762D01*
X163067858Y-143327381D01*
X162782143Y-143327381D01*
X162686905Y-143279762D01*
X162639286Y-143232143D01*
X170116667Y-143279762D02*
X170259524Y-143327381D01*
X170497620Y-143327381D01*
X170592858Y-143279762D01*
X170640477Y-143232143D01*
X170688096Y-143136905D01*
X170688096Y-143041667D01*
X170640477Y-142946429D01*
X170592858Y-142898810D01*
X170497620Y-142851190D01*
X170307143Y-142803571D01*
X170211905Y-142755952D01*
X170164286Y-142708333D01*
X170116667Y-142613095D01*
X170116667Y-142517857D01*
X170164286Y-142422619D01*
X170211905Y-142375000D01*
X170307143Y-142327381D01*
X170545239Y-142327381D01*
X170688096Y-142375000D01*
X171021429Y-142327381D02*
X171259524Y-143327381D01*
X171450001Y-142613095D01*
X171640477Y-143327381D01*
X171878572Y-142327381D01*
X172688096Y-142660714D02*
X172688096Y-143327381D01*
X172450000Y-142279762D02*
X172211905Y-142994048D01*
X172830953Y-142994048D01*
X153487381Y-113053571D02*
X153011190Y-113386905D01*
X153487381Y-113625000D02*
X152487381Y-113625000D01*
X152487381Y-113244047D01*
X152535000Y-113148809D01*
X152582619Y-113101190D01*
X152677857Y-113053571D01*
X152820714Y-113053571D01*
X152915952Y-113101190D01*
X152963571Y-113148809D01*
X153011190Y-113244047D01*
X153011190Y-113625000D01*
X152963571Y-112625000D02*
X152963571Y-112291666D01*
X153487381Y-112148809D02*
X153487381Y-112625000D01*
X152487381Y-112625000D01*
X152487381Y-112148809D01*
X153439762Y-111767857D02*
X153487381Y-111625000D01*
X153487381Y-111386904D01*
X153439762Y-111291666D01*
X153392143Y-111244047D01*
X153296905Y-111196428D01*
X153201667Y-111196428D01*
X153106429Y-111244047D01*
X153058810Y-111291666D01*
X153011190Y-111386904D01*
X152963571Y-111577381D01*
X152915952Y-111672619D01*
X152868333Y-111720238D01*
X152773095Y-111767857D01*
X152677857Y-111767857D01*
X152582619Y-111720238D01*
X152535000Y-111672619D01*
X152487381Y-111577381D01*
X152487381Y-111339285D01*
X152535000Y-111196428D01*
X152963571Y-110767857D02*
X152963571Y-110434523D01*
X153487381Y-110291666D02*
X153487381Y-110767857D01*
X152487381Y-110767857D01*
X152487381Y-110291666D01*
X152487381Y-110005952D02*
X152487381Y-109434523D01*
X153487381Y-109720238D02*
X152487381Y-109720238D01*
X153487381Y-108577380D02*
X153487381Y-109148809D01*
X153487381Y-108863095D02*
X152487381Y-108863095D01*
X152630238Y-108958333D01*
X152725476Y-109053571D01*
X152773095Y-109148809D01*
D19*
G36*
X208788000Y-130683000D02*
X205232000Y-130683000D01*
X205232000Y-113157000D01*
X208788000Y-113157000D01*
X208788000Y-130683000D01*
X208788000Y-130683000D01*
G37*
X208788000Y-130683000D02*
X205232000Y-130683000D01*
X205232000Y-113157000D01*
X208788000Y-113157000D01*
X208788000Y-130683000D01*
M02*
