G04 #@! TF.FileFunction,Soldermask,Bot*
%FSLAX46Y46*%
G04 Gerber Fmt 4.6, Leading zero omitted, Abs format (unit mm)*
G04 Created by KiCad (PCBNEW 4.0.2-stable) date 01/06/2016 13:38:34*
%MOMM*%
G01*
G04 APERTURE LIST*
%ADD10C,0.100000*%
%ADD11C,0.700000*%
%ADD12R,3.000000X3.000000*%
%ADD13C,1.524000*%
%ADD14C,3.500000*%
%ADD15C,1.998980*%
%ADD16O,1.100000X2.400000*%
%ADD17R,2.400000X1.100000*%
%ADD18O,2.400000X1.100000*%
%ADD19R,1.727200X2.032000*%
%ADD20O,1.727200X2.032000*%
%ADD21R,1.250000X1.500000*%
%ADD22R,1.500000X1.250000*%
%ADD23R,1.300000X1.300000*%
%ADD24C,1.300000*%
%ADD25R,1.550000X0.600000*%
%ADD26R,2.032000X1.727200*%
%ADD27O,2.032000X1.727200*%
%ADD28C,4.800600*%
%ADD29R,4.800600X4.800600*%
%ADD30R,1.300000X1.500000*%
%ADD31R,2.000000X2.000000*%
%ADD32C,2.000000*%
%ADD33R,0.800100X0.800100*%
%ADD34R,1.500000X1.300000*%
%ADD35R,1.727200X1.727200*%
%ADD36O,1.727200X1.727200*%
%ADD37R,2.032000X3.657600*%
%ADD38R,2.032000X1.016000*%
%ADD39R,2.235200X2.235200*%
%ADD40C,2.300000*%
%ADD41C,4.000000*%
%ADD42R,1.998980X2.301240*%
%ADD43C,4.064000*%
%ADD44C,3.000000*%
%ADD45R,4.000000X4.000000*%
%ADD46C,1.500000*%
%ADD47R,1.498600X2.197100*%
%ADD48O,1.498600X2.197100*%
%ADD49R,2.999740X2.999740*%
%ADD50C,2.999740*%
%ADD51C,2.200000*%
%ADD52C,2.600000*%
%ADD53C,2.800000*%
%ADD54R,1.897380X1.897380*%
%ADD55R,0.398780X1.348740*%
%ADD56R,0.398780X1.346200*%
G04 APERTURE END LIST*
D10*
D11*
X160610000Y-98340000D03*
X160610000Y-97240000D03*
D12*
X151610000Y-97790000D03*
D13*
X131270000Y-114475000D03*
X129270000Y-114475000D03*
X127270000Y-114475000D03*
X125270000Y-114475000D03*
D14*
X128270000Y-138975000D03*
D15*
X139623800Y-141315440D03*
X146126200Y-136814560D03*
X139623800Y-136814560D03*
X146126200Y-141315440D03*
D16*
X123640000Y-106170000D03*
X125640000Y-106170000D03*
X127640000Y-106170000D03*
X129640000Y-106170000D03*
X131640000Y-106170000D03*
X133640000Y-106170000D03*
D17*
X120650000Y-121920000D03*
D18*
X120650000Y-119920000D03*
X120650000Y-117920000D03*
X120650000Y-115920000D03*
X120650000Y-113920000D03*
X120650000Y-111920000D03*
X120650000Y-109920000D03*
X120650000Y-107920000D03*
X136650000Y-107920000D03*
X136650000Y-109920000D03*
X136650000Y-111920000D03*
X136650000Y-113920000D03*
X136650000Y-115920000D03*
X136650000Y-117920000D03*
X136650000Y-119920000D03*
X136650000Y-121920000D03*
D19*
X139700000Y-131445000D03*
D20*
X142240000Y-131445000D03*
X144780000Y-131445000D03*
X147320000Y-131445000D03*
D21*
X155575000Y-130155000D03*
X155575000Y-127655000D03*
D22*
X125710000Y-102870000D03*
X123210000Y-102870000D03*
D21*
X166370000Y-130155000D03*
X166370000Y-127655000D03*
X177165000Y-130155000D03*
X177165000Y-127655000D03*
X158750000Y-109875000D03*
X158750000Y-112375000D03*
D22*
X174645000Y-83185000D03*
X177145000Y-83185000D03*
D21*
X197485000Y-88245000D03*
X197485000Y-85745000D03*
X168275000Y-101620000D03*
X168275000Y-104120000D03*
D22*
X154920000Y-100965000D03*
X152420000Y-100965000D03*
X154920000Y-94615000D03*
X152420000Y-94615000D03*
X191115000Y-76835000D03*
X188615000Y-76835000D03*
X185440000Y-85090000D03*
X187940000Y-85090000D03*
X164485000Y-83185000D03*
X166985000Y-83185000D03*
D23*
X130175000Y-71120000D03*
D24*
X125175000Y-71120000D03*
X117800000Y-133985000D03*
D23*
X114300000Y-133985000D03*
D24*
X135295000Y-71120000D03*
D23*
X137795000Y-71120000D03*
D24*
X149535000Y-71120000D03*
D23*
X153035000Y-71120000D03*
X157480000Y-92075000D03*
D24*
X157480000Y-94075000D03*
D25*
X178595000Y-86995000D03*
X178595000Y-88265000D03*
X178595000Y-89535000D03*
X178595000Y-90805000D03*
X173195000Y-90805000D03*
X173195000Y-89535000D03*
X173195000Y-88265000D03*
X173195000Y-86995000D03*
X168435000Y-86995000D03*
X168435000Y-88265000D03*
X168435000Y-89535000D03*
X168435000Y-90805000D03*
X163035000Y-90805000D03*
X163035000Y-89535000D03*
X163035000Y-88265000D03*
X163035000Y-86995000D03*
D26*
X156845000Y-85090000D03*
D27*
X156845000Y-82550000D03*
X156845000Y-80010000D03*
X156845000Y-77470000D03*
D26*
X139700000Y-114935000D03*
D27*
X139700000Y-117475000D03*
X139700000Y-120015000D03*
D28*
X120015000Y-86360000D03*
D29*
X126111000Y-86360000D03*
D28*
X122301000Y-91440000D03*
D26*
X205740000Y-78105000D03*
D27*
X205740000Y-80645000D03*
X205740000Y-83185000D03*
X205740000Y-85725000D03*
X205740000Y-88265000D03*
X205740000Y-90805000D03*
X205740000Y-93345000D03*
X205740000Y-95885000D03*
X205740000Y-98425000D03*
D26*
X115570000Y-127635000D03*
D27*
X115570000Y-125095000D03*
X115570000Y-122555000D03*
X115570000Y-120015000D03*
X115570000Y-117475000D03*
X115570000Y-114935000D03*
X115570000Y-112395000D03*
X115570000Y-109855000D03*
X115570000Y-107315000D03*
X115570000Y-104775000D03*
X115570000Y-102235000D03*
X115570000Y-99695000D03*
X115570000Y-97155000D03*
X115570000Y-94615000D03*
D19*
X188595000Y-69215000D03*
D20*
X186055000Y-69215000D03*
X183515000Y-69215000D03*
X180975000Y-69215000D03*
X178435000Y-69215000D03*
X175895000Y-69215000D03*
X173355000Y-69215000D03*
X170815000Y-69215000D03*
X168275000Y-69215000D03*
X165735000Y-69215000D03*
D26*
X205740000Y-108585000D03*
D27*
X205740000Y-106045000D03*
X205740000Y-103505000D03*
X205740000Y-100965000D03*
D30*
X191770000Y-69295000D03*
X191770000Y-66595000D03*
D19*
X165735000Y-73660000D03*
D20*
X168275000Y-73660000D03*
X170815000Y-73660000D03*
X173355000Y-73660000D03*
X175895000Y-73660000D03*
X178435000Y-73660000D03*
X180975000Y-73660000D03*
X183515000Y-73660000D03*
X186055000Y-73660000D03*
X188595000Y-73660000D03*
X191135000Y-73660000D03*
X193675000Y-73660000D03*
X196215000Y-73660000D03*
X198755000Y-73660000D03*
X201295000Y-73660000D03*
X203835000Y-73660000D03*
D31*
X184150000Y-140970000D03*
D32*
X186690000Y-140970000D03*
D31*
X184150000Y-134620000D03*
D32*
X186690000Y-134620000D03*
D31*
X184150000Y-128270000D03*
D32*
X186690000Y-128270000D03*
D31*
X184150000Y-121920000D03*
D32*
X186690000Y-121920000D03*
D26*
X142240000Y-114935000D03*
D27*
X142240000Y-117475000D03*
X142240000Y-120015000D03*
D19*
X153035000Y-133350000D03*
D20*
X155575000Y-133350000D03*
X158115000Y-133350000D03*
D19*
X163830000Y-133350000D03*
D20*
X166370000Y-133350000D03*
X168910000Y-133350000D03*
D19*
X174625000Y-133350000D03*
D20*
X177165000Y-133350000D03*
X179705000Y-133350000D03*
D26*
X169545000Y-116205000D03*
D27*
X169545000Y-113665000D03*
X169545000Y-111125000D03*
D26*
X180340000Y-116205000D03*
D27*
X180340000Y-113665000D03*
X180340000Y-111125000D03*
D33*
X195265000Y-108219240D03*
X197165000Y-108219240D03*
X196215000Y-110218220D03*
X139430760Y-101285000D03*
X139430760Y-103185000D03*
X137431780Y-102235000D03*
X168590000Y-78470760D03*
X166690000Y-78470760D03*
X167640000Y-76471780D03*
D34*
X184070000Y-137795000D03*
X186770000Y-137795000D03*
X184070000Y-131445000D03*
X186770000Y-131445000D03*
D30*
X142875000Y-137080000D03*
X142875000Y-139780000D03*
D34*
X184070000Y-125095000D03*
X186770000Y-125095000D03*
X184070000Y-118745000D03*
X186770000Y-118745000D03*
X202645000Y-109220000D03*
X199945000Y-109220000D03*
D30*
X152400000Y-137080000D03*
X152400000Y-139780000D03*
X137795000Y-98505000D03*
X137795000Y-95805000D03*
X141605000Y-103585000D03*
X141605000Y-100885000D03*
D34*
X123745000Y-95885000D03*
X126445000Y-95885000D03*
D30*
X158115000Y-71040000D03*
X158115000Y-73740000D03*
X161925000Y-137080000D03*
X161925000Y-139780000D03*
X121920000Y-134540000D03*
X121920000Y-137240000D03*
X124460000Y-134540000D03*
X124460000Y-137240000D03*
X132080000Y-134540000D03*
X132080000Y-137240000D03*
X134620000Y-134540000D03*
X134620000Y-137240000D03*
X161925000Y-71040000D03*
X161925000Y-73740000D03*
X171450000Y-137080000D03*
X171450000Y-139780000D03*
D34*
X188040000Y-90170000D03*
X185340000Y-90170000D03*
X188040000Y-87630000D03*
X185340000Y-87630000D03*
D30*
X163830000Y-101520000D03*
X163830000Y-104220000D03*
X160020000Y-104220000D03*
X160020000Y-101520000D03*
D34*
X171370000Y-77470000D03*
X174070000Y-77470000D03*
D35*
X132080000Y-109220000D03*
D36*
X132080000Y-111760000D03*
X129540000Y-109220000D03*
X129540000Y-111760000D03*
X127000000Y-109220000D03*
X127000000Y-111760000D03*
X124460000Y-109220000D03*
X124460000Y-111760000D03*
D37*
X133223000Y-81280000D03*
D38*
X139827000Y-81280000D03*
X139827000Y-83566000D03*
X139827000Y-78994000D03*
D37*
X153162000Y-81280000D03*
D38*
X146558000Y-81280000D03*
X146558000Y-78994000D03*
X146558000Y-83566000D03*
D25*
X177640000Y-80645000D03*
X177640000Y-79375000D03*
X177640000Y-78105000D03*
X177640000Y-76835000D03*
X183040000Y-76835000D03*
X183040000Y-78105000D03*
X183040000Y-79375000D03*
X183040000Y-80645000D03*
X163035000Y-98425000D03*
X163035000Y-97155000D03*
X163035000Y-95885000D03*
X163035000Y-94615000D03*
X168435000Y-94615000D03*
X168435000Y-95885000D03*
X168435000Y-97155000D03*
X168435000Y-98425000D03*
D26*
X133350000Y-102235000D03*
D27*
X133350000Y-99695000D03*
X133350000Y-97155000D03*
X133350000Y-94615000D03*
X133350000Y-92075000D03*
X133350000Y-89535000D03*
X133350000Y-86995000D03*
D26*
X144780000Y-114935000D03*
D27*
X144780000Y-117475000D03*
X144780000Y-120015000D03*
D26*
X147320000Y-114935000D03*
D27*
X147320000Y-117475000D03*
X147320000Y-120015000D03*
D39*
X151765000Y-105410000D03*
D40*
X163870000Y-128825000D03*
X166370000Y-118825000D03*
X168870000Y-128825000D03*
D41*
X166370000Y-123825000D03*
D40*
X194985000Y-86915000D03*
X197485000Y-76915000D03*
X199985000Y-86915000D03*
D41*
X197485000Y-81915000D03*
D40*
X174665000Y-128825000D03*
X177165000Y-118825000D03*
X179665000Y-128825000D03*
D41*
X177165000Y-123825000D03*
D42*
X189334140Y-109220000D03*
X185315860Y-109220000D03*
X191874140Y-80645000D03*
X187855860Y-80645000D03*
X173885860Y-95885000D03*
X177904140Y-95885000D03*
X173885860Y-102235000D03*
X177904140Y-102235000D03*
D43*
X114300000Y-67945000D03*
X207010000Y-67945000D03*
D44*
X196850000Y-105029000D03*
X196850000Y-91821000D03*
D45*
X196850000Y-98425000D03*
D46*
X121295000Y-100330000D03*
X128895000Y-100330000D03*
D47*
X139700000Y-133972300D03*
D48*
X142240000Y-133985000D03*
X144780000Y-133985000D03*
X147320000Y-133985000D03*
X147320000Y-126365000D03*
X144780000Y-126365000D03*
X142240000Y-126365000D03*
X139700000Y-126365000D03*
D19*
X175895000Y-107315000D03*
D20*
X173355000Y-107315000D03*
X170815000Y-107315000D03*
X168275000Y-107315000D03*
X165735000Y-107315000D03*
D49*
X116840000Y-78740000D03*
D50*
X116840000Y-73660000D03*
D40*
X153075000Y-128825000D03*
X155575000Y-118825000D03*
X158075000Y-128825000D03*
D41*
X155575000Y-123825000D03*
D51*
X190215000Y-116455000D03*
D52*
X190215000Y-128655000D03*
X202215000Y-128655000D03*
D51*
X202215000Y-116455000D03*
D53*
X196215000Y-114455000D03*
D49*
X201295000Y-137160000D03*
D50*
X196215000Y-137160000D03*
X191135000Y-137160000D03*
D43*
X114300000Y-140970000D03*
X207010000Y-140970000D03*
D15*
X149148800Y-141315440D03*
X155651200Y-136814560D03*
X149148800Y-136814560D03*
X155651200Y-141315440D03*
X158673800Y-141315440D03*
X165176200Y-136814560D03*
X158673800Y-136814560D03*
X165176200Y-141315440D03*
X168198800Y-141315440D03*
X174701200Y-136814560D03*
X168198800Y-136814560D03*
X174701200Y-141315440D03*
X162001200Y-108874560D03*
X155498800Y-113375440D03*
X162001200Y-113375440D03*
X155498800Y-108874560D03*
D54*
X197556120Y-66675000D03*
X199953880Y-66675000D03*
X202704700Y-66675000D03*
X194805300Y-66675000D03*
D55*
X197454520Y-69349620D03*
D56*
X198107300Y-69349620D03*
X198755000Y-69349620D03*
X199402700Y-69349620D03*
X200055480Y-69349620D03*
M02*
