G04 #@! TF.FileFunction,Legend,Bot*
%FSLAX46Y46*%
G04 Gerber Fmt 4.6, Leading zero omitted, Abs format (unit mm)*
G04 Created by KiCad (PCBNEW 4.0.2-stable) date 01/06/2016 13:38:34*
%MOMM*%
G01*
G04 APERTURE LIST*
%ADD10C,0.100000*%
%ADD11C,0.200000*%
%ADD12C,0.250000*%
%ADD13C,0.150000*%
%ADD14C,0.635000*%
%ADD15C,0.127000*%
%ADD16C,0.200660*%
%ADD17C,0.002540*%
G04 APERTURE END LIST*
D10*
D11*
X203835000Y-139700000D02*
X203835000Y-112395000D01*
X188595000Y-112395000D02*
X188595000Y-139700000D01*
X188595000Y-123190000D02*
X203835000Y-123190000D01*
X203835000Y-139700000D02*
X188595000Y-139700000D01*
X188595000Y-112395000D02*
X203835000Y-112395000D01*
D12*
X201060238Y-119041429D02*
X200903095Y-119093810D01*
X200850714Y-119146190D01*
X200798333Y-119250952D01*
X200798333Y-119408095D01*
X200850714Y-119512857D01*
X200903095Y-119565238D01*
X201007857Y-119617619D01*
X201426904Y-119617619D01*
X201426904Y-118517619D01*
X201060238Y-118517619D01*
X200955476Y-118570000D01*
X200903095Y-118622381D01*
X200850714Y-118727143D01*
X200850714Y-118831905D01*
X200903095Y-118936667D01*
X200955476Y-118989048D01*
X201060238Y-119041429D01*
X201426904Y-119041429D01*
X200326904Y-119041429D02*
X199960238Y-119041429D01*
X199803095Y-119617619D02*
X200326904Y-119617619D01*
X200326904Y-118517619D01*
X199803095Y-118517619D01*
X197865000Y-119512857D02*
X197917381Y-119565238D01*
X198074524Y-119617619D01*
X198179286Y-119617619D01*
X198336428Y-119565238D01*
X198441190Y-119460476D01*
X198493571Y-119355714D01*
X198545952Y-119146190D01*
X198545952Y-118989048D01*
X198493571Y-118779524D01*
X198441190Y-118674762D01*
X198336428Y-118570000D01*
X198179286Y-118517619D01*
X198074524Y-118517619D01*
X197917381Y-118570000D01*
X197865000Y-118622381D01*
X197445952Y-119303333D02*
X196922143Y-119303333D01*
X197550714Y-119617619D02*
X197184047Y-118517619D01*
X196817381Y-119617619D01*
X195822143Y-119617619D02*
X196188809Y-119093810D01*
X196450714Y-119617619D02*
X196450714Y-118517619D01*
X196031667Y-118517619D01*
X195926905Y-118570000D01*
X195874524Y-118622381D01*
X195822143Y-118727143D01*
X195822143Y-118884286D01*
X195874524Y-118989048D01*
X195926905Y-119041429D01*
X196031667Y-119093810D01*
X196450714Y-119093810D01*
X195350714Y-119041429D02*
X194984048Y-119041429D01*
X194826905Y-119617619D02*
X195350714Y-119617619D01*
X195350714Y-118517619D01*
X194826905Y-118517619D01*
X193988810Y-119041429D02*
X194355476Y-119041429D01*
X194355476Y-119617619D02*
X194355476Y-118517619D01*
X193831667Y-118517619D01*
X193412619Y-118517619D02*
X193412619Y-119408095D01*
X193360238Y-119512857D01*
X193307857Y-119565238D01*
X193203095Y-119617619D01*
X192993572Y-119617619D01*
X192888810Y-119565238D01*
X192836429Y-119512857D01*
X192784048Y-119408095D01*
X192784048Y-118517619D01*
X191736429Y-119617619D02*
X192260238Y-119617619D01*
X192260238Y-118517619D01*
X190845953Y-119617619D02*
X191369762Y-119617619D01*
X191369762Y-118517619D01*
X202029285Y-121407619D02*
X202029285Y-120307619D01*
X202029285Y-120831429D02*
X201400714Y-120831429D01*
X201400714Y-121407619D02*
X201400714Y-120307619D01*
X200876904Y-121407619D02*
X200876904Y-120307619D01*
X199776904Y-120360000D02*
X199881666Y-120307619D01*
X200038809Y-120307619D01*
X200195951Y-120360000D01*
X200300713Y-120464762D01*
X200353094Y-120569524D01*
X200405475Y-120779048D01*
X200405475Y-120936190D01*
X200353094Y-121145714D01*
X200300713Y-121250476D01*
X200195951Y-121355238D01*
X200038809Y-121407619D01*
X199934047Y-121407619D01*
X199776904Y-121355238D01*
X199724523Y-121302857D01*
X199724523Y-120936190D01*
X199934047Y-120936190D01*
X199253094Y-121407619D02*
X199253094Y-120307619D01*
X199253094Y-120831429D02*
X198624523Y-120831429D01*
X198624523Y-121407619D02*
X198624523Y-120307619D01*
X197419761Y-120307619D02*
X197053094Y-121407619D01*
X196686428Y-120307619D01*
X196110237Y-120307619D02*
X195900714Y-120307619D01*
X195795952Y-120360000D01*
X195691190Y-120464762D01*
X195638809Y-120674286D01*
X195638809Y-121040952D01*
X195691190Y-121250476D01*
X195795952Y-121355238D01*
X195900714Y-121407619D01*
X196110237Y-121407619D01*
X196214999Y-121355238D01*
X196319761Y-121250476D01*
X196372142Y-121040952D01*
X196372142Y-120674286D01*
X196319761Y-120464762D01*
X196214999Y-120360000D01*
X196110237Y-120307619D01*
X194643571Y-121407619D02*
X195167380Y-121407619D01*
X195167380Y-120307619D01*
X194434047Y-120307619D02*
X193805476Y-120307619D01*
X194119761Y-121407619D02*
X194119761Y-120307619D01*
X193491190Y-121093333D02*
X192967381Y-121093333D01*
X193595952Y-121407619D02*
X193229285Y-120307619D01*
X192862619Y-121407619D01*
X191919762Y-120360000D02*
X192024524Y-120307619D01*
X192181667Y-120307619D01*
X192338809Y-120360000D01*
X192443571Y-120464762D01*
X192495952Y-120569524D01*
X192548333Y-120779048D01*
X192548333Y-120936190D01*
X192495952Y-121145714D01*
X192443571Y-121250476D01*
X192338809Y-121355238D01*
X192181667Y-121407619D01*
X192076905Y-121407619D01*
X191919762Y-121355238D01*
X191867381Y-121302857D01*
X191867381Y-120936190D01*
X192076905Y-120936190D01*
X191395952Y-120831429D02*
X191029286Y-120831429D01*
X190872143Y-121407619D02*
X191395952Y-121407619D01*
X191395952Y-120307619D01*
X190872143Y-120307619D01*
X190400714Y-121302857D02*
X190348333Y-121355238D01*
X190400714Y-121407619D01*
X190453095Y-121355238D01*
X190400714Y-121302857D01*
X190400714Y-121407619D01*
X190400714Y-120988571D02*
X190453095Y-120360000D01*
X190400714Y-120307619D01*
X190348333Y-120360000D01*
X190400714Y-120988571D01*
X190400714Y-120307619D01*
D13*
X179607383Y-67127381D02*
X179607383Y-66127381D01*
X179369288Y-66127381D01*
X179226430Y-66175000D01*
X179131192Y-66270238D01*
X179083573Y-66365476D01*
X179035954Y-66555952D01*
X179035954Y-66698810D01*
X179083573Y-66889286D01*
X179131192Y-66984524D01*
X179226430Y-67079762D01*
X179369288Y-67127381D01*
X179607383Y-67127381D01*
X178226430Y-67079762D02*
X178321668Y-67127381D01*
X178512145Y-67127381D01*
X178607383Y-67079762D01*
X178655002Y-66984524D01*
X178655002Y-66603571D01*
X178607383Y-66508333D01*
X178512145Y-66460714D01*
X178321668Y-66460714D01*
X178226430Y-66508333D01*
X178178811Y-66603571D01*
X178178811Y-66698810D01*
X178655002Y-66794048D01*
X177797859Y-67079762D02*
X177702621Y-67127381D01*
X177512145Y-67127381D01*
X177416906Y-67079762D01*
X177369287Y-66984524D01*
X177369287Y-66936905D01*
X177416906Y-66841667D01*
X177512145Y-66794048D01*
X177655002Y-66794048D01*
X177750240Y-66746429D01*
X177797859Y-66651190D01*
X177797859Y-66603571D01*
X177750240Y-66508333D01*
X177655002Y-66460714D01*
X177512145Y-66460714D01*
X177416906Y-66508333D01*
X176940716Y-67127381D02*
X176940716Y-66460714D01*
X176940716Y-66127381D02*
X176988335Y-66175000D01*
X176940716Y-66222619D01*
X176893097Y-66175000D01*
X176940716Y-66127381D01*
X176940716Y-66222619D01*
X176035954Y-66460714D02*
X176035954Y-67270238D01*
X176083573Y-67365476D01*
X176131192Y-67413095D01*
X176226431Y-67460714D01*
X176369288Y-67460714D01*
X176464526Y-67413095D01*
X176035954Y-67079762D02*
X176131192Y-67127381D01*
X176321669Y-67127381D01*
X176416907Y-67079762D01*
X176464526Y-67032143D01*
X176512145Y-66936905D01*
X176512145Y-66651190D01*
X176464526Y-66555952D01*
X176416907Y-66508333D01*
X176321669Y-66460714D01*
X176131192Y-66460714D01*
X176035954Y-66508333D01*
X175559764Y-66460714D02*
X175559764Y-67127381D01*
X175559764Y-66555952D02*
X175512145Y-66508333D01*
X175416907Y-66460714D01*
X175274049Y-66460714D01*
X175178811Y-66508333D01*
X175131192Y-66603571D01*
X175131192Y-67127381D01*
X174274049Y-67079762D02*
X174369287Y-67127381D01*
X174559764Y-67127381D01*
X174655002Y-67079762D01*
X174702621Y-66984524D01*
X174702621Y-66603571D01*
X174655002Y-66508333D01*
X174559764Y-66460714D01*
X174369287Y-66460714D01*
X174274049Y-66508333D01*
X174226430Y-66603571D01*
X174226430Y-66698810D01*
X174702621Y-66794048D01*
X173369287Y-67127381D02*
X173369287Y-66127381D01*
X173369287Y-67079762D02*
X173464525Y-67127381D01*
X173655002Y-67127381D01*
X173750240Y-67079762D01*
X173797859Y-67032143D01*
X173845478Y-66936905D01*
X173845478Y-66651190D01*
X173797859Y-66555952D01*
X173750240Y-66508333D01*
X173655002Y-66460714D01*
X173464525Y-66460714D01*
X173369287Y-66508333D01*
X172131192Y-67127381D02*
X172131192Y-66127381D01*
X172131192Y-66508333D02*
X172035954Y-66460714D01*
X171845477Y-66460714D01*
X171750239Y-66508333D01*
X171702620Y-66555952D01*
X171655001Y-66651190D01*
X171655001Y-66936905D01*
X171702620Y-67032143D01*
X171750239Y-67079762D01*
X171845477Y-67127381D01*
X172035954Y-67127381D01*
X172131192Y-67079762D01*
X171321668Y-66460714D02*
X171083573Y-67127381D01*
X170845477Y-66460714D02*
X171083573Y-67127381D01*
X171178811Y-67365476D01*
X171226430Y-67413095D01*
X171321668Y-67460714D01*
X169702620Y-67127381D02*
X169702620Y-66127381D01*
X169369286Y-66841667D01*
X169035953Y-66127381D01*
X169035953Y-67127381D01*
X168559763Y-67127381D02*
X168559763Y-66460714D01*
X168559763Y-66127381D02*
X168607382Y-66175000D01*
X168559763Y-66222619D01*
X168512144Y-66175000D01*
X168559763Y-66127381D01*
X168559763Y-66222619D01*
X167940716Y-67127381D02*
X168035954Y-67079762D01*
X168083573Y-66984524D01*
X168083573Y-66127381D01*
X167131191Y-67127381D02*
X167131191Y-66603571D01*
X167178810Y-66508333D01*
X167274048Y-66460714D01*
X167464525Y-66460714D01*
X167559763Y-66508333D01*
X167131191Y-67079762D02*
X167226429Y-67127381D01*
X167464525Y-67127381D01*
X167559763Y-67079762D01*
X167607382Y-66984524D01*
X167607382Y-66889286D01*
X167559763Y-66794048D01*
X167464525Y-66746429D01*
X167226429Y-66746429D01*
X167131191Y-66698810D01*
X166750239Y-66460714D02*
X166226429Y-66460714D01*
X166750239Y-67127381D01*
X166226429Y-67127381D01*
X165940715Y-66460714D02*
X165416905Y-66460714D01*
X165940715Y-67127381D01*
X165416905Y-67127381D01*
X164893096Y-67127381D02*
X164988334Y-67079762D01*
X165035953Y-67032143D01*
X165083572Y-66936905D01*
X165083572Y-66651190D01*
X165035953Y-66555952D01*
X164988334Y-66508333D01*
X164893096Y-66460714D01*
X164750238Y-66460714D01*
X164655000Y-66508333D01*
X164607381Y-66555952D01*
X164559762Y-66651190D01*
X164559762Y-66936905D01*
X164607381Y-67032143D01*
X164655000Y-67079762D01*
X164750238Y-67127381D01*
X164893096Y-67127381D01*
X162559762Y-67127381D02*
X162607381Y-67127381D01*
X162702619Y-67079762D01*
X162845476Y-66936905D01*
X163083571Y-66651190D01*
X163178810Y-66508333D01*
X163226429Y-66365476D01*
X163226429Y-66270238D01*
X163178810Y-66175000D01*
X163083571Y-66127381D01*
X163035952Y-66127381D01*
X162940714Y-66175000D01*
X162893095Y-66270238D01*
X162893095Y-66317857D01*
X162940714Y-66413095D01*
X162988333Y-66460714D01*
X163274048Y-66651190D01*
X163321667Y-66698810D01*
X163369286Y-66794048D01*
X163369286Y-66936905D01*
X163321667Y-67032143D01*
X163274048Y-67079762D01*
X163178810Y-67127381D01*
X163035952Y-67127381D01*
X162940714Y-67079762D01*
X162893095Y-67032143D01*
X162750238Y-66841667D01*
X162702619Y-66698810D01*
X162702619Y-66603571D01*
X161369286Y-67127381D02*
X161369286Y-66127381D01*
X161035952Y-66841667D01*
X160702619Y-66127381D01*
X160702619Y-67127381D01*
X160083572Y-67127381D02*
X160178810Y-67079762D01*
X160226429Y-67032143D01*
X160274048Y-66936905D01*
X160274048Y-66651190D01*
X160226429Y-66555952D01*
X160178810Y-66508333D01*
X160083572Y-66460714D01*
X159940714Y-66460714D01*
X159845476Y-66508333D01*
X159797857Y-66555952D01*
X159750238Y-66651190D01*
X159750238Y-66936905D01*
X159797857Y-67032143D01*
X159845476Y-67079762D01*
X159940714Y-67127381D01*
X160083572Y-67127381D01*
X158893095Y-67079762D02*
X158988333Y-67127381D01*
X159178810Y-67127381D01*
X159274048Y-67079762D01*
X159321667Y-67032143D01*
X159369286Y-66936905D01*
X159369286Y-66651190D01*
X159321667Y-66555952D01*
X159274048Y-66508333D01*
X159178810Y-66460714D01*
X158988333Y-66460714D01*
X158893095Y-66508333D01*
X158083571Y-67079762D02*
X158178809Y-67127381D01*
X158369286Y-67127381D01*
X158464524Y-67079762D01*
X158512143Y-66984524D01*
X158512143Y-66603571D01*
X158464524Y-66508333D01*
X158369286Y-66460714D01*
X158178809Y-66460714D01*
X158083571Y-66508333D01*
X158035952Y-66603571D01*
X158035952Y-66698810D01*
X158512143Y-66794048D01*
X157607381Y-67127381D02*
X157607381Y-66460714D01*
X157607381Y-66651190D02*
X157559762Y-66555952D01*
X157512143Y-66508333D01*
X157416905Y-66460714D01*
X157321666Y-66460714D01*
X156988333Y-67127381D02*
X156988333Y-66460714D01*
X156988333Y-66127381D02*
X157035952Y-66175000D01*
X156988333Y-66222619D01*
X156940714Y-66175000D01*
X156988333Y-66127381D01*
X156988333Y-66222619D01*
X155750238Y-66603571D02*
X155416904Y-66603571D01*
X155274047Y-67127381D02*
X155750238Y-67127381D01*
X155750238Y-66127381D01*
X155274047Y-66127381D01*
X154702619Y-67127381D02*
X154797857Y-67079762D01*
X154845476Y-66984524D01*
X154845476Y-66127381D01*
X153940713Y-67079762D02*
X154035951Y-67127381D01*
X154226428Y-67127381D01*
X154321666Y-67079762D01*
X154369285Y-66984524D01*
X154369285Y-66603571D01*
X154321666Y-66508333D01*
X154226428Y-66460714D01*
X154035951Y-66460714D01*
X153940713Y-66508333D01*
X153893094Y-66603571D01*
X153893094Y-66698810D01*
X154369285Y-66794048D01*
X153035951Y-67079762D02*
X153131189Y-67127381D01*
X153321666Y-67127381D01*
X153416904Y-67079762D01*
X153464523Y-67032143D01*
X153512142Y-66936905D01*
X153512142Y-66651190D01*
X153464523Y-66555952D01*
X153416904Y-66508333D01*
X153321666Y-66460714D01*
X153131189Y-66460714D01*
X153035951Y-66508333D01*
X152750237Y-66460714D02*
X152369285Y-66460714D01*
X152607380Y-66127381D02*
X152607380Y-66984524D01*
X152559761Y-67079762D01*
X152464523Y-67127381D01*
X152369285Y-67127381D01*
X151893094Y-67127381D02*
X151988332Y-67079762D01*
X152035951Y-67032143D01*
X152083570Y-66936905D01*
X152083570Y-66651190D01*
X152035951Y-66555952D01*
X151988332Y-66508333D01*
X151893094Y-66460714D01*
X151750236Y-66460714D01*
X151654998Y-66508333D01*
X151607379Y-66555952D01*
X151559760Y-66651190D01*
X151559760Y-66936905D01*
X151607379Y-67032143D01*
X151654998Y-67079762D01*
X151750236Y-67127381D01*
X151893094Y-67127381D01*
X151131189Y-66460714D02*
X151131189Y-67127381D01*
X151131189Y-66555952D02*
X151083570Y-66508333D01*
X150988332Y-66460714D01*
X150845474Y-66460714D01*
X150750236Y-66508333D01*
X150702617Y-66603571D01*
X150702617Y-67127381D01*
X150226427Y-67127381D02*
X150226427Y-66460714D01*
X150226427Y-66127381D02*
X150274046Y-66175000D01*
X150226427Y-66222619D01*
X150178808Y-66175000D01*
X150226427Y-66127381D01*
X150226427Y-66222619D01*
X149321665Y-67079762D02*
X149416903Y-67127381D01*
X149607380Y-67127381D01*
X149702618Y-67079762D01*
X149750237Y-67032143D01*
X149797856Y-66936905D01*
X149797856Y-66651190D01*
X149750237Y-66555952D01*
X149702618Y-66508333D01*
X149607380Y-66460714D01*
X149416903Y-66460714D01*
X149321665Y-66508333D01*
X148940713Y-67079762D02*
X148845475Y-67127381D01*
X148654999Y-67127381D01*
X148559760Y-67079762D01*
X148512141Y-66984524D01*
X148512141Y-66936905D01*
X148559760Y-66841667D01*
X148654999Y-66794048D01*
X148797856Y-66794048D01*
X148893094Y-66746429D01*
X148940713Y-66651190D01*
X148940713Y-66603571D01*
X148893094Y-66508333D01*
X148797856Y-66460714D01*
X148654999Y-66460714D01*
X148559760Y-66508333D01*
X147369284Y-67079762D02*
X147226427Y-67127381D01*
X146988331Y-67127381D01*
X146893093Y-67079762D01*
X146845474Y-67032143D01*
X146797855Y-66936905D01*
X146797855Y-66841667D01*
X146845474Y-66746429D01*
X146893093Y-66698810D01*
X146988331Y-66651190D01*
X147178808Y-66603571D01*
X147274046Y-66555952D01*
X147321665Y-66508333D01*
X147369284Y-66413095D01*
X147369284Y-66317857D01*
X147321665Y-66222619D01*
X147274046Y-66175000D01*
X147178808Y-66127381D01*
X146940712Y-66127381D01*
X146797855Y-66175000D01*
X146464522Y-66460714D02*
X146226427Y-67127381D01*
X145988331Y-66460714D02*
X146226427Y-67127381D01*
X146321665Y-67365476D01*
X146369284Y-67413095D01*
X146464522Y-67460714D01*
X145654998Y-67079762D02*
X145559760Y-67127381D01*
X145369284Y-67127381D01*
X145274045Y-67079762D01*
X145226426Y-66984524D01*
X145226426Y-66936905D01*
X145274045Y-66841667D01*
X145369284Y-66794048D01*
X145512141Y-66794048D01*
X145607379Y-66746429D01*
X145654998Y-66651190D01*
X145654998Y-66603571D01*
X145607379Y-66508333D01*
X145512141Y-66460714D01*
X145369284Y-66460714D01*
X145274045Y-66508333D01*
X144940712Y-66460714D02*
X144559760Y-66460714D01*
X144797855Y-66127381D02*
X144797855Y-66984524D01*
X144750236Y-67079762D01*
X144654998Y-67127381D01*
X144559760Y-67127381D01*
X143845473Y-67079762D02*
X143940711Y-67127381D01*
X144131188Y-67127381D01*
X144226426Y-67079762D01*
X144274045Y-66984524D01*
X144274045Y-66603571D01*
X144226426Y-66508333D01*
X144131188Y-66460714D01*
X143940711Y-66460714D01*
X143845473Y-66508333D01*
X143797854Y-66603571D01*
X143797854Y-66698810D01*
X144274045Y-66794048D01*
X143369283Y-67127381D02*
X143369283Y-66460714D01*
X143369283Y-66555952D02*
X143321664Y-66508333D01*
X143226426Y-66460714D01*
X143083568Y-66460714D01*
X142988330Y-66508333D01*
X142940711Y-66603571D01*
X142940711Y-67127381D01*
X142940711Y-66603571D02*
X142893092Y-66508333D01*
X142797854Y-66460714D01*
X142654997Y-66460714D01*
X142559759Y-66508333D01*
X142512140Y-66603571D01*
X142512140Y-67127381D01*
X142083569Y-67079762D02*
X141988331Y-67127381D01*
X141797855Y-67127381D01*
X141702616Y-67079762D01*
X141654997Y-66984524D01*
X141654997Y-66936905D01*
X141702616Y-66841667D01*
X141797855Y-66794048D01*
X141940712Y-66794048D01*
X142035950Y-66746429D01*
X142083569Y-66651190D01*
X142083569Y-66603571D01*
X142035950Y-66508333D01*
X141940712Y-66460714D01*
X141797855Y-66460714D01*
X141702616Y-66508333D01*
X149947381Y-74961905D02*
X149947381Y-75580953D01*
X150328333Y-75247619D01*
X150328333Y-75390477D01*
X150375952Y-75485715D01*
X150423571Y-75533334D01*
X150518810Y-75580953D01*
X150756905Y-75580953D01*
X150852143Y-75533334D01*
X150899762Y-75485715D01*
X150947381Y-75390477D01*
X150947381Y-75104762D01*
X150899762Y-75009524D01*
X150852143Y-74961905D01*
X149947381Y-75866667D02*
X150947381Y-76200000D01*
X149947381Y-76533334D01*
X149947381Y-76771429D02*
X149947381Y-77390477D01*
X150328333Y-77057143D01*
X150328333Y-77200001D01*
X150375952Y-77295239D01*
X150423571Y-77342858D01*
X150518810Y-77390477D01*
X150756905Y-77390477D01*
X150852143Y-77342858D01*
X150899762Y-77295239D01*
X150947381Y-77200001D01*
X150947381Y-76914286D01*
X150899762Y-76819048D01*
X150852143Y-76771429D01*
X135342381Y-76009524D02*
X135342381Y-75533333D01*
X135818571Y-75485714D01*
X135770952Y-75533333D01*
X135723333Y-75628571D01*
X135723333Y-75866667D01*
X135770952Y-75961905D01*
X135818571Y-76009524D01*
X135913810Y-76057143D01*
X136151905Y-76057143D01*
X136247143Y-76009524D01*
X136294762Y-75961905D01*
X136342381Y-75866667D01*
X136342381Y-75628571D01*
X136294762Y-75533333D01*
X136247143Y-75485714D01*
X135342381Y-76342857D02*
X136342381Y-76676190D01*
X135342381Y-77009524D01*
X191698571Y-99544047D02*
X191746190Y-99401190D01*
X191793810Y-99353571D01*
X191889048Y-99305952D01*
X192031905Y-99305952D01*
X192127143Y-99353571D01*
X192174762Y-99401190D01*
X192222381Y-99496428D01*
X192222381Y-99877381D01*
X191222381Y-99877381D01*
X191222381Y-99544047D01*
X191270000Y-99448809D01*
X191317619Y-99401190D01*
X191412857Y-99353571D01*
X191508095Y-99353571D01*
X191603333Y-99401190D01*
X191650952Y-99448809D01*
X191698571Y-99544047D01*
X191698571Y-99877381D01*
X191936667Y-98925000D02*
X191936667Y-98448809D01*
X192222381Y-99020238D02*
X191222381Y-98686905D01*
X192222381Y-98353571D01*
X191222381Y-98163095D02*
X191222381Y-97591666D01*
X192222381Y-97877381D02*
X191222381Y-97877381D01*
X191222381Y-97401190D02*
X191222381Y-96829761D01*
X192222381Y-97115476D02*
X191222381Y-97115476D01*
D14*
X113483571Y-77772381D02*
X113483571Y-79707619D01*
X113483571Y-72692381D02*
X113483571Y-74627619D01*
X112515952Y-73660000D02*
X114451190Y-73660000D01*
D13*
X160020000Y-99314000D02*
X153670000Y-99314000D01*
X160020000Y-99314000D02*
X160020000Y-96266000D01*
X160020000Y-96266000D02*
X153670000Y-96266000D01*
X156425000Y-128405000D02*
X156425000Y-129405000D01*
X154725000Y-129405000D02*
X154725000Y-128405000D01*
X123960000Y-102020000D02*
X124960000Y-102020000D01*
X124960000Y-103720000D02*
X123960000Y-103720000D01*
X167220000Y-128405000D02*
X167220000Y-129405000D01*
X165520000Y-129405000D02*
X165520000Y-128405000D01*
X178015000Y-128405000D02*
X178015000Y-129405000D01*
X176315000Y-129405000D02*
X176315000Y-128405000D01*
X157900000Y-111625000D02*
X157900000Y-110625000D01*
X159600000Y-110625000D02*
X159600000Y-111625000D01*
X176395000Y-84035000D02*
X175395000Y-84035000D01*
X175395000Y-82335000D02*
X176395000Y-82335000D01*
X198335000Y-86495000D02*
X198335000Y-87495000D01*
X196635000Y-87495000D02*
X196635000Y-86495000D01*
X167425000Y-103370000D02*
X167425000Y-102370000D01*
X169125000Y-102370000D02*
X169125000Y-103370000D01*
X153170000Y-100115000D02*
X154170000Y-100115000D01*
X154170000Y-101815000D02*
X153170000Y-101815000D01*
X153170000Y-93765000D02*
X154170000Y-93765000D01*
X154170000Y-95465000D02*
X153170000Y-95465000D01*
X189365000Y-75985000D02*
X190365000Y-75985000D01*
X190365000Y-77685000D02*
X189365000Y-77685000D01*
X187190000Y-85940000D02*
X186190000Y-85940000D01*
X186190000Y-84240000D02*
X187190000Y-84240000D01*
X166235000Y-84035000D02*
X165235000Y-84035000D01*
X165235000Y-82335000D02*
X166235000Y-82335000D01*
X177970000Y-86325000D02*
X177970000Y-86470000D01*
X173820000Y-86325000D02*
X173820000Y-86470000D01*
X173820000Y-91475000D02*
X173820000Y-91330000D01*
X177970000Y-91475000D02*
X177970000Y-91330000D01*
X177970000Y-86325000D02*
X173820000Y-86325000D01*
X177970000Y-91475000D02*
X173820000Y-91475000D01*
X177970000Y-86470000D02*
X179370000Y-86470000D01*
X167810000Y-86325000D02*
X167810000Y-86470000D01*
X163660000Y-86325000D02*
X163660000Y-86470000D01*
X163660000Y-91475000D02*
X163660000Y-91330000D01*
X167810000Y-91475000D02*
X167810000Y-91330000D01*
X167810000Y-86325000D02*
X163660000Y-86325000D01*
X167810000Y-91475000D02*
X163660000Y-91475000D01*
X167810000Y-86470000D02*
X169210000Y-86470000D01*
X190895000Y-67345000D02*
X190895000Y-68545000D01*
X192645000Y-68545000D02*
X192645000Y-67345000D01*
X197514160Y-109870240D02*
X197465900Y-109870240D01*
X194715180Y-109169200D02*
X194715180Y-109870240D01*
X194715180Y-109870240D02*
X194964100Y-109870240D01*
X197514160Y-109870240D02*
X197714820Y-109870240D01*
X197714820Y-109870240D02*
X197714820Y-109169200D01*
X137779760Y-103534160D02*
X137779760Y-103485900D01*
X138480800Y-100735180D02*
X137779760Y-100735180D01*
X137779760Y-100735180D02*
X137779760Y-100984100D01*
X137779760Y-103534160D02*
X137779760Y-103734820D01*
X137779760Y-103734820D02*
X138480800Y-103734820D01*
X166340840Y-76819760D02*
X166389100Y-76819760D01*
X169139820Y-77520800D02*
X169139820Y-76819760D01*
X169139820Y-76819760D02*
X168890900Y-76819760D01*
X166340840Y-76819760D02*
X166140180Y-76819760D01*
X166140180Y-76819760D02*
X166140180Y-77520800D01*
X186020000Y-136920000D02*
X184820000Y-136920000D01*
X184820000Y-138670000D02*
X186020000Y-138670000D01*
X186020000Y-130570000D02*
X184820000Y-130570000D01*
X184820000Y-132320000D02*
X186020000Y-132320000D01*
X143750000Y-139030000D02*
X143750000Y-137830000D01*
X142000000Y-137830000D02*
X142000000Y-139030000D01*
X186020000Y-124220000D02*
X184820000Y-124220000D01*
X184820000Y-125970000D02*
X186020000Y-125970000D01*
X186020000Y-117870000D02*
X184820000Y-117870000D01*
X184820000Y-119620000D02*
X186020000Y-119620000D01*
X200695000Y-110095000D02*
X201895000Y-110095000D01*
X201895000Y-108345000D02*
X200695000Y-108345000D01*
X153275000Y-139030000D02*
X153275000Y-137830000D01*
X151525000Y-137830000D02*
X151525000Y-139030000D01*
X136920000Y-96555000D02*
X136920000Y-97755000D01*
X138670000Y-97755000D02*
X138670000Y-96555000D01*
X140730000Y-101635000D02*
X140730000Y-102835000D01*
X142480000Y-102835000D02*
X142480000Y-101635000D01*
X125695000Y-95010000D02*
X124495000Y-95010000D01*
X124495000Y-96760000D02*
X125695000Y-96760000D01*
X158990000Y-72990000D02*
X158990000Y-71790000D01*
X157240000Y-71790000D02*
X157240000Y-72990000D01*
X162800000Y-139030000D02*
X162800000Y-137830000D01*
X161050000Y-137830000D02*
X161050000Y-139030000D01*
X122795000Y-136490000D02*
X122795000Y-135290000D01*
X121045000Y-135290000D02*
X121045000Y-136490000D01*
X125335000Y-136490000D02*
X125335000Y-135290000D01*
X123585000Y-135290000D02*
X123585000Y-136490000D01*
X132955000Y-136490000D02*
X132955000Y-135290000D01*
X131205000Y-135290000D02*
X131205000Y-136490000D01*
X135495000Y-136490000D02*
X135495000Y-135290000D01*
X133745000Y-135290000D02*
X133745000Y-136490000D01*
X162800000Y-72990000D02*
X162800000Y-71790000D01*
X161050000Y-71790000D02*
X161050000Y-72990000D01*
X172325000Y-139030000D02*
X172325000Y-137830000D01*
X170575000Y-137830000D02*
X170575000Y-139030000D01*
X186090000Y-91045000D02*
X187290000Y-91045000D01*
X187290000Y-89295000D02*
X186090000Y-89295000D01*
X186090000Y-88505000D02*
X187290000Y-88505000D01*
X187290000Y-86755000D02*
X186090000Y-86755000D01*
X164705000Y-103470000D02*
X164705000Y-102270000D01*
X162955000Y-102270000D02*
X162955000Y-103470000D01*
X159145000Y-102270000D02*
X159145000Y-103470000D01*
X160895000Y-103470000D02*
X160895000Y-102270000D01*
X173320000Y-76595000D02*
X172120000Y-76595000D01*
X172120000Y-78345000D02*
X173320000Y-78345000D01*
X138049000Y-77724000D02*
X141097000Y-77724000D01*
X141097000Y-77724000D02*
X141097000Y-84836000D01*
X141097000Y-84836000D02*
X138049000Y-84836000D01*
X135001000Y-77724000D02*
X134239000Y-77724000D01*
X134239000Y-77724000D02*
X131953000Y-79248000D01*
X131953000Y-79248000D02*
X131953000Y-83312000D01*
X131953000Y-83312000D02*
X134239000Y-84836000D01*
X134239000Y-84836000D02*
X135001000Y-84836000D01*
X148336000Y-84836000D02*
X145288000Y-84836000D01*
X145288000Y-84836000D02*
X145288000Y-77724000D01*
X145288000Y-77724000D02*
X148336000Y-77724000D01*
X151384000Y-84836000D02*
X152146000Y-84836000D01*
X152146000Y-84836000D02*
X154432000Y-83312000D01*
X154432000Y-83312000D02*
X154432000Y-79248000D01*
X154432000Y-79248000D02*
X152146000Y-77724000D01*
X152146000Y-77724000D02*
X151384000Y-77724000D01*
X178265000Y-81315000D02*
X178265000Y-81170000D01*
X182415000Y-81315000D02*
X182415000Y-81170000D01*
X182415000Y-76165000D02*
X182415000Y-76310000D01*
X178265000Y-76165000D02*
X178265000Y-76310000D01*
X178265000Y-81315000D02*
X182415000Y-81315000D01*
X178265000Y-76165000D02*
X182415000Y-76165000D01*
X178265000Y-81170000D02*
X176865000Y-81170000D01*
X163660000Y-99095000D02*
X163660000Y-98950000D01*
X167810000Y-99095000D02*
X167810000Y-98950000D01*
X167810000Y-93945000D02*
X167810000Y-94090000D01*
X163660000Y-93945000D02*
X163660000Y-94090000D01*
X163660000Y-99095000D02*
X167810000Y-99095000D01*
X163660000Y-93945000D02*
X167810000Y-93945000D01*
X163660000Y-98950000D02*
X162260000Y-98950000D01*
D15*
X189626240Y-111218980D02*
X189626240Y-107221020D01*
X189524640Y-107221020D02*
X189524640Y-111218980D01*
X189425580Y-111218980D02*
X189425580Y-107221020D01*
X189323980Y-107221020D02*
X189323980Y-111218980D01*
X189224920Y-111218980D02*
X189224920Y-107221020D01*
X189125860Y-111218980D02*
X189125860Y-107221020D01*
X189725300Y-111218980D02*
X189725300Y-107221020D01*
X189725300Y-107221020D02*
X184924700Y-107221020D01*
X184924700Y-107221020D02*
X184924700Y-111218980D01*
X184924700Y-111218980D02*
X189725300Y-111218980D01*
X192166240Y-82643980D02*
X192166240Y-78646020D01*
X192064640Y-78646020D02*
X192064640Y-82643980D01*
X191965580Y-82643980D02*
X191965580Y-78646020D01*
X191863980Y-78646020D02*
X191863980Y-82643980D01*
X191764920Y-82643980D02*
X191764920Y-78646020D01*
X191665860Y-82643980D02*
X191665860Y-78646020D01*
X192265300Y-82643980D02*
X192265300Y-78646020D01*
X192265300Y-78646020D02*
X187464700Y-78646020D01*
X187464700Y-78646020D02*
X187464700Y-82643980D01*
X187464700Y-82643980D02*
X192265300Y-82643980D01*
X173593760Y-93886020D02*
X173593760Y-97883980D01*
X173695360Y-97883980D02*
X173695360Y-93886020D01*
X173794420Y-93886020D02*
X173794420Y-97883980D01*
X173896020Y-97883980D02*
X173896020Y-93886020D01*
X173995080Y-93886020D02*
X173995080Y-97883980D01*
X174094140Y-93886020D02*
X174094140Y-97883980D01*
X173494700Y-93886020D02*
X173494700Y-97883980D01*
X173494700Y-97883980D02*
X178295300Y-97883980D01*
X178295300Y-97883980D02*
X178295300Y-93886020D01*
X178295300Y-93886020D02*
X173494700Y-93886020D01*
X173593760Y-100236020D02*
X173593760Y-104233980D01*
X173695360Y-104233980D02*
X173695360Y-100236020D01*
X173794420Y-100236020D02*
X173794420Y-104233980D01*
X173896020Y-104233980D02*
X173896020Y-100236020D01*
X173995080Y-100236020D02*
X173995080Y-104233980D01*
X174094140Y-100236020D02*
X174094140Y-104233980D01*
X173494700Y-100236020D02*
X173494700Y-104233980D01*
X173494700Y-104233980D02*
X178295300Y-104233980D01*
X178295300Y-104233980D02*
X178295300Y-100236020D01*
X178295300Y-100236020D02*
X173494700Y-100236020D01*
D13*
X193929000Y-97815400D02*
X193700400Y-96570800D01*
X193700400Y-96570800D02*
X193192400Y-95326200D01*
X193192400Y-95326200D02*
X192328800Y-94361000D01*
X192328800Y-94361000D02*
X191668400Y-93700600D01*
X191668400Y-93700600D02*
X191414400Y-93141800D01*
X193954400Y-98425000D02*
X193929000Y-97815400D01*
X193192400Y-101523800D02*
X192328800Y-102489000D01*
X192328800Y-102489000D02*
X191668400Y-103149400D01*
X191414400Y-103708200D02*
X191668400Y-103149400D01*
X193192400Y-101523800D02*
X193700400Y-100279200D01*
X193700400Y-100279200D02*
X193929000Y-99034600D01*
X193929000Y-99034600D02*
X193954400Y-98425000D01*
X191414400Y-93141800D02*
G75*
G02X192735200Y-91821000I1320800J0D01*
G01*
X192735200Y-105029000D02*
G75*
G02X191414400Y-103708200I0J1320800D01*
G01*
X200279000Y-91821000D02*
X192786000Y-91821000D01*
X200279000Y-105029000D02*
X192786000Y-105029000D01*
X202819000Y-94424500D02*
X200279000Y-91821000D01*
X202819000Y-102425500D02*
X200279000Y-105029000D01*
X203581000Y-94425500D02*
X202819000Y-94425500D01*
X203581000Y-102425500D02*
X202819000Y-102425500D01*
X203581000Y-102425500D02*
X203581000Y-94424500D01*
D16*
X194553840Y-64676020D02*
X202956160Y-64676020D01*
X194553840Y-64574420D02*
X202956160Y-64574420D01*
X202956160Y-64574420D02*
X202956160Y-64775080D01*
X202956160Y-64775080D02*
X194553840Y-64775080D01*
X194553840Y-64775080D02*
X194553840Y-64574420D01*
D13*
X194856100Y-64574420D02*
X194856100Y-69575680D01*
X194856100Y-69575680D02*
X202653900Y-69575680D01*
X202653900Y-69575680D02*
X202653900Y-64574420D01*
D17*
G36*
X191216280Y-133896100D02*
X191218820Y-133995160D01*
X191231520Y-134094220D01*
X191254380Y-134183120D01*
X191295020Y-134259320D01*
X191317880Y-134289800D01*
X191340740Y-134317740D01*
X191368680Y-134340600D01*
X191401700Y-134360920D01*
X191439800Y-134381240D01*
X191523620Y-134419340D01*
X191993520Y-134419340D01*
X191993520Y-133784340D01*
X192001140Y-133769100D01*
X192016380Y-133743700D01*
X192039240Y-133705600D01*
X192067180Y-133659880D01*
X192084960Y-133634480D01*
X192102740Y-133606540D01*
X192115440Y-133583680D01*
X192130680Y-133560820D01*
X192143380Y-133540500D01*
X192158620Y-133517640D01*
X192173860Y-133494780D01*
X192189100Y-133466840D01*
X192209420Y-133433820D01*
X192234820Y-133393180D01*
X192262760Y-133347460D01*
X192295780Y-133291580D01*
X192336420Y-133225540D01*
X192382140Y-133146800D01*
X192438020Y-133055360D01*
X192501520Y-132948680D01*
X192567560Y-132836920D01*
X192625980Y-132742940D01*
X192679320Y-132651500D01*
X192730120Y-132567680D01*
X192775840Y-132491480D01*
X192816480Y-132422900D01*
X192852040Y-132367020D01*
X192877440Y-132323840D01*
X192895220Y-132293360D01*
X192905380Y-132278120D01*
X192915540Y-132257800D01*
X192935860Y-132224780D01*
X192963800Y-132181600D01*
X192994280Y-132128260D01*
X193027300Y-132072380D01*
X193045080Y-132041900D01*
X193088260Y-131970780D01*
X193136520Y-131892040D01*
X193184780Y-131810760D01*
X193227960Y-131734560D01*
X193268600Y-131668520D01*
X193268600Y-131665980D01*
X193306700Y-131605020D01*
X193344800Y-131538980D01*
X193380360Y-131478020D01*
X193413380Y-131424680D01*
X193436240Y-131386580D01*
X193461640Y-131343400D01*
X193494660Y-131290060D01*
X193530220Y-131226560D01*
X193568320Y-131160520D01*
X193606420Y-131097020D01*
X193608960Y-131094480D01*
X193649600Y-131025900D01*
X193695320Y-130947160D01*
X193746120Y-130863340D01*
X193794380Y-130782060D01*
X193837560Y-130710940D01*
X193878200Y-130642360D01*
X193923920Y-130561080D01*
X193974720Y-130477260D01*
X194025520Y-130390900D01*
X194073780Y-130309620D01*
X194096640Y-130274060D01*
X194139820Y-130197860D01*
X194190620Y-130116580D01*
X194241420Y-130030220D01*
X194289680Y-129948940D01*
X194332860Y-129875280D01*
X194350640Y-129844800D01*
X194386200Y-129786380D01*
X194419220Y-129733040D01*
X194447160Y-129684780D01*
X194470020Y-129646680D01*
X194485260Y-129621280D01*
X194487800Y-129616200D01*
X194500500Y-129595880D01*
X194520820Y-129560320D01*
X194546220Y-129517140D01*
X194576700Y-129466340D01*
X194599560Y-129430780D01*
X194630040Y-129377440D01*
X194657980Y-129329180D01*
X194683380Y-129288540D01*
X194701160Y-129258060D01*
X194708780Y-129245360D01*
X194718940Y-129225040D01*
X194739260Y-129192020D01*
X194767200Y-129148840D01*
X194797680Y-129095500D01*
X194830700Y-129039620D01*
X194845940Y-129014220D01*
X194889120Y-128943100D01*
X194937380Y-128861820D01*
X194988180Y-128775460D01*
X195038980Y-128691640D01*
X195082160Y-128615440D01*
X195084700Y-128612900D01*
X195122800Y-128551940D01*
X195155820Y-128493520D01*
X195188840Y-128440180D01*
X195214240Y-128394460D01*
X195234560Y-128363980D01*
X195239640Y-128353820D01*
X195257420Y-128323340D01*
X195285360Y-128277620D01*
X195320920Y-128219200D01*
X195361560Y-128148080D01*
X195409820Y-128069340D01*
X195463160Y-127980440D01*
X195519040Y-127886460D01*
X195577460Y-127789940D01*
X195638420Y-127690880D01*
X195696840Y-127591820D01*
X195755260Y-127495300D01*
X195813680Y-127401320D01*
X195867020Y-127314960D01*
X195915280Y-127233680D01*
X195958460Y-127162560D01*
X195996560Y-127101600D01*
X196001640Y-127096520D01*
X196039740Y-127030480D01*
X196080380Y-126969520D01*
X196118480Y-126908560D01*
X196154040Y-126855220D01*
X196187060Y-126809500D01*
X196209920Y-126773940D01*
X196225160Y-126748540D01*
X196235320Y-126740920D01*
X196240400Y-126748540D01*
X196258180Y-126773940D01*
X196283580Y-126812040D01*
X196316600Y-126867920D01*
X196357240Y-126933960D01*
X196405500Y-127012700D01*
X196458840Y-127104140D01*
X196519800Y-127203200D01*
X196585840Y-127312420D01*
X196654420Y-127431800D01*
X196730620Y-127556260D01*
X196806820Y-127685800D01*
X196888100Y-127820420D01*
X196928740Y-127891540D01*
X196943980Y-127914400D01*
X196966840Y-127952500D01*
X196994780Y-128000760D01*
X197030340Y-128059180D01*
X197065900Y-128122680D01*
X197104000Y-128188720D01*
X197274180Y-128473200D01*
X197436740Y-128744980D01*
X197591680Y-129006600D01*
X197741540Y-129260600D01*
X197886320Y-129506980D01*
X198031100Y-129753360D01*
X198071740Y-129821940D01*
X198109840Y-129882900D01*
X198145400Y-129943860D01*
X198178420Y-129999740D01*
X198206360Y-130045460D01*
X198226680Y-130081020D01*
X198231760Y-130091180D01*
X198249540Y-130119120D01*
X198274940Y-130162300D01*
X198305420Y-130213100D01*
X198340980Y-130271520D01*
X198379080Y-130337560D01*
X198407020Y-130383280D01*
X198445120Y-130449320D01*
X198483220Y-130512820D01*
X198518780Y-130571240D01*
X198549260Y-130622040D01*
X198572120Y-130660140D01*
X198582280Y-130680460D01*
X198605140Y-130716020D01*
X198633080Y-130761740D01*
X198663560Y-130815080D01*
X198694040Y-130868420D01*
X198699120Y-130876040D01*
X198747380Y-130957320D01*
X198795640Y-131041140D01*
X198843900Y-131122420D01*
X198889620Y-131201160D01*
X198932800Y-131269740D01*
X198965820Y-131325620D01*
X198978520Y-131345940D01*
X199003920Y-131389120D01*
X199029320Y-131434840D01*
X199052180Y-131472940D01*
X199054720Y-131475480D01*
X199067420Y-131500880D01*
X199092820Y-131541520D01*
X199125840Y-131597400D01*
X199169020Y-131671060D01*
X199219820Y-131757420D01*
X199278240Y-131859020D01*
X199346820Y-131973320D01*
X199420480Y-132097780D01*
X199504300Y-132237480D01*
X199593200Y-132387340D01*
X199595740Y-132392420D01*
X199641460Y-132471160D01*
X199689720Y-132554980D01*
X199740520Y-132641340D01*
X199788780Y-132722620D01*
X199831960Y-132796280D01*
X199859900Y-132839460D01*
X199898000Y-132902960D01*
X199936100Y-132971540D01*
X199974200Y-133035040D01*
X200007220Y-133093460D01*
X200035160Y-133139180D01*
X200040240Y-133144260D01*
X200068180Y-133192520D01*
X200096120Y-133240780D01*
X200118980Y-133281420D01*
X200136760Y-133309360D01*
X200177400Y-133380480D01*
X200218040Y-133449060D01*
X200258680Y-133517640D01*
X200296780Y-133583680D01*
X200332340Y-133642100D01*
X200362820Y-133692900D01*
X200385680Y-133733540D01*
X200403460Y-133761480D01*
X200411080Y-133774180D01*
X200413620Y-133774180D01*
X200421240Y-133789420D01*
X200421240Y-133791960D01*
X200411080Y-133791960D01*
X200383140Y-133794500D01*
X200334880Y-133794500D01*
X200268840Y-133794500D01*
X200185020Y-133794500D01*
X200083420Y-133797040D01*
X199969120Y-133797040D01*
X199837040Y-133797040D01*
X199689720Y-133797040D01*
X199529700Y-133797040D01*
X199354440Y-133797040D01*
X199166480Y-133797040D01*
X198968360Y-133799580D01*
X198757540Y-133799580D01*
X198534020Y-133799580D01*
X198302880Y-133799580D01*
X198061580Y-133799580D01*
X197810120Y-133799580D01*
X197551040Y-133799580D01*
X197286880Y-133799580D01*
X197012560Y-133799580D01*
X196733160Y-133799580D01*
X196446140Y-133799580D01*
X196204840Y-133799580D01*
X195856860Y-133799580D01*
X195529200Y-133799580D01*
X195221860Y-133799580D01*
X194932300Y-133799580D01*
X194657980Y-133799580D01*
X194403980Y-133799580D01*
X194165220Y-133799580D01*
X193941700Y-133799580D01*
X193733420Y-133799580D01*
X193542920Y-133799580D01*
X193365120Y-133799580D01*
X193202560Y-133799580D01*
X193050160Y-133799580D01*
X192913000Y-133799580D01*
X192788540Y-133799580D01*
X192674240Y-133797040D01*
X192572640Y-133797040D01*
X192481200Y-133797040D01*
X192399920Y-133797040D01*
X192326260Y-133797040D01*
X192262760Y-133797040D01*
X192206880Y-133794500D01*
X192161160Y-133794500D01*
X192120520Y-133794500D01*
X192087500Y-133791960D01*
X192059560Y-133791960D01*
X192036700Y-133791960D01*
X192021460Y-133789420D01*
X192008760Y-133789420D01*
X192001140Y-133786880D01*
X191996060Y-133786880D01*
X191993520Y-133784340D01*
X191993520Y-133784340D01*
X191993520Y-134419340D01*
X196192140Y-134424420D01*
X200858120Y-134429500D01*
X200947020Y-134393940D01*
X201030840Y-134350760D01*
X201099420Y-134297420D01*
X201150220Y-134233920D01*
X201185780Y-134157720D01*
X201206100Y-134068820D01*
X201213720Y-133974840D01*
X201213720Y-133946900D01*
X201211180Y-133924040D01*
X201208640Y-133903720D01*
X201203560Y-133880860D01*
X201193400Y-133855460D01*
X201178160Y-133824980D01*
X201155300Y-133784340D01*
X201127360Y-133733540D01*
X201089260Y-133670040D01*
X201068940Y-133634480D01*
X201035920Y-133578600D01*
X201002900Y-133522720D01*
X200974960Y-133474460D01*
X200952100Y-133436360D01*
X200936860Y-133410960D01*
X200919080Y-133377940D01*
X200891140Y-133332220D01*
X200858120Y-133276340D01*
X200822560Y-133212840D01*
X200781920Y-133144260D01*
X200741280Y-133075680D01*
X200703180Y-133009640D01*
X200695560Y-132999480D01*
X200672700Y-132961380D01*
X200644760Y-132913120D01*
X200611740Y-132857240D01*
X200576180Y-132796280D01*
X200540620Y-132737860D01*
X200499980Y-132669280D01*
X200454260Y-132590540D01*
X200406000Y-132509260D01*
X200360280Y-132430520D01*
X200332340Y-132382260D01*
X200294240Y-132318760D01*
X200253600Y-132250180D01*
X200212960Y-132181600D01*
X200177400Y-132120640D01*
X200152000Y-132077460D01*
X200121520Y-132026660D01*
X200085960Y-131965700D01*
X200045320Y-131899660D01*
X200004680Y-131831080D01*
X199969120Y-131767580D01*
X199931020Y-131704080D01*
X199892920Y-131638040D01*
X199854820Y-131574540D01*
X199821800Y-131521200D01*
X199796400Y-131478020D01*
X199796400Y-131475480D01*
X199781160Y-131452620D01*
X199765920Y-131424680D01*
X199745600Y-131391660D01*
X199725280Y-131356100D01*
X199697340Y-131312920D01*
X199666860Y-131259580D01*
X199631300Y-131198620D01*
X199590660Y-131130040D01*
X199542400Y-131046220D01*
X199486520Y-130952240D01*
X199423020Y-130845560D01*
X199349360Y-130723640D01*
X199268080Y-130583940D01*
X199263000Y-130578860D01*
X199219820Y-130502660D01*
X199174100Y-130429000D01*
X199130920Y-130355340D01*
X199092820Y-130291840D01*
X199059800Y-130235960D01*
X199034400Y-130192780D01*
X199024240Y-130175000D01*
X199003920Y-130141980D01*
X198975980Y-130096260D01*
X198940420Y-130035300D01*
X198899780Y-129966720D01*
X198856600Y-129893060D01*
X198810880Y-129814320D01*
X198770240Y-129745740D01*
X198686420Y-129606040D01*
X198607680Y-129471420D01*
X198531480Y-129344420D01*
X198460360Y-129225040D01*
X198394320Y-129115820D01*
X198335900Y-129016760D01*
X198285100Y-128930400D01*
X198244460Y-128861820D01*
X198221600Y-128823720D01*
X198203820Y-128790700D01*
X198175880Y-128742440D01*
X198140320Y-128684020D01*
X198097140Y-128612900D01*
X198051420Y-128534160D01*
X198003160Y-128450340D01*
X197952360Y-128363980D01*
X197914260Y-128303020D01*
X197860920Y-128214120D01*
X197807580Y-128122680D01*
X197754240Y-128033780D01*
X197705980Y-127949960D01*
X197660260Y-127871220D01*
X197619620Y-127805180D01*
X197589140Y-127751840D01*
X197573900Y-127726440D01*
X197535800Y-127662940D01*
X197495160Y-127591820D01*
X197454520Y-127523240D01*
X197416420Y-127462280D01*
X197396100Y-127426720D01*
X197365620Y-127373380D01*
X197327520Y-127309880D01*
X197286880Y-127241300D01*
X197246240Y-127170180D01*
X197215760Y-127121920D01*
X197142100Y-126997460D01*
X197078600Y-126885700D01*
X197020180Y-126786640D01*
X196969380Y-126700280D01*
X196926200Y-126629160D01*
X196893180Y-126573280D01*
X196870320Y-126532640D01*
X196855080Y-126509780D01*
X196839840Y-126484380D01*
X196816980Y-126446280D01*
X196791580Y-126400560D01*
X196761100Y-126349760D01*
X196753480Y-126339600D01*
X196707760Y-126258320D01*
X196669660Y-126194820D01*
X196636640Y-126144020D01*
X196608700Y-126103380D01*
X196580760Y-126072900D01*
X196555360Y-126047500D01*
X196527420Y-126027180D01*
X196496940Y-126009400D01*
X196458840Y-125994160D01*
X196415660Y-125976380D01*
X196408040Y-125973840D01*
X196364860Y-125956060D01*
X196334380Y-125945900D01*
X196303900Y-125940820D01*
X196273420Y-125940820D01*
X196227700Y-125940820D01*
X196143880Y-125953520D01*
X196065140Y-125973840D01*
X195991480Y-126009400D01*
X195925440Y-126060200D01*
X195861940Y-126126240D01*
X195800980Y-126207520D01*
X195742560Y-126309120D01*
X195709540Y-126370080D01*
X195696840Y-126395480D01*
X195673980Y-126436120D01*
X195643500Y-126489460D01*
X195607940Y-126552960D01*
X195564760Y-126624080D01*
X195519040Y-126702820D01*
X195470780Y-126784100D01*
X195422520Y-126867920D01*
X195371720Y-126951740D01*
X195323460Y-127033020D01*
X195280280Y-127106680D01*
X195262500Y-127132080D01*
X195239640Y-127175260D01*
X195206620Y-127226060D01*
X195171060Y-127287020D01*
X195132960Y-127353060D01*
X195092320Y-127421640D01*
X195089780Y-127426720D01*
X195036440Y-127513080D01*
X194975480Y-127617220D01*
X194904360Y-127736600D01*
X194825620Y-127868680D01*
X194736720Y-128016000D01*
X194640200Y-128176020D01*
X194538600Y-128346200D01*
X194429380Y-128529080D01*
X194312540Y-128722120D01*
X194190620Y-128925320D01*
X194063620Y-129133600D01*
X193934080Y-129352040D01*
X193796920Y-129578100D01*
X193659760Y-129806700D01*
X193517520Y-130042920D01*
X193372740Y-130279140D01*
X193337180Y-130340100D01*
X193273680Y-130444240D01*
X193205100Y-130556000D01*
X193131440Y-130677920D01*
X193057780Y-130802380D01*
X192981580Y-130926840D01*
X192905380Y-131051300D01*
X192831720Y-131173220D01*
X192763140Y-131290060D01*
X192697100Y-131396740D01*
X192638680Y-131493260D01*
X192587880Y-131577080D01*
X192559940Y-131627880D01*
X192473580Y-131770120D01*
X192397380Y-131897120D01*
X192326260Y-132011420D01*
X192262760Y-132118100D01*
X192204340Y-132217160D01*
X192145920Y-132311140D01*
X192090040Y-132402580D01*
X192034160Y-132494020D01*
X191975740Y-132590540D01*
X191922400Y-132679440D01*
X191820800Y-132844540D01*
X191729360Y-132994400D01*
X191645540Y-133129020D01*
X191571880Y-133253480D01*
X191508380Y-133362700D01*
X191449960Y-133464300D01*
X191396620Y-133555740D01*
X191350900Y-133637020D01*
X191310260Y-133713220D01*
X191277240Y-133774180D01*
X191216280Y-133896100D01*
X191216280Y-133896100D01*
X191216280Y-133896100D01*
G37*
X191216280Y-133896100D02*
X191218820Y-133995160D01*
X191231520Y-134094220D01*
X191254380Y-134183120D01*
X191295020Y-134259320D01*
X191317880Y-134289800D01*
X191340740Y-134317740D01*
X191368680Y-134340600D01*
X191401700Y-134360920D01*
X191439800Y-134381240D01*
X191523620Y-134419340D01*
X191993520Y-134419340D01*
X191993520Y-133784340D01*
X192001140Y-133769100D01*
X192016380Y-133743700D01*
X192039240Y-133705600D01*
X192067180Y-133659880D01*
X192084960Y-133634480D01*
X192102740Y-133606540D01*
X192115440Y-133583680D01*
X192130680Y-133560820D01*
X192143380Y-133540500D01*
X192158620Y-133517640D01*
X192173860Y-133494780D01*
X192189100Y-133466840D01*
X192209420Y-133433820D01*
X192234820Y-133393180D01*
X192262760Y-133347460D01*
X192295780Y-133291580D01*
X192336420Y-133225540D01*
X192382140Y-133146800D01*
X192438020Y-133055360D01*
X192501520Y-132948680D01*
X192567560Y-132836920D01*
X192625980Y-132742940D01*
X192679320Y-132651500D01*
X192730120Y-132567680D01*
X192775840Y-132491480D01*
X192816480Y-132422900D01*
X192852040Y-132367020D01*
X192877440Y-132323840D01*
X192895220Y-132293360D01*
X192905380Y-132278120D01*
X192915540Y-132257800D01*
X192935860Y-132224780D01*
X192963800Y-132181600D01*
X192994280Y-132128260D01*
X193027300Y-132072380D01*
X193045080Y-132041900D01*
X193088260Y-131970780D01*
X193136520Y-131892040D01*
X193184780Y-131810760D01*
X193227960Y-131734560D01*
X193268600Y-131668520D01*
X193268600Y-131665980D01*
X193306700Y-131605020D01*
X193344800Y-131538980D01*
X193380360Y-131478020D01*
X193413380Y-131424680D01*
X193436240Y-131386580D01*
X193461640Y-131343400D01*
X193494660Y-131290060D01*
X193530220Y-131226560D01*
X193568320Y-131160520D01*
X193606420Y-131097020D01*
X193608960Y-131094480D01*
X193649600Y-131025900D01*
X193695320Y-130947160D01*
X193746120Y-130863340D01*
X193794380Y-130782060D01*
X193837560Y-130710940D01*
X193878200Y-130642360D01*
X193923920Y-130561080D01*
X193974720Y-130477260D01*
X194025520Y-130390900D01*
X194073780Y-130309620D01*
X194096640Y-130274060D01*
X194139820Y-130197860D01*
X194190620Y-130116580D01*
X194241420Y-130030220D01*
X194289680Y-129948940D01*
X194332860Y-129875280D01*
X194350640Y-129844800D01*
X194386200Y-129786380D01*
X194419220Y-129733040D01*
X194447160Y-129684780D01*
X194470020Y-129646680D01*
X194485260Y-129621280D01*
X194487800Y-129616200D01*
X194500500Y-129595880D01*
X194520820Y-129560320D01*
X194546220Y-129517140D01*
X194576700Y-129466340D01*
X194599560Y-129430780D01*
X194630040Y-129377440D01*
X194657980Y-129329180D01*
X194683380Y-129288540D01*
X194701160Y-129258060D01*
X194708780Y-129245360D01*
X194718940Y-129225040D01*
X194739260Y-129192020D01*
X194767200Y-129148840D01*
X194797680Y-129095500D01*
X194830700Y-129039620D01*
X194845940Y-129014220D01*
X194889120Y-128943100D01*
X194937380Y-128861820D01*
X194988180Y-128775460D01*
X195038980Y-128691640D01*
X195082160Y-128615440D01*
X195084700Y-128612900D01*
X195122800Y-128551940D01*
X195155820Y-128493520D01*
X195188840Y-128440180D01*
X195214240Y-128394460D01*
X195234560Y-128363980D01*
X195239640Y-128353820D01*
X195257420Y-128323340D01*
X195285360Y-128277620D01*
X195320920Y-128219200D01*
X195361560Y-128148080D01*
X195409820Y-128069340D01*
X195463160Y-127980440D01*
X195519040Y-127886460D01*
X195577460Y-127789940D01*
X195638420Y-127690880D01*
X195696840Y-127591820D01*
X195755260Y-127495300D01*
X195813680Y-127401320D01*
X195867020Y-127314960D01*
X195915280Y-127233680D01*
X195958460Y-127162560D01*
X195996560Y-127101600D01*
X196001640Y-127096520D01*
X196039740Y-127030480D01*
X196080380Y-126969520D01*
X196118480Y-126908560D01*
X196154040Y-126855220D01*
X196187060Y-126809500D01*
X196209920Y-126773940D01*
X196225160Y-126748540D01*
X196235320Y-126740920D01*
X196240400Y-126748540D01*
X196258180Y-126773940D01*
X196283580Y-126812040D01*
X196316600Y-126867920D01*
X196357240Y-126933960D01*
X196405500Y-127012700D01*
X196458840Y-127104140D01*
X196519800Y-127203200D01*
X196585840Y-127312420D01*
X196654420Y-127431800D01*
X196730620Y-127556260D01*
X196806820Y-127685800D01*
X196888100Y-127820420D01*
X196928740Y-127891540D01*
X196943980Y-127914400D01*
X196966840Y-127952500D01*
X196994780Y-128000760D01*
X197030340Y-128059180D01*
X197065900Y-128122680D01*
X197104000Y-128188720D01*
X197274180Y-128473200D01*
X197436740Y-128744980D01*
X197591680Y-129006600D01*
X197741540Y-129260600D01*
X197886320Y-129506980D01*
X198031100Y-129753360D01*
X198071740Y-129821940D01*
X198109840Y-129882900D01*
X198145400Y-129943860D01*
X198178420Y-129999740D01*
X198206360Y-130045460D01*
X198226680Y-130081020D01*
X198231760Y-130091180D01*
X198249540Y-130119120D01*
X198274940Y-130162300D01*
X198305420Y-130213100D01*
X198340980Y-130271520D01*
X198379080Y-130337560D01*
X198407020Y-130383280D01*
X198445120Y-130449320D01*
X198483220Y-130512820D01*
X198518780Y-130571240D01*
X198549260Y-130622040D01*
X198572120Y-130660140D01*
X198582280Y-130680460D01*
X198605140Y-130716020D01*
X198633080Y-130761740D01*
X198663560Y-130815080D01*
X198694040Y-130868420D01*
X198699120Y-130876040D01*
X198747380Y-130957320D01*
X198795640Y-131041140D01*
X198843900Y-131122420D01*
X198889620Y-131201160D01*
X198932800Y-131269740D01*
X198965820Y-131325620D01*
X198978520Y-131345940D01*
X199003920Y-131389120D01*
X199029320Y-131434840D01*
X199052180Y-131472940D01*
X199054720Y-131475480D01*
X199067420Y-131500880D01*
X199092820Y-131541520D01*
X199125840Y-131597400D01*
X199169020Y-131671060D01*
X199219820Y-131757420D01*
X199278240Y-131859020D01*
X199346820Y-131973320D01*
X199420480Y-132097780D01*
X199504300Y-132237480D01*
X199593200Y-132387340D01*
X199595740Y-132392420D01*
X199641460Y-132471160D01*
X199689720Y-132554980D01*
X199740520Y-132641340D01*
X199788780Y-132722620D01*
X199831960Y-132796280D01*
X199859900Y-132839460D01*
X199898000Y-132902960D01*
X199936100Y-132971540D01*
X199974200Y-133035040D01*
X200007220Y-133093460D01*
X200035160Y-133139180D01*
X200040240Y-133144260D01*
X200068180Y-133192520D01*
X200096120Y-133240780D01*
X200118980Y-133281420D01*
X200136760Y-133309360D01*
X200177400Y-133380480D01*
X200218040Y-133449060D01*
X200258680Y-133517640D01*
X200296780Y-133583680D01*
X200332340Y-133642100D01*
X200362820Y-133692900D01*
X200385680Y-133733540D01*
X200403460Y-133761480D01*
X200411080Y-133774180D01*
X200413620Y-133774180D01*
X200421240Y-133789420D01*
X200421240Y-133791960D01*
X200411080Y-133791960D01*
X200383140Y-133794500D01*
X200334880Y-133794500D01*
X200268840Y-133794500D01*
X200185020Y-133794500D01*
X200083420Y-133797040D01*
X199969120Y-133797040D01*
X199837040Y-133797040D01*
X199689720Y-133797040D01*
X199529700Y-133797040D01*
X199354440Y-133797040D01*
X199166480Y-133797040D01*
X198968360Y-133799580D01*
X198757540Y-133799580D01*
X198534020Y-133799580D01*
X198302880Y-133799580D01*
X198061580Y-133799580D01*
X197810120Y-133799580D01*
X197551040Y-133799580D01*
X197286880Y-133799580D01*
X197012560Y-133799580D01*
X196733160Y-133799580D01*
X196446140Y-133799580D01*
X196204840Y-133799580D01*
X195856860Y-133799580D01*
X195529200Y-133799580D01*
X195221860Y-133799580D01*
X194932300Y-133799580D01*
X194657980Y-133799580D01*
X194403980Y-133799580D01*
X194165220Y-133799580D01*
X193941700Y-133799580D01*
X193733420Y-133799580D01*
X193542920Y-133799580D01*
X193365120Y-133799580D01*
X193202560Y-133799580D01*
X193050160Y-133799580D01*
X192913000Y-133799580D01*
X192788540Y-133799580D01*
X192674240Y-133797040D01*
X192572640Y-133797040D01*
X192481200Y-133797040D01*
X192399920Y-133797040D01*
X192326260Y-133797040D01*
X192262760Y-133797040D01*
X192206880Y-133794500D01*
X192161160Y-133794500D01*
X192120520Y-133794500D01*
X192087500Y-133791960D01*
X192059560Y-133791960D01*
X192036700Y-133791960D01*
X192021460Y-133789420D01*
X192008760Y-133789420D01*
X192001140Y-133786880D01*
X191996060Y-133786880D01*
X191993520Y-133784340D01*
X191993520Y-133784340D01*
X191993520Y-134419340D01*
X196192140Y-134424420D01*
X200858120Y-134429500D01*
X200947020Y-134393940D01*
X201030840Y-134350760D01*
X201099420Y-134297420D01*
X201150220Y-134233920D01*
X201185780Y-134157720D01*
X201206100Y-134068820D01*
X201213720Y-133974840D01*
X201213720Y-133946900D01*
X201211180Y-133924040D01*
X201208640Y-133903720D01*
X201203560Y-133880860D01*
X201193400Y-133855460D01*
X201178160Y-133824980D01*
X201155300Y-133784340D01*
X201127360Y-133733540D01*
X201089260Y-133670040D01*
X201068940Y-133634480D01*
X201035920Y-133578600D01*
X201002900Y-133522720D01*
X200974960Y-133474460D01*
X200952100Y-133436360D01*
X200936860Y-133410960D01*
X200919080Y-133377940D01*
X200891140Y-133332220D01*
X200858120Y-133276340D01*
X200822560Y-133212840D01*
X200781920Y-133144260D01*
X200741280Y-133075680D01*
X200703180Y-133009640D01*
X200695560Y-132999480D01*
X200672700Y-132961380D01*
X200644760Y-132913120D01*
X200611740Y-132857240D01*
X200576180Y-132796280D01*
X200540620Y-132737860D01*
X200499980Y-132669280D01*
X200454260Y-132590540D01*
X200406000Y-132509260D01*
X200360280Y-132430520D01*
X200332340Y-132382260D01*
X200294240Y-132318760D01*
X200253600Y-132250180D01*
X200212960Y-132181600D01*
X200177400Y-132120640D01*
X200152000Y-132077460D01*
X200121520Y-132026660D01*
X200085960Y-131965700D01*
X200045320Y-131899660D01*
X200004680Y-131831080D01*
X199969120Y-131767580D01*
X199931020Y-131704080D01*
X199892920Y-131638040D01*
X199854820Y-131574540D01*
X199821800Y-131521200D01*
X199796400Y-131478020D01*
X199796400Y-131475480D01*
X199781160Y-131452620D01*
X199765920Y-131424680D01*
X199745600Y-131391660D01*
X199725280Y-131356100D01*
X199697340Y-131312920D01*
X199666860Y-131259580D01*
X199631300Y-131198620D01*
X199590660Y-131130040D01*
X199542400Y-131046220D01*
X199486520Y-130952240D01*
X199423020Y-130845560D01*
X199349360Y-130723640D01*
X199268080Y-130583940D01*
X199263000Y-130578860D01*
X199219820Y-130502660D01*
X199174100Y-130429000D01*
X199130920Y-130355340D01*
X199092820Y-130291840D01*
X199059800Y-130235960D01*
X199034400Y-130192780D01*
X199024240Y-130175000D01*
X199003920Y-130141980D01*
X198975980Y-130096260D01*
X198940420Y-130035300D01*
X198899780Y-129966720D01*
X198856600Y-129893060D01*
X198810880Y-129814320D01*
X198770240Y-129745740D01*
X198686420Y-129606040D01*
X198607680Y-129471420D01*
X198531480Y-129344420D01*
X198460360Y-129225040D01*
X198394320Y-129115820D01*
X198335900Y-129016760D01*
X198285100Y-128930400D01*
X198244460Y-128861820D01*
X198221600Y-128823720D01*
X198203820Y-128790700D01*
X198175880Y-128742440D01*
X198140320Y-128684020D01*
X198097140Y-128612900D01*
X198051420Y-128534160D01*
X198003160Y-128450340D01*
X197952360Y-128363980D01*
X197914260Y-128303020D01*
X197860920Y-128214120D01*
X197807580Y-128122680D01*
X197754240Y-128033780D01*
X197705980Y-127949960D01*
X197660260Y-127871220D01*
X197619620Y-127805180D01*
X197589140Y-127751840D01*
X197573900Y-127726440D01*
X197535800Y-127662940D01*
X197495160Y-127591820D01*
X197454520Y-127523240D01*
X197416420Y-127462280D01*
X197396100Y-127426720D01*
X197365620Y-127373380D01*
X197327520Y-127309880D01*
X197286880Y-127241300D01*
X197246240Y-127170180D01*
X197215760Y-127121920D01*
X197142100Y-126997460D01*
X197078600Y-126885700D01*
X197020180Y-126786640D01*
X196969380Y-126700280D01*
X196926200Y-126629160D01*
X196893180Y-126573280D01*
X196870320Y-126532640D01*
X196855080Y-126509780D01*
X196839840Y-126484380D01*
X196816980Y-126446280D01*
X196791580Y-126400560D01*
X196761100Y-126349760D01*
X196753480Y-126339600D01*
X196707760Y-126258320D01*
X196669660Y-126194820D01*
X196636640Y-126144020D01*
X196608700Y-126103380D01*
X196580760Y-126072900D01*
X196555360Y-126047500D01*
X196527420Y-126027180D01*
X196496940Y-126009400D01*
X196458840Y-125994160D01*
X196415660Y-125976380D01*
X196408040Y-125973840D01*
X196364860Y-125956060D01*
X196334380Y-125945900D01*
X196303900Y-125940820D01*
X196273420Y-125940820D01*
X196227700Y-125940820D01*
X196143880Y-125953520D01*
X196065140Y-125973840D01*
X195991480Y-126009400D01*
X195925440Y-126060200D01*
X195861940Y-126126240D01*
X195800980Y-126207520D01*
X195742560Y-126309120D01*
X195709540Y-126370080D01*
X195696840Y-126395480D01*
X195673980Y-126436120D01*
X195643500Y-126489460D01*
X195607940Y-126552960D01*
X195564760Y-126624080D01*
X195519040Y-126702820D01*
X195470780Y-126784100D01*
X195422520Y-126867920D01*
X195371720Y-126951740D01*
X195323460Y-127033020D01*
X195280280Y-127106680D01*
X195262500Y-127132080D01*
X195239640Y-127175260D01*
X195206620Y-127226060D01*
X195171060Y-127287020D01*
X195132960Y-127353060D01*
X195092320Y-127421640D01*
X195089780Y-127426720D01*
X195036440Y-127513080D01*
X194975480Y-127617220D01*
X194904360Y-127736600D01*
X194825620Y-127868680D01*
X194736720Y-128016000D01*
X194640200Y-128176020D01*
X194538600Y-128346200D01*
X194429380Y-128529080D01*
X194312540Y-128722120D01*
X194190620Y-128925320D01*
X194063620Y-129133600D01*
X193934080Y-129352040D01*
X193796920Y-129578100D01*
X193659760Y-129806700D01*
X193517520Y-130042920D01*
X193372740Y-130279140D01*
X193337180Y-130340100D01*
X193273680Y-130444240D01*
X193205100Y-130556000D01*
X193131440Y-130677920D01*
X193057780Y-130802380D01*
X192981580Y-130926840D01*
X192905380Y-131051300D01*
X192831720Y-131173220D01*
X192763140Y-131290060D01*
X192697100Y-131396740D01*
X192638680Y-131493260D01*
X192587880Y-131577080D01*
X192559940Y-131627880D01*
X192473580Y-131770120D01*
X192397380Y-131897120D01*
X192326260Y-132011420D01*
X192262760Y-132118100D01*
X192204340Y-132217160D01*
X192145920Y-132311140D01*
X192090040Y-132402580D01*
X192034160Y-132494020D01*
X191975740Y-132590540D01*
X191922400Y-132679440D01*
X191820800Y-132844540D01*
X191729360Y-132994400D01*
X191645540Y-133129020D01*
X191571880Y-133253480D01*
X191508380Y-133362700D01*
X191449960Y-133464300D01*
X191396620Y-133555740D01*
X191350900Y-133637020D01*
X191310260Y-133713220D01*
X191277240Y-133774180D01*
X191216280Y-133896100D01*
X191216280Y-133896100D01*
G36*
X195199000Y-129816860D02*
X195201540Y-129827020D01*
X195206620Y-129852420D01*
X195216780Y-129890520D01*
X195229480Y-129936240D01*
X195229480Y-129946400D01*
X195247260Y-130004820D01*
X195265040Y-130073400D01*
X195285360Y-130147060D01*
X195303140Y-130210560D01*
X195305680Y-130218180D01*
X195318380Y-130263900D01*
X195331080Y-130307080D01*
X195341240Y-130350260D01*
X195353940Y-130395980D01*
X195369180Y-130446780D01*
X195384420Y-130505200D01*
X195402200Y-130576320D01*
X195425060Y-130660140D01*
X195453000Y-130761740D01*
X195455540Y-130764280D01*
X195483480Y-130870960D01*
X195506340Y-130957320D01*
X195526660Y-131033520D01*
X195544440Y-131097020D01*
X195559680Y-131155440D01*
X195574920Y-131206240D01*
X195587620Y-131257040D01*
X195602860Y-131307840D01*
X195605400Y-131320540D01*
X195620640Y-131378960D01*
X195635880Y-131437380D01*
X195651120Y-131490720D01*
X195661280Y-131531360D01*
X195663820Y-131541520D01*
X195704460Y-131688840D01*
X195742560Y-131831080D01*
X195778120Y-131963160D01*
X195811140Y-132087620D01*
X195839080Y-132199380D01*
X195864480Y-132300980D01*
X195887340Y-132387340D01*
X195905120Y-132463540D01*
X195917820Y-132521960D01*
X195927980Y-132562600D01*
X195930520Y-132588000D01*
X195930520Y-132595620D01*
X195917820Y-132593080D01*
X195892420Y-132582920D01*
X195851780Y-132565140D01*
X195806060Y-132544820D01*
X195760340Y-132524500D01*
X195694300Y-132494020D01*
X195643500Y-132471160D01*
X195607940Y-132455920D01*
X195582540Y-132448300D01*
X195564760Y-132445760D01*
X195557140Y-132448300D01*
X195554600Y-132448300D01*
X195554600Y-132450840D01*
X195557140Y-132458460D01*
X195562220Y-132468620D01*
X195572380Y-132483860D01*
X195585080Y-132506720D01*
X195605400Y-132539740D01*
X195633340Y-132580380D01*
X195668900Y-132633720D01*
X195712080Y-132697220D01*
X195765420Y-132775960D01*
X195826380Y-132869940D01*
X195839080Y-132890260D01*
X195894960Y-132969000D01*
X195953380Y-133057900D01*
X196014340Y-133146800D01*
X196070220Y-133233160D01*
X196123560Y-133311900D01*
X196171820Y-133380480D01*
X196184520Y-133400800D01*
X196230240Y-133471920D01*
X196268340Y-133527800D01*
X196296280Y-133568440D01*
X196319140Y-133598920D01*
X196334380Y-133621780D01*
X196344540Y-133631940D01*
X196352160Y-133637020D01*
X196354700Y-133637020D01*
X196357240Y-133631940D01*
X196357240Y-133629400D01*
X196362320Y-133614160D01*
X196369940Y-133583680D01*
X196377560Y-133543040D01*
X196387720Y-133494780D01*
X196387720Y-133494780D01*
X196395340Y-133459220D01*
X196408040Y-133405880D01*
X196420740Y-133339840D01*
X196438520Y-133261100D01*
X196456300Y-133174740D01*
X196476620Y-133083300D01*
X196496940Y-132989320D01*
X196504560Y-132953760D01*
X196524880Y-132857240D01*
X196545200Y-132760720D01*
X196565520Y-132666740D01*
X196585840Y-132577840D01*
X196603620Y-132499100D01*
X196616320Y-132433060D01*
X196629020Y-132379720D01*
X196631560Y-132369560D01*
X196641720Y-132313680D01*
X196651880Y-132267960D01*
X196659500Y-132229860D01*
X196662040Y-132207000D01*
X196662040Y-132201920D01*
X196654420Y-132201920D01*
X196644260Y-132209540D01*
X196623940Y-132227320D01*
X196596000Y-132257800D01*
X196557900Y-132298440D01*
X196512180Y-132351780D01*
X196461380Y-132410200D01*
X196423280Y-132450840D01*
X196395340Y-132481320D01*
X196377560Y-132499100D01*
X196364860Y-132506720D01*
X196359780Y-132506720D01*
X196357240Y-132496560D01*
X196352160Y-132468620D01*
X196347080Y-132427980D01*
X196336920Y-132374640D01*
X196329300Y-132316220D01*
X196326760Y-132298440D01*
X196314060Y-132222240D01*
X196301360Y-132138420D01*
X196288660Y-132057140D01*
X196275960Y-131983480D01*
X196268340Y-131932680D01*
X196258180Y-131866640D01*
X196245480Y-131787900D01*
X196232780Y-131704080D01*
X196220080Y-131625340D01*
X196215000Y-131582160D01*
X196204840Y-131503420D01*
X196189600Y-131414520D01*
X196176900Y-131323080D01*
X196161660Y-131236720D01*
X196156580Y-131201160D01*
X196143880Y-131127500D01*
X196133720Y-131051300D01*
X196121020Y-130975100D01*
X196110860Y-130909060D01*
X196105780Y-130870960D01*
X196098160Y-130820160D01*
X196090540Y-130776980D01*
X196085460Y-130743960D01*
X196082920Y-130728720D01*
X196082920Y-130726180D01*
X196082920Y-130721100D01*
X196090540Y-130718560D01*
X196103240Y-130723640D01*
X196128640Y-130733800D01*
X196161660Y-130749040D01*
X196209920Y-130771900D01*
X196268340Y-130802380D01*
X196344540Y-130840480D01*
X196387720Y-130863340D01*
X196573140Y-130957320D01*
X196740780Y-131043680D01*
X196890640Y-131119880D01*
X197025260Y-131188460D01*
X197139560Y-131246880D01*
X197238620Y-131295140D01*
X197319900Y-131335780D01*
X197383400Y-131366260D01*
X197431660Y-131389120D01*
X197462140Y-131401820D01*
X197474840Y-131406900D01*
X197474840Y-131404360D01*
X197474840Y-131391660D01*
X197467220Y-131361180D01*
X197454520Y-131312920D01*
X197439280Y-131254500D01*
X197421500Y-131185920D01*
X197401180Y-131109720D01*
X197378320Y-131028440D01*
X197352920Y-130942080D01*
X197335140Y-130876040D01*
X197317360Y-130810000D01*
X197299580Y-130743960D01*
X197281800Y-130685540D01*
X197269100Y-130634740D01*
X197261480Y-130604260D01*
X197248780Y-130561080D01*
X197233540Y-130505200D01*
X197215760Y-130444240D01*
X197200520Y-130388360D01*
X197182740Y-130324860D01*
X197162420Y-130253740D01*
X197144640Y-130185160D01*
X197131940Y-130141980D01*
X197116700Y-130091180D01*
X197098920Y-130027680D01*
X197078600Y-129956560D01*
X197058280Y-129882900D01*
X197045580Y-129834640D01*
X197027800Y-129771140D01*
X197010020Y-129705100D01*
X196992240Y-129646680D01*
X196979540Y-129595880D01*
X196969380Y-129565400D01*
X196961760Y-129537460D01*
X196949060Y-129491740D01*
X196933820Y-129433320D01*
X196913500Y-129362200D01*
X196890640Y-129283460D01*
X196867780Y-129197100D01*
X196842380Y-129105660D01*
X196829680Y-129065020D01*
X196801740Y-128965960D01*
X196773800Y-128864360D01*
X196745860Y-128762760D01*
X196717920Y-128666240D01*
X196692520Y-128577340D01*
X196672200Y-128498600D01*
X196654420Y-128437640D01*
X196651880Y-128427480D01*
X196634100Y-128363980D01*
X196618860Y-128308100D01*
X196603620Y-128259840D01*
X196590920Y-128224280D01*
X196583300Y-128203960D01*
X196580760Y-128201420D01*
X196568060Y-128198880D01*
X196540120Y-128198880D01*
X196494400Y-128196340D01*
X196435980Y-128196340D01*
X196367400Y-128193800D01*
X196291200Y-128193800D01*
X196212460Y-128193800D01*
X196126100Y-128193800D01*
X196039740Y-128193800D01*
X195950840Y-128193800D01*
X195869560Y-128193800D01*
X195790820Y-128193800D01*
X195722240Y-128193800D01*
X195663820Y-128193800D01*
X195618100Y-128196340D01*
X195587620Y-128196340D01*
X195572380Y-128198880D01*
X195574920Y-128209040D01*
X195582540Y-128234440D01*
X195597780Y-128270000D01*
X195613020Y-128305560D01*
X195712080Y-128534160D01*
X195811140Y-128757680D01*
X195902580Y-128971040D01*
X195991480Y-129179320D01*
X196075300Y-129374900D01*
X196154040Y-129557780D01*
X196222620Y-129730500D01*
X196288660Y-129887980D01*
X196344540Y-130030220D01*
X196395340Y-130157220D01*
X196408040Y-130187700D01*
X196433440Y-130251200D01*
X196456300Y-130312160D01*
X196476620Y-130362960D01*
X196491860Y-130406140D01*
X196504560Y-130434080D01*
X196504560Y-130439160D01*
X196514720Y-130467100D01*
X196522340Y-130484880D01*
X196522340Y-130489960D01*
X196512180Y-130487420D01*
X196486780Y-130474720D01*
X196443600Y-130454400D01*
X196387720Y-130426460D01*
X196319140Y-130390900D01*
X196237860Y-130347720D01*
X196146420Y-130299460D01*
X196044820Y-130246120D01*
X195933060Y-130190240D01*
X195813680Y-130129280D01*
X195790820Y-130116580D01*
X195696840Y-130068320D01*
X195605400Y-130020060D01*
X195519040Y-129976880D01*
X195440300Y-129936240D01*
X195371720Y-129900680D01*
X195310760Y-129870200D01*
X195259960Y-129844800D01*
X195224400Y-129827020D01*
X195204080Y-129819400D01*
X195199000Y-129816860D01*
X195199000Y-129816860D01*
X195199000Y-129816860D01*
G37*
X195199000Y-129816860D02*
X195201540Y-129827020D01*
X195206620Y-129852420D01*
X195216780Y-129890520D01*
X195229480Y-129936240D01*
X195229480Y-129946400D01*
X195247260Y-130004820D01*
X195265040Y-130073400D01*
X195285360Y-130147060D01*
X195303140Y-130210560D01*
X195305680Y-130218180D01*
X195318380Y-130263900D01*
X195331080Y-130307080D01*
X195341240Y-130350260D01*
X195353940Y-130395980D01*
X195369180Y-130446780D01*
X195384420Y-130505200D01*
X195402200Y-130576320D01*
X195425060Y-130660140D01*
X195453000Y-130761740D01*
X195455540Y-130764280D01*
X195483480Y-130870960D01*
X195506340Y-130957320D01*
X195526660Y-131033520D01*
X195544440Y-131097020D01*
X195559680Y-131155440D01*
X195574920Y-131206240D01*
X195587620Y-131257040D01*
X195602860Y-131307840D01*
X195605400Y-131320540D01*
X195620640Y-131378960D01*
X195635880Y-131437380D01*
X195651120Y-131490720D01*
X195661280Y-131531360D01*
X195663820Y-131541520D01*
X195704460Y-131688840D01*
X195742560Y-131831080D01*
X195778120Y-131963160D01*
X195811140Y-132087620D01*
X195839080Y-132199380D01*
X195864480Y-132300980D01*
X195887340Y-132387340D01*
X195905120Y-132463540D01*
X195917820Y-132521960D01*
X195927980Y-132562600D01*
X195930520Y-132588000D01*
X195930520Y-132595620D01*
X195917820Y-132593080D01*
X195892420Y-132582920D01*
X195851780Y-132565140D01*
X195806060Y-132544820D01*
X195760340Y-132524500D01*
X195694300Y-132494020D01*
X195643500Y-132471160D01*
X195607940Y-132455920D01*
X195582540Y-132448300D01*
X195564760Y-132445760D01*
X195557140Y-132448300D01*
X195554600Y-132448300D01*
X195554600Y-132450840D01*
X195557140Y-132458460D01*
X195562220Y-132468620D01*
X195572380Y-132483860D01*
X195585080Y-132506720D01*
X195605400Y-132539740D01*
X195633340Y-132580380D01*
X195668900Y-132633720D01*
X195712080Y-132697220D01*
X195765420Y-132775960D01*
X195826380Y-132869940D01*
X195839080Y-132890260D01*
X195894960Y-132969000D01*
X195953380Y-133057900D01*
X196014340Y-133146800D01*
X196070220Y-133233160D01*
X196123560Y-133311900D01*
X196171820Y-133380480D01*
X196184520Y-133400800D01*
X196230240Y-133471920D01*
X196268340Y-133527800D01*
X196296280Y-133568440D01*
X196319140Y-133598920D01*
X196334380Y-133621780D01*
X196344540Y-133631940D01*
X196352160Y-133637020D01*
X196354700Y-133637020D01*
X196357240Y-133631940D01*
X196357240Y-133629400D01*
X196362320Y-133614160D01*
X196369940Y-133583680D01*
X196377560Y-133543040D01*
X196387720Y-133494780D01*
X196387720Y-133494780D01*
X196395340Y-133459220D01*
X196408040Y-133405880D01*
X196420740Y-133339840D01*
X196438520Y-133261100D01*
X196456300Y-133174740D01*
X196476620Y-133083300D01*
X196496940Y-132989320D01*
X196504560Y-132953760D01*
X196524880Y-132857240D01*
X196545200Y-132760720D01*
X196565520Y-132666740D01*
X196585840Y-132577840D01*
X196603620Y-132499100D01*
X196616320Y-132433060D01*
X196629020Y-132379720D01*
X196631560Y-132369560D01*
X196641720Y-132313680D01*
X196651880Y-132267960D01*
X196659500Y-132229860D01*
X196662040Y-132207000D01*
X196662040Y-132201920D01*
X196654420Y-132201920D01*
X196644260Y-132209540D01*
X196623940Y-132227320D01*
X196596000Y-132257800D01*
X196557900Y-132298440D01*
X196512180Y-132351780D01*
X196461380Y-132410200D01*
X196423280Y-132450840D01*
X196395340Y-132481320D01*
X196377560Y-132499100D01*
X196364860Y-132506720D01*
X196359780Y-132506720D01*
X196357240Y-132496560D01*
X196352160Y-132468620D01*
X196347080Y-132427980D01*
X196336920Y-132374640D01*
X196329300Y-132316220D01*
X196326760Y-132298440D01*
X196314060Y-132222240D01*
X196301360Y-132138420D01*
X196288660Y-132057140D01*
X196275960Y-131983480D01*
X196268340Y-131932680D01*
X196258180Y-131866640D01*
X196245480Y-131787900D01*
X196232780Y-131704080D01*
X196220080Y-131625340D01*
X196215000Y-131582160D01*
X196204840Y-131503420D01*
X196189600Y-131414520D01*
X196176900Y-131323080D01*
X196161660Y-131236720D01*
X196156580Y-131201160D01*
X196143880Y-131127500D01*
X196133720Y-131051300D01*
X196121020Y-130975100D01*
X196110860Y-130909060D01*
X196105780Y-130870960D01*
X196098160Y-130820160D01*
X196090540Y-130776980D01*
X196085460Y-130743960D01*
X196082920Y-130728720D01*
X196082920Y-130726180D01*
X196082920Y-130721100D01*
X196090540Y-130718560D01*
X196103240Y-130723640D01*
X196128640Y-130733800D01*
X196161660Y-130749040D01*
X196209920Y-130771900D01*
X196268340Y-130802380D01*
X196344540Y-130840480D01*
X196387720Y-130863340D01*
X196573140Y-130957320D01*
X196740780Y-131043680D01*
X196890640Y-131119880D01*
X197025260Y-131188460D01*
X197139560Y-131246880D01*
X197238620Y-131295140D01*
X197319900Y-131335780D01*
X197383400Y-131366260D01*
X197431660Y-131389120D01*
X197462140Y-131401820D01*
X197474840Y-131406900D01*
X197474840Y-131404360D01*
X197474840Y-131391660D01*
X197467220Y-131361180D01*
X197454520Y-131312920D01*
X197439280Y-131254500D01*
X197421500Y-131185920D01*
X197401180Y-131109720D01*
X197378320Y-131028440D01*
X197352920Y-130942080D01*
X197335140Y-130876040D01*
X197317360Y-130810000D01*
X197299580Y-130743960D01*
X197281800Y-130685540D01*
X197269100Y-130634740D01*
X197261480Y-130604260D01*
X197248780Y-130561080D01*
X197233540Y-130505200D01*
X197215760Y-130444240D01*
X197200520Y-130388360D01*
X197182740Y-130324860D01*
X197162420Y-130253740D01*
X197144640Y-130185160D01*
X197131940Y-130141980D01*
X197116700Y-130091180D01*
X197098920Y-130027680D01*
X197078600Y-129956560D01*
X197058280Y-129882900D01*
X197045580Y-129834640D01*
X197027800Y-129771140D01*
X197010020Y-129705100D01*
X196992240Y-129646680D01*
X196979540Y-129595880D01*
X196969380Y-129565400D01*
X196961760Y-129537460D01*
X196949060Y-129491740D01*
X196933820Y-129433320D01*
X196913500Y-129362200D01*
X196890640Y-129283460D01*
X196867780Y-129197100D01*
X196842380Y-129105660D01*
X196829680Y-129065020D01*
X196801740Y-128965960D01*
X196773800Y-128864360D01*
X196745860Y-128762760D01*
X196717920Y-128666240D01*
X196692520Y-128577340D01*
X196672200Y-128498600D01*
X196654420Y-128437640D01*
X196651880Y-128427480D01*
X196634100Y-128363980D01*
X196618860Y-128308100D01*
X196603620Y-128259840D01*
X196590920Y-128224280D01*
X196583300Y-128203960D01*
X196580760Y-128201420D01*
X196568060Y-128198880D01*
X196540120Y-128198880D01*
X196494400Y-128196340D01*
X196435980Y-128196340D01*
X196367400Y-128193800D01*
X196291200Y-128193800D01*
X196212460Y-128193800D01*
X196126100Y-128193800D01*
X196039740Y-128193800D01*
X195950840Y-128193800D01*
X195869560Y-128193800D01*
X195790820Y-128193800D01*
X195722240Y-128193800D01*
X195663820Y-128193800D01*
X195618100Y-128196340D01*
X195587620Y-128196340D01*
X195572380Y-128198880D01*
X195574920Y-128209040D01*
X195582540Y-128234440D01*
X195597780Y-128270000D01*
X195613020Y-128305560D01*
X195712080Y-128534160D01*
X195811140Y-128757680D01*
X195902580Y-128971040D01*
X195991480Y-129179320D01*
X196075300Y-129374900D01*
X196154040Y-129557780D01*
X196222620Y-129730500D01*
X196288660Y-129887980D01*
X196344540Y-130030220D01*
X196395340Y-130157220D01*
X196408040Y-130187700D01*
X196433440Y-130251200D01*
X196456300Y-130312160D01*
X196476620Y-130362960D01*
X196491860Y-130406140D01*
X196504560Y-130434080D01*
X196504560Y-130439160D01*
X196514720Y-130467100D01*
X196522340Y-130484880D01*
X196522340Y-130489960D01*
X196512180Y-130487420D01*
X196486780Y-130474720D01*
X196443600Y-130454400D01*
X196387720Y-130426460D01*
X196319140Y-130390900D01*
X196237860Y-130347720D01*
X196146420Y-130299460D01*
X196044820Y-130246120D01*
X195933060Y-130190240D01*
X195813680Y-130129280D01*
X195790820Y-130116580D01*
X195696840Y-130068320D01*
X195605400Y-130020060D01*
X195519040Y-129976880D01*
X195440300Y-129936240D01*
X195371720Y-129900680D01*
X195310760Y-129870200D01*
X195259960Y-129844800D01*
X195224400Y-129827020D01*
X195204080Y-129819400D01*
X195199000Y-129816860D01*
X195199000Y-129816860D01*
D13*
X148042381Y-96980476D02*
X149042381Y-97647143D01*
X148042381Y-97647143D02*
X149042381Y-96980476D01*
X148137619Y-97980476D02*
X148090000Y-98028095D01*
X148042381Y-98123333D01*
X148042381Y-98361429D01*
X148090000Y-98456667D01*
X148137619Y-98504286D01*
X148232857Y-98551905D01*
X148328095Y-98551905D01*
X148470952Y-98504286D01*
X149042381Y-97932857D01*
X149042381Y-98551905D01*
X119411905Y-123372381D02*
X119411905Y-124181905D01*
X119364286Y-124277143D01*
X119316667Y-124324762D01*
X119221429Y-124372381D01*
X119030952Y-124372381D01*
X118935714Y-124324762D01*
X118888095Y-124277143D01*
X118840476Y-124181905D01*
X118840476Y-123372381D01*
X117888095Y-123372381D02*
X118364286Y-123372381D01*
X118411905Y-123848571D01*
X118364286Y-123800952D01*
X118269048Y-123753333D01*
X118030952Y-123753333D01*
X117935714Y-123800952D01*
X117888095Y-123848571D01*
X117840476Y-123943810D01*
X117840476Y-124181905D01*
X117888095Y-124277143D01*
X117935714Y-124324762D01*
X118030952Y-124372381D01*
X118269048Y-124372381D01*
X118364286Y-124324762D01*
X118411905Y-124277143D01*
X154027143Y-126198334D02*
X154074762Y-126150715D01*
X154122381Y-126007858D01*
X154122381Y-125912620D01*
X154074762Y-125769762D01*
X153979524Y-125674524D01*
X153884286Y-125626905D01*
X153693810Y-125579286D01*
X153550952Y-125579286D01*
X153360476Y-125626905D01*
X153265238Y-125674524D01*
X153170000Y-125769762D01*
X153122381Y-125912620D01*
X153122381Y-126007858D01*
X153170000Y-126150715D01*
X153217619Y-126198334D01*
X154122381Y-127150715D02*
X154122381Y-126579286D01*
X154122381Y-126865000D02*
X153122381Y-126865000D01*
X153265238Y-126769762D01*
X153360476Y-126674524D01*
X153408095Y-126579286D01*
X128436666Y-103227143D02*
X128484285Y-103274762D01*
X128627142Y-103322381D01*
X128722380Y-103322381D01*
X128865238Y-103274762D01*
X128960476Y-103179524D01*
X129008095Y-103084286D01*
X129055714Y-102893810D01*
X129055714Y-102750952D01*
X129008095Y-102560476D01*
X128960476Y-102465238D01*
X128865238Y-102370000D01*
X128722380Y-102322381D01*
X128627142Y-102322381D01*
X128484285Y-102370000D01*
X128436666Y-102417619D01*
X128055714Y-102417619D02*
X128008095Y-102370000D01*
X127912857Y-102322381D01*
X127674761Y-102322381D01*
X127579523Y-102370000D01*
X127531904Y-102417619D01*
X127484285Y-102512857D01*
X127484285Y-102608095D01*
X127531904Y-102750952D01*
X128103333Y-103322381D01*
X127484285Y-103322381D01*
X164822143Y-126198334D02*
X164869762Y-126150715D01*
X164917381Y-126007858D01*
X164917381Y-125912620D01*
X164869762Y-125769762D01*
X164774524Y-125674524D01*
X164679286Y-125626905D01*
X164488810Y-125579286D01*
X164345952Y-125579286D01*
X164155476Y-125626905D01*
X164060238Y-125674524D01*
X163965000Y-125769762D01*
X163917381Y-125912620D01*
X163917381Y-126007858D01*
X163965000Y-126150715D01*
X164012619Y-126198334D01*
X163917381Y-126531667D02*
X163917381Y-127150715D01*
X164298333Y-126817381D01*
X164298333Y-126960239D01*
X164345952Y-127055477D01*
X164393571Y-127103096D01*
X164488810Y-127150715D01*
X164726905Y-127150715D01*
X164822143Y-127103096D01*
X164869762Y-127055477D01*
X164917381Y-126960239D01*
X164917381Y-126674524D01*
X164869762Y-126579286D01*
X164822143Y-126531667D01*
X175617143Y-126198334D02*
X175664762Y-126150715D01*
X175712381Y-126007858D01*
X175712381Y-125912620D01*
X175664762Y-125769762D01*
X175569524Y-125674524D01*
X175474286Y-125626905D01*
X175283810Y-125579286D01*
X175140952Y-125579286D01*
X174950476Y-125626905D01*
X174855238Y-125674524D01*
X174760000Y-125769762D01*
X174712381Y-125912620D01*
X174712381Y-126007858D01*
X174760000Y-126150715D01*
X174807619Y-126198334D01*
X175045714Y-127055477D02*
X175712381Y-127055477D01*
X174664762Y-126817381D02*
X175379048Y-126579286D01*
X175379048Y-127198334D01*
X157202143Y-110482143D02*
X157249762Y-110434524D01*
X157297381Y-110291667D01*
X157297381Y-110196429D01*
X157249762Y-110053571D01*
X157154524Y-109958333D01*
X157059286Y-109910714D01*
X156868810Y-109863095D01*
X156725952Y-109863095D01*
X156535476Y-109910714D01*
X156440238Y-109958333D01*
X156345000Y-110053571D01*
X156297381Y-110196429D01*
X156297381Y-110291667D01*
X156345000Y-110434524D01*
X156392619Y-110482143D01*
X157297381Y-111434524D02*
X157297381Y-110863095D01*
X157297381Y-111148809D02*
X156297381Y-111148809D01*
X156440238Y-111053571D01*
X156535476Y-110958333D01*
X156583095Y-110863095D01*
X156392619Y-111815476D02*
X156345000Y-111863095D01*
X156297381Y-111958333D01*
X156297381Y-112196429D01*
X156345000Y-112291667D01*
X156392619Y-112339286D01*
X156487857Y-112386905D01*
X156583095Y-112386905D01*
X156725952Y-112339286D01*
X157297381Y-111767857D01*
X157297381Y-112386905D01*
X176537857Y-81637143D02*
X176585476Y-81684762D01*
X176728333Y-81732381D01*
X176823571Y-81732381D01*
X176966429Y-81684762D01*
X177061667Y-81589524D01*
X177109286Y-81494286D01*
X177156905Y-81303810D01*
X177156905Y-81160952D01*
X177109286Y-80970476D01*
X177061667Y-80875238D01*
X176966429Y-80780000D01*
X176823571Y-80732381D01*
X176728333Y-80732381D01*
X176585476Y-80780000D01*
X176537857Y-80827619D01*
X175585476Y-81732381D02*
X176156905Y-81732381D01*
X175871191Y-81732381D02*
X175871191Y-80732381D01*
X175966429Y-80875238D01*
X176061667Y-80970476D01*
X176156905Y-81018095D01*
X175252143Y-80732381D02*
X174633095Y-80732381D01*
X174966429Y-81113333D01*
X174823571Y-81113333D01*
X174728333Y-81160952D01*
X174680714Y-81208571D01*
X174633095Y-81303810D01*
X174633095Y-81541905D01*
X174680714Y-81637143D01*
X174728333Y-81684762D01*
X174823571Y-81732381D01*
X175109286Y-81732381D01*
X175204524Y-81684762D01*
X175252143Y-81637143D01*
X200667857Y-84812143D02*
X200715476Y-84859762D01*
X200858333Y-84907381D01*
X200953571Y-84907381D01*
X201096429Y-84859762D01*
X201191667Y-84764524D01*
X201239286Y-84669286D01*
X201286905Y-84478810D01*
X201286905Y-84335952D01*
X201239286Y-84145476D01*
X201191667Y-84050238D01*
X201096429Y-83955000D01*
X200953571Y-83907381D01*
X200858333Y-83907381D01*
X200715476Y-83955000D01*
X200667857Y-84002619D01*
X199715476Y-84907381D02*
X200286905Y-84907381D01*
X200001191Y-84907381D02*
X200001191Y-83907381D01*
X200096429Y-84050238D01*
X200191667Y-84145476D01*
X200286905Y-84193095D01*
X198858333Y-84240714D02*
X198858333Y-84907381D01*
X199096429Y-83859762D02*
X199334524Y-84574048D01*
X198715476Y-84574048D01*
X166532143Y-102227143D02*
X166579762Y-102179524D01*
X166627381Y-102036667D01*
X166627381Y-101941429D01*
X166579762Y-101798571D01*
X166484524Y-101703333D01*
X166389286Y-101655714D01*
X166198810Y-101608095D01*
X166055952Y-101608095D01*
X165865476Y-101655714D01*
X165770238Y-101703333D01*
X165675000Y-101798571D01*
X165627381Y-101941429D01*
X165627381Y-102036667D01*
X165675000Y-102179524D01*
X165722619Y-102227143D01*
X166627381Y-103179524D02*
X166627381Y-102608095D01*
X166627381Y-102893809D02*
X165627381Y-102893809D01*
X165770238Y-102798571D01*
X165865476Y-102703333D01*
X165913095Y-102608095D01*
X165627381Y-104084286D02*
X165627381Y-103608095D01*
X166103571Y-103560476D01*
X166055952Y-103608095D01*
X166008333Y-103703333D01*
X166008333Y-103941429D01*
X166055952Y-104036667D01*
X166103571Y-104084286D01*
X166198810Y-104131905D01*
X166436905Y-104131905D01*
X166532143Y-104084286D01*
X166579762Y-104036667D01*
X166627381Y-103941429D01*
X166627381Y-103703333D01*
X166579762Y-103608095D01*
X166532143Y-103560476D01*
X154312857Y-103227143D02*
X154360476Y-103274762D01*
X154503333Y-103322381D01*
X154598571Y-103322381D01*
X154741429Y-103274762D01*
X154836667Y-103179524D01*
X154884286Y-103084286D01*
X154931905Y-102893810D01*
X154931905Y-102750952D01*
X154884286Y-102560476D01*
X154836667Y-102465238D01*
X154741429Y-102370000D01*
X154598571Y-102322381D01*
X154503333Y-102322381D01*
X154360476Y-102370000D01*
X154312857Y-102417619D01*
X153360476Y-103322381D02*
X153931905Y-103322381D01*
X153646191Y-103322381D02*
X153646191Y-102322381D01*
X153741429Y-102465238D01*
X153836667Y-102560476D01*
X153931905Y-102608095D01*
X152503333Y-102322381D02*
X152693810Y-102322381D01*
X152789048Y-102370000D01*
X152836667Y-102417619D01*
X152931905Y-102560476D01*
X152979524Y-102750952D01*
X152979524Y-103131905D01*
X152931905Y-103227143D01*
X152884286Y-103274762D01*
X152789048Y-103322381D01*
X152598571Y-103322381D01*
X152503333Y-103274762D01*
X152455714Y-103227143D01*
X152408095Y-103131905D01*
X152408095Y-102893810D01*
X152455714Y-102798571D01*
X152503333Y-102750952D01*
X152598571Y-102703333D01*
X152789048Y-102703333D01*
X152884286Y-102750952D01*
X152931905Y-102798571D01*
X152979524Y-102893810D01*
X154312857Y-93067143D02*
X154360476Y-93114762D01*
X154503333Y-93162381D01*
X154598571Y-93162381D01*
X154741429Y-93114762D01*
X154836667Y-93019524D01*
X154884286Y-92924286D01*
X154931905Y-92733810D01*
X154931905Y-92590952D01*
X154884286Y-92400476D01*
X154836667Y-92305238D01*
X154741429Y-92210000D01*
X154598571Y-92162381D01*
X154503333Y-92162381D01*
X154360476Y-92210000D01*
X154312857Y-92257619D01*
X153360476Y-93162381D02*
X153931905Y-93162381D01*
X153646191Y-93162381D02*
X153646191Y-92162381D01*
X153741429Y-92305238D01*
X153836667Y-92400476D01*
X153931905Y-92448095D01*
X153027143Y-92162381D02*
X152360476Y-92162381D01*
X152789048Y-93162381D01*
X194952857Y-77192143D02*
X195000476Y-77239762D01*
X195143333Y-77287381D01*
X195238571Y-77287381D01*
X195381429Y-77239762D01*
X195476667Y-77144524D01*
X195524286Y-77049286D01*
X195571905Y-76858810D01*
X195571905Y-76715952D01*
X195524286Y-76525476D01*
X195476667Y-76430238D01*
X195381429Y-76335000D01*
X195238571Y-76287381D01*
X195143333Y-76287381D01*
X195000476Y-76335000D01*
X194952857Y-76382619D01*
X194000476Y-77287381D02*
X194571905Y-77287381D01*
X194286191Y-77287381D02*
X194286191Y-76287381D01*
X194381429Y-76430238D01*
X194476667Y-76525476D01*
X194571905Y-76573095D01*
X193429048Y-76715952D02*
X193524286Y-76668333D01*
X193571905Y-76620714D01*
X193619524Y-76525476D01*
X193619524Y-76477857D01*
X193571905Y-76382619D01*
X193524286Y-76335000D01*
X193429048Y-76287381D01*
X193238571Y-76287381D01*
X193143333Y-76335000D01*
X193095714Y-76382619D01*
X193048095Y-76477857D01*
X193048095Y-76525476D01*
X193095714Y-76620714D01*
X193143333Y-76668333D01*
X193238571Y-76715952D01*
X193429048Y-76715952D01*
X193524286Y-76763571D01*
X193571905Y-76811190D01*
X193619524Y-76906429D01*
X193619524Y-77096905D01*
X193571905Y-77192143D01*
X193524286Y-77239762D01*
X193429048Y-77287381D01*
X193238571Y-77287381D01*
X193143333Y-77239762D01*
X193095714Y-77192143D01*
X193048095Y-77096905D01*
X193048095Y-76906429D01*
X193095714Y-76811190D01*
X193143333Y-76763571D01*
X193238571Y-76715952D01*
X191777857Y-85447143D02*
X191825476Y-85494762D01*
X191968333Y-85542381D01*
X192063571Y-85542381D01*
X192206429Y-85494762D01*
X192301667Y-85399524D01*
X192349286Y-85304286D01*
X192396905Y-85113810D01*
X192396905Y-84970952D01*
X192349286Y-84780476D01*
X192301667Y-84685238D01*
X192206429Y-84590000D01*
X192063571Y-84542381D01*
X191968333Y-84542381D01*
X191825476Y-84590000D01*
X191777857Y-84637619D01*
X190825476Y-85542381D02*
X191396905Y-85542381D01*
X191111191Y-85542381D02*
X191111191Y-84542381D01*
X191206429Y-84685238D01*
X191301667Y-84780476D01*
X191396905Y-84828095D01*
X190349286Y-85542381D02*
X190158810Y-85542381D01*
X190063571Y-85494762D01*
X190015952Y-85447143D01*
X189920714Y-85304286D01*
X189873095Y-85113810D01*
X189873095Y-84732857D01*
X189920714Y-84637619D01*
X189968333Y-84590000D01*
X190063571Y-84542381D01*
X190254048Y-84542381D01*
X190349286Y-84590000D01*
X190396905Y-84637619D01*
X190444524Y-84732857D01*
X190444524Y-84970952D01*
X190396905Y-85066190D01*
X190349286Y-85113810D01*
X190254048Y-85161429D01*
X190063571Y-85161429D01*
X189968333Y-85113810D01*
X189920714Y-85066190D01*
X189873095Y-84970952D01*
X166377857Y-81637143D02*
X166425476Y-81684762D01*
X166568333Y-81732381D01*
X166663571Y-81732381D01*
X166806429Y-81684762D01*
X166901667Y-81589524D01*
X166949286Y-81494286D01*
X166996905Y-81303810D01*
X166996905Y-81160952D01*
X166949286Y-80970476D01*
X166901667Y-80875238D01*
X166806429Y-80780000D01*
X166663571Y-80732381D01*
X166568333Y-80732381D01*
X166425476Y-80780000D01*
X166377857Y-80827619D01*
X165996905Y-80827619D02*
X165949286Y-80780000D01*
X165854048Y-80732381D01*
X165615952Y-80732381D01*
X165520714Y-80780000D01*
X165473095Y-80827619D01*
X165425476Y-80922857D01*
X165425476Y-81018095D01*
X165473095Y-81160952D01*
X166044524Y-81732381D01*
X165425476Y-81732381D01*
X164806429Y-80732381D02*
X164711190Y-80732381D01*
X164615952Y-80780000D01*
X164568333Y-80827619D01*
X164520714Y-80922857D01*
X164473095Y-81113333D01*
X164473095Y-81351429D01*
X164520714Y-81541905D01*
X164568333Y-81637143D01*
X164615952Y-81684762D01*
X164711190Y-81732381D01*
X164806429Y-81732381D01*
X164901667Y-81684762D01*
X164949286Y-81637143D01*
X164996905Y-81541905D01*
X165044524Y-81351429D01*
X165044524Y-81113333D01*
X164996905Y-80922857D01*
X164949286Y-80827619D01*
X164901667Y-80780000D01*
X164806429Y-80732381D01*
X179133095Y-85328571D02*
X178799761Y-85328571D01*
X178656904Y-85852381D02*
X179133095Y-85852381D01*
X179133095Y-84852381D01*
X178656904Y-84852381D01*
X178228333Y-85328571D02*
X177894999Y-85328571D01*
X177752142Y-85852381D02*
X178228333Y-85852381D01*
X178228333Y-84852381D01*
X177752142Y-84852381D01*
X177323571Y-85852381D02*
X177323571Y-84852381D01*
X176942618Y-84852381D01*
X176847380Y-84900000D01*
X176799761Y-84947619D01*
X176752142Y-85042857D01*
X176752142Y-85185714D01*
X176799761Y-85280952D01*
X176847380Y-85328571D01*
X176942618Y-85376190D01*
X177323571Y-85376190D01*
X175752142Y-85852381D02*
X176085476Y-85376190D01*
X176323571Y-85852381D02*
X176323571Y-84852381D01*
X175942618Y-84852381D01*
X175847380Y-84900000D01*
X175799761Y-84947619D01*
X175752142Y-85042857D01*
X175752142Y-85185714D01*
X175799761Y-85280952D01*
X175847380Y-85328571D01*
X175942618Y-85376190D01*
X176323571Y-85376190D01*
X175133095Y-84852381D02*
X174942618Y-84852381D01*
X174847380Y-84900000D01*
X174752142Y-84995238D01*
X174704523Y-85185714D01*
X174704523Y-85519048D01*
X174752142Y-85709524D01*
X174847380Y-85804762D01*
X174942618Y-85852381D01*
X175133095Y-85852381D01*
X175228333Y-85804762D01*
X175323571Y-85709524D01*
X175371190Y-85519048D01*
X175371190Y-85185714D01*
X175323571Y-84995238D01*
X175228333Y-84900000D01*
X175133095Y-84852381D01*
X174275952Y-85852381D02*
X174275952Y-84852381D01*
X173942618Y-85566667D01*
X173609285Y-84852381D01*
X173609285Y-85852381D01*
X172609285Y-85852381D02*
X173180714Y-85852381D01*
X172895000Y-85852381D02*
X172895000Y-84852381D01*
X172990238Y-84995238D01*
X173085476Y-85090476D01*
X173180714Y-85138095D01*
X168973095Y-85328571D02*
X168639761Y-85328571D01*
X168496904Y-85852381D02*
X168973095Y-85852381D01*
X168973095Y-84852381D01*
X168496904Y-84852381D01*
X168068333Y-85328571D02*
X167734999Y-85328571D01*
X167592142Y-85852381D02*
X168068333Y-85852381D01*
X168068333Y-84852381D01*
X167592142Y-84852381D01*
X167163571Y-85852381D02*
X167163571Y-84852381D01*
X166782618Y-84852381D01*
X166687380Y-84900000D01*
X166639761Y-84947619D01*
X166592142Y-85042857D01*
X166592142Y-85185714D01*
X166639761Y-85280952D01*
X166687380Y-85328571D01*
X166782618Y-85376190D01*
X167163571Y-85376190D01*
X165592142Y-85852381D02*
X165925476Y-85376190D01*
X166163571Y-85852381D02*
X166163571Y-84852381D01*
X165782618Y-84852381D01*
X165687380Y-84900000D01*
X165639761Y-84947619D01*
X165592142Y-85042857D01*
X165592142Y-85185714D01*
X165639761Y-85280952D01*
X165687380Y-85328571D01*
X165782618Y-85376190D01*
X166163571Y-85376190D01*
X164973095Y-84852381D02*
X164782618Y-84852381D01*
X164687380Y-84900000D01*
X164592142Y-84995238D01*
X164544523Y-85185714D01*
X164544523Y-85519048D01*
X164592142Y-85709524D01*
X164687380Y-85804762D01*
X164782618Y-85852381D01*
X164973095Y-85852381D01*
X165068333Y-85804762D01*
X165163571Y-85709524D01*
X165211190Y-85519048D01*
X165211190Y-85185714D01*
X165163571Y-84995238D01*
X165068333Y-84900000D01*
X164973095Y-84852381D01*
X164115952Y-85852381D02*
X164115952Y-84852381D01*
X163782618Y-85566667D01*
X163449285Y-84852381D01*
X163449285Y-85852381D01*
X163020714Y-84947619D02*
X162973095Y-84900000D01*
X162877857Y-84852381D01*
X162639761Y-84852381D01*
X162544523Y-84900000D01*
X162496904Y-84947619D01*
X162449285Y-85042857D01*
X162449285Y-85138095D01*
X162496904Y-85280952D01*
X163068333Y-85852381D01*
X162449285Y-85852381D01*
X192222381Y-70953334D02*
X192222381Y-70477143D01*
X191222381Y-70477143D01*
X192222381Y-71810477D02*
X192222381Y-71239048D01*
X192222381Y-71524762D02*
X191222381Y-71524762D01*
X191365238Y-71429524D01*
X191460476Y-71334286D01*
X191508095Y-71239048D01*
X196310238Y-111926619D02*
X196405476Y-111879000D01*
X196500714Y-111783762D01*
X196643571Y-111640905D01*
X196738810Y-111593286D01*
X196834048Y-111593286D01*
X196786429Y-111831381D02*
X196881667Y-111783762D01*
X196976905Y-111688524D01*
X197024524Y-111498048D01*
X197024524Y-111164714D01*
X196976905Y-110974238D01*
X196881667Y-110879000D01*
X196786429Y-110831381D01*
X196595952Y-110831381D01*
X196500714Y-110879000D01*
X196405476Y-110974238D01*
X196357857Y-111164714D01*
X196357857Y-111498048D01*
X196405476Y-111688524D01*
X196500714Y-111783762D01*
X196595952Y-111831381D01*
X196786429Y-111831381D01*
X195405476Y-111831381D02*
X195976905Y-111831381D01*
X195691191Y-111831381D02*
X195691191Y-110831381D01*
X195786429Y-110974238D01*
X195881667Y-111069476D01*
X195976905Y-111117095D01*
X136437619Y-102139762D02*
X136390000Y-102044524D01*
X136294762Y-101949286D01*
X136151905Y-101806429D01*
X136104286Y-101711190D01*
X136104286Y-101615952D01*
X136342381Y-101663571D02*
X136294762Y-101568333D01*
X136199524Y-101473095D01*
X136009048Y-101425476D01*
X135675714Y-101425476D01*
X135485238Y-101473095D01*
X135390000Y-101568333D01*
X135342381Y-101663571D01*
X135342381Y-101854048D01*
X135390000Y-101949286D01*
X135485238Y-102044524D01*
X135675714Y-102092143D01*
X136009048Y-102092143D01*
X136199524Y-102044524D01*
X136294762Y-101949286D01*
X136342381Y-101854048D01*
X136342381Y-101663571D01*
X135437619Y-102473095D02*
X135390000Y-102520714D01*
X135342381Y-102615952D01*
X135342381Y-102854048D01*
X135390000Y-102949286D01*
X135437619Y-102996905D01*
X135532857Y-103044524D01*
X135628095Y-103044524D01*
X135770952Y-102996905D01*
X136342381Y-102425476D01*
X136342381Y-103044524D01*
X167735238Y-80557619D02*
X167830476Y-80510000D01*
X167925714Y-80414762D01*
X168068571Y-80271905D01*
X168163810Y-80224286D01*
X168259048Y-80224286D01*
X168211429Y-80462381D02*
X168306667Y-80414762D01*
X168401905Y-80319524D01*
X168449524Y-80129048D01*
X168449524Y-79795714D01*
X168401905Y-79605238D01*
X168306667Y-79510000D01*
X168211429Y-79462381D01*
X168020952Y-79462381D01*
X167925714Y-79510000D01*
X167830476Y-79605238D01*
X167782857Y-79795714D01*
X167782857Y-80129048D01*
X167830476Y-80319524D01*
X167925714Y-80414762D01*
X168020952Y-80462381D01*
X168211429Y-80462381D01*
X167449524Y-79462381D02*
X166830476Y-79462381D01*
X167163810Y-79843333D01*
X167020952Y-79843333D01*
X166925714Y-79890952D01*
X166878095Y-79938571D01*
X166830476Y-80033810D01*
X166830476Y-80271905D01*
X166878095Y-80367143D01*
X166925714Y-80414762D01*
X167020952Y-80462381D01*
X167306667Y-80462381D01*
X167401905Y-80414762D01*
X167449524Y-80367143D01*
X181776666Y-138247381D02*
X182110000Y-137771190D01*
X182348095Y-138247381D02*
X182348095Y-137247381D01*
X181967142Y-137247381D01*
X181871904Y-137295000D01*
X181824285Y-137342619D01*
X181776666Y-137437857D01*
X181776666Y-137580714D01*
X181824285Y-137675952D01*
X181871904Y-137723571D01*
X181967142Y-137771190D01*
X182348095Y-137771190D01*
X180824285Y-138247381D02*
X181395714Y-138247381D01*
X181110000Y-138247381D02*
X181110000Y-137247381D01*
X181205238Y-137390238D01*
X181300476Y-137485476D01*
X181395714Y-137533095D01*
X181776666Y-131897381D02*
X182110000Y-131421190D01*
X182348095Y-131897381D02*
X182348095Y-130897381D01*
X181967142Y-130897381D01*
X181871904Y-130945000D01*
X181824285Y-130992619D01*
X181776666Y-131087857D01*
X181776666Y-131230714D01*
X181824285Y-131325952D01*
X181871904Y-131373571D01*
X181967142Y-131421190D01*
X182348095Y-131421190D01*
X181395714Y-130992619D02*
X181348095Y-130945000D01*
X181252857Y-130897381D01*
X181014761Y-130897381D01*
X180919523Y-130945000D01*
X180871904Y-130992619D01*
X180824285Y-131087857D01*
X180824285Y-131183095D01*
X180871904Y-131325952D01*
X181443333Y-131897381D01*
X180824285Y-131897381D01*
X139866666Y-139517381D02*
X140200000Y-139041190D01*
X140438095Y-139517381D02*
X140438095Y-138517381D01*
X140057142Y-138517381D01*
X139961904Y-138565000D01*
X139914285Y-138612619D01*
X139866666Y-138707857D01*
X139866666Y-138850714D01*
X139914285Y-138945952D01*
X139961904Y-138993571D01*
X140057142Y-139041190D01*
X140438095Y-139041190D01*
X139533333Y-138517381D02*
X138914285Y-138517381D01*
X139247619Y-138898333D01*
X139104761Y-138898333D01*
X139009523Y-138945952D01*
X138961904Y-138993571D01*
X138914285Y-139088810D01*
X138914285Y-139326905D01*
X138961904Y-139422143D01*
X139009523Y-139469762D01*
X139104761Y-139517381D01*
X139390476Y-139517381D01*
X139485714Y-139469762D01*
X139533333Y-139422143D01*
X181776666Y-125547381D02*
X182110000Y-125071190D01*
X182348095Y-125547381D02*
X182348095Y-124547381D01*
X181967142Y-124547381D01*
X181871904Y-124595000D01*
X181824285Y-124642619D01*
X181776666Y-124737857D01*
X181776666Y-124880714D01*
X181824285Y-124975952D01*
X181871904Y-125023571D01*
X181967142Y-125071190D01*
X182348095Y-125071190D01*
X180871904Y-124547381D02*
X181348095Y-124547381D01*
X181395714Y-125023571D01*
X181348095Y-124975952D01*
X181252857Y-124928333D01*
X181014761Y-124928333D01*
X180919523Y-124975952D01*
X180871904Y-125023571D01*
X180824285Y-125118810D01*
X180824285Y-125356905D01*
X180871904Y-125452143D01*
X180919523Y-125499762D01*
X181014761Y-125547381D01*
X181252857Y-125547381D01*
X181348095Y-125499762D01*
X181395714Y-125452143D01*
X181776666Y-119197381D02*
X182110000Y-118721190D01*
X182348095Y-119197381D02*
X182348095Y-118197381D01*
X181967142Y-118197381D01*
X181871904Y-118245000D01*
X181824285Y-118292619D01*
X181776666Y-118387857D01*
X181776666Y-118530714D01*
X181824285Y-118625952D01*
X181871904Y-118673571D01*
X181967142Y-118721190D01*
X182348095Y-118721190D01*
X180919523Y-118197381D02*
X181110000Y-118197381D01*
X181205238Y-118245000D01*
X181252857Y-118292619D01*
X181348095Y-118435476D01*
X181395714Y-118625952D01*
X181395714Y-119006905D01*
X181348095Y-119102143D01*
X181300476Y-119149762D01*
X181205238Y-119197381D01*
X181014761Y-119197381D01*
X180919523Y-119149762D01*
X180871904Y-119102143D01*
X180824285Y-119006905D01*
X180824285Y-118768810D01*
X180871904Y-118673571D01*
X180919523Y-118625952D01*
X181014761Y-118578333D01*
X181205238Y-118578333D01*
X181300476Y-118625952D01*
X181348095Y-118673571D01*
X181395714Y-118768810D01*
X201461666Y-111577381D02*
X201795000Y-111101190D01*
X202033095Y-111577381D02*
X202033095Y-110577381D01*
X201652142Y-110577381D01*
X201556904Y-110625000D01*
X201509285Y-110672619D01*
X201461666Y-110767857D01*
X201461666Y-110910714D01*
X201509285Y-111005952D01*
X201556904Y-111053571D01*
X201652142Y-111101190D01*
X202033095Y-111101190D01*
X201128333Y-110577381D02*
X200461666Y-110577381D01*
X200890238Y-111577381D01*
X149391666Y-139517381D02*
X149725000Y-139041190D01*
X149963095Y-139517381D02*
X149963095Y-138517381D01*
X149582142Y-138517381D01*
X149486904Y-138565000D01*
X149439285Y-138612619D01*
X149391666Y-138707857D01*
X149391666Y-138850714D01*
X149439285Y-138945952D01*
X149486904Y-138993571D01*
X149582142Y-139041190D01*
X149963095Y-139041190D01*
X148820238Y-138945952D02*
X148915476Y-138898333D01*
X148963095Y-138850714D01*
X149010714Y-138755476D01*
X149010714Y-138707857D01*
X148963095Y-138612619D01*
X148915476Y-138565000D01*
X148820238Y-138517381D01*
X148629761Y-138517381D01*
X148534523Y-138565000D01*
X148486904Y-138612619D01*
X148439285Y-138707857D01*
X148439285Y-138755476D01*
X148486904Y-138850714D01*
X148534523Y-138898333D01*
X148629761Y-138945952D01*
X148820238Y-138945952D01*
X148915476Y-138993571D01*
X148963095Y-139041190D01*
X149010714Y-139136429D01*
X149010714Y-139326905D01*
X148963095Y-139422143D01*
X148915476Y-139469762D01*
X148820238Y-139517381D01*
X148629761Y-139517381D01*
X148534523Y-139469762D01*
X148486904Y-139422143D01*
X148439285Y-139326905D01*
X148439285Y-139136429D01*
X148486904Y-139041190D01*
X148534523Y-138993571D01*
X148629761Y-138945952D01*
X136342381Y-96512143D02*
X135866190Y-96178809D01*
X136342381Y-95940714D02*
X135342381Y-95940714D01*
X135342381Y-96321667D01*
X135390000Y-96416905D01*
X135437619Y-96464524D01*
X135532857Y-96512143D01*
X135675714Y-96512143D01*
X135770952Y-96464524D01*
X135818571Y-96416905D01*
X135866190Y-96321667D01*
X135866190Y-95940714D01*
X136342381Y-97464524D02*
X136342381Y-96893095D01*
X136342381Y-97178809D02*
X135342381Y-97178809D01*
X135485238Y-97083571D01*
X135580476Y-96988333D01*
X135628095Y-96893095D01*
X135437619Y-97845476D02*
X135390000Y-97893095D01*
X135342381Y-97988333D01*
X135342381Y-98226429D01*
X135390000Y-98321667D01*
X135437619Y-98369286D01*
X135532857Y-98416905D01*
X135628095Y-98416905D01*
X135770952Y-98369286D01*
X136342381Y-97797857D01*
X136342381Y-98416905D01*
X144157381Y-101592143D02*
X143681190Y-101258809D01*
X144157381Y-101020714D02*
X143157381Y-101020714D01*
X143157381Y-101401667D01*
X143205000Y-101496905D01*
X143252619Y-101544524D01*
X143347857Y-101592143D01*
X143490714Y-101592143D01*
X143585952Y-101544524D01*
X143633571Y-101496905D01*
X143681190Y-101401667D01*
X143681190Y-101020714D01*
X144157381Y-102544524D02*
X144157381Y-101973095D01*
X144157381Y-102258809D02*
X143157381Y-102258809D01*
X143300238Y-102163571D01*
X143395476Y-102068333D01*
X143443095Y-101973095D01*
X143157381Y-102877857D02*
X143157381Y-103496905D01*
X143538333Y-103163571D01*
X143538333Y-103306429D01*
X143585952Y-103401667D01*
X143633571Y-103449286D01*
X143728810Y-103496905D01*
X143966905Y-103496905D01*
X144062143Y-103449286D01*
X144109762Y-103401667D01*
X144157381Y-103306429D01*
X144157381Y-103020714D01*
X144109762Y-102925476D01*
X144062143Y-102877857D01*
X125737857Y-98437381D02*
X126071191Y-97961190D01*
X126309286Y-98437381D02*
X126309286Y-97437381D01*
X125928333Y-97437381D01*
X125833095Y-97485000D01*
X125785476Y-97532619D01*
X125737857Y-97627857D01*
X125737857Y-97770714D01*
X125785476Y-97865952D01*
X125833095Y-97913571D01*
X125928333Y-97961190D01*
X126309286Y-97961190D01*
X124785476Y-98437381D02*
X125356905Y-98437381D01*
X125071191Y-98437381D02*
X125071191Y-97437381D01*
X125166429Y-97580238D01*
X125261667Y-97675476D01*
X125356905Y-97723095D01*
X123928333Y-97770714D02*
X123928333Y-98437381D01*
X124166429Y-97389762D02*
X124404524Y-98104048D01*
X123785476Y-98104048D01*
X156467381Y-71747143D02*
X155991190Y-71413809D01*
X156467381Y-71175714D02*
X155467381Y-71175714D01*
X155467381Y-71556667D01*
X155515000Y-71651905D01*
X155562619Y-71699524D01*
X155657857Y-71747143D01*
X155800714Y-71747143D01*
X155895952Y-71699524D01*
X155943571Y-71651905D01*
X155991190Y-71556667D01*
X155991190Y-71175714D01*
X156467381Y-72699524D02*
X156467381Y-72128095D01*
X156467381Y-72413809D02*
X155467381Y-72413809D01*
X155610238Y-72318571D01*
X155705476Y-72223333D01*
X155753095Y-72128095D01*
X155467381Y-73604286D02*
X155467381Y-73128095D01*
X155943571Y-73080476D01*
X155895952Y-73128095D01*
X155848333Y-73223333D01*
X155848333Y-73461429D01*
X155895952Y-73556667D01*
X155943571Y-73604286D01*
X156038810Y-73651905D01*
X156276905Y-73651905D01*
X156372143Y-73604286D01*
X156419762Y-73556667D01*
X156467381Y-73461429D01*
X156467381Y-73223333D01*
X156419762Y-73128095D01*
X156372143Y-73080476D01*
X159392857Y-139517381D02*
X159726191Y-139041190D01*
X159964286Y-139517381D02*
X159964286Y-138517381D01*
X159583333Y-138517381D01*
X159488095Y-138565000D01*
X159440476Y-138612619D01*
X159392857Y-138707857D01*
X159392857Y-138850714D01*
X159440476Y-138945952D01*
X159488095Y-138993571D01*
X159583333Y-139041190D01*
X159964286Y-139041190D01*
X158440476Y-139517381D02*
X159011905Y-139517381D01*
X158726191Y-139517381D02*
X158726191Y-138517381D01*
X158821429Y-138660238D01*
X158916667Y-138755476D01*
X159011905Y-138803095D01*
X158107143Y-138517381D02*
X157440476Y-138517381D01*
X157869048Y-139517381D01*
X122372381Y-139692143D02*
X121896190Y-139358809D01*
X122372381Y-139120714D02*
X121372381Y-139120714D01*
X121372381Y-139501667D01*
X121420000Y-139596905D01*
X121467619Y-139644524D01*
X121562857Y-139692143D01*
X121705714Y-139692143D01*
X121800952Y-139644524D01*
X121848571Y-139596905D01*
X121896190Y-139501667D01*
X121896190Y-139120714D01*
X121467619Y-140073095D02*
X121420000Y-140120714D01*
X121372381Y-140215952D01*
X121372381Y-140454048D01*
X121420000Y-140549286D01*
X121467619Y-140596905D01*
X121562857Y-140644524D01*
X121658095Y-140644524D01*
X121800952Y-140596905D01*
X122372381Y-140025476D01*
X122372381Y-140644524D01*
X122372381Y-141596905D02*
X122372381Y-141025476D01*
X122372381Y-141311190D02*
X121372381Y-141311190D01*
X121515238Y-141215952D01*
X121610476Y-141120714D01*
X121658095Y-141025476D01*
X124912381Y-139692143D02*
X124436190Y-139358809D01*
X124912381Y-139120714D02*
X123912381Y-139120714D01*
X123912381Y-139501667D01*
X123960000Y-139596905D01*
X124007619Y-139644524D01*
X124102857Y-139692143D01*
X124245714Y-139692143D01*
X124340952Y-139644524D01*
X124388571Y-139596905D01*
X124436190Y-139501667D01*
X124436190Y-139120714D01*
X124007619Y-140073095D02*
X123960000Y-140120714D01*
X123912381Y-140215952D01*
X123912381Y-140454048D01*
X123960000Y-140549286D01*
X124007619Y-140596905D01*
X124102857Y-140644524D01*
X124198095Y-140644524D01*
X124340952Y-140596905D01*
X124912381Y-140025476D01*
X124912381Y-140644524D01*
X124007619Y-141025476D02*
X123960000Y-141073095D01*
X123912381Y-141168333D01*
X123912381Y-141406429D01*
X123960000Y-141501667D01*
X124007619Y-141549286D01*
X124102857Y-141596905D01*
X124198095Y-141596905D01*
X124340952Y-141549286D01*
X124912381Y-140977857D01*
X124912381Y-141596905D01*
X132532381Y-139692143D02*
X132056190Y-139358809D01*
X132532381Y-139120714D02*
X131532381Y-139120714D01*
X131532381Y-139501667D01*
X131580000Y-139596905D01*
X131627619Y-139644524D01*
X131722857Y-139692143D01*
X131865714Y-139692143D01*
X131960952Y-139644524D01*
X132008571Y-139596905D01*
X132056190Y-139501667D01*
X132056190Y-139120714D01*
X131627619Y-140073095D02*
X131580000Y-140120714D01*
X131532381Y-140215952D01*
X131532381Y-140454048D01*
X131580000Y-140549286D01*
X131627619Y-140596905D01*
X131722857Y-140644524D01*
X131818095Y-140644524D01*
X131960952Y-140596905D01*
X132532381Y-140025476D01*
X132532381Y-140644524D01*
X131865714Y-141501667D02*
X132532381Y-141501667D01*
X131484762Y-141263571D02*
X132199048Y-141025476D01*
X132199048Y-141644524D01*
X135072381Y-139692143D02*
X134596190Y-139358809D01*
X135072381Y-139120714D02*
X134072381Y-139120714D01*
X134072381Y-139501667D01*
X134120000Y-139596905D01*
X134167619Y-139644524D01*
X134262857Y-139692143D01*
X134405714Y-139692143D01*
X134500952Y-139644524D01*
X134548571Y-139596905D01*
X134596190Y-139501667D01*
X134596190Y-139120714D01*
X134167619Y-140073095D02*
X134120000Y-140120714D01*
X134072381Y-140215952D01*
X134072381Y-140454048D01*
X134120000Y-140549286D01*
X134167619Y-140596905D01*
X134262857Y-140644524D01*
X134358095Y-140644524D01*
X134500952Y-140596905D01*
X135072381Y-140025476D01*
X135072381Y-140644524D01*
X134072381Y-141549286D02*
X134072381Y-141073095D01*
X134548571Y-141025476D01*
X134500952Y-141073095D01*
X134453333Y-141168333D01*
X134453333Y-141406429D01*
X134500952Y-141501667D01*
X134548571Y-141549286D01*
X134643810Y-141596905D01*
X134881905Y-141596905D01*
X134977143Y-141549286D01*
X135024762Y-141501667D01*
X135072381Y-141406429D01*
X135072381Y-141168333D01*
X135024762Y-141073095D01*
X134977143Y-141025476D01*
X160277381Y-71747143D02*
X159801190Y-71413809D01*
X160277381Y-71175714D02*
X159277381Y-71175714D01*
X159277381Y-71556667D01*
X159325000Y-71651905D01*
X159372619Y-71699524D01*
X159467857Y-71747143D01*
X159610714Y-71747143D01*
X159705952Y-71699524D01*
X159753571Y-71651905D01*
X159801190Y-71556667D01*
X159801190Y-71175714D01*
X159372619Y-72128095D02*
X159325000Y-72175714D01*
X159277381Y-72270952D01*
X159277381Y-72509048D01*
X159325000Y-72604286D01*
X159372619Y-72651905D01*
X159467857Y-72699524D01*
X159563095Y-72699524D01*
X159705952Y-72651905D01*
X160277381Y-72080476D01*
X160277381Y-72699524D01*
X159277381Y-73556667D02*
X159277381Y-73366190D01*
X159325000Y-73270952D01*
X159372619Y-73223333D01*
X159515476Y-73128095D01*
X159705952Y-73080476D01*
X160086905Y-73080476D01*
X160182143Y-73128095D01*
X160229762Y-73175714D01*
X160277381Y-73270952D01*
X160277381Y-73461429D01*
X160229762Y-73556667D01*
X160182143Y-73604286D01*
X160086905Y-73651905D01*
X159848810Y-73651905D01*
X159753571Y-73604286D01*
X159705952Y-73556667D01*
X159658333Y-73461429D01*
X159658333Y-73270952D01*
X159705952Y-73175714D01*
X159753571Y-73128095D01*
X159848810Y-73080476D01*
X168917857Y-139517381D02*
X169251191Y-139041190D01*
X169489286Y-139517381D02*
X169489286Y-138517381D01*
X169108333Y-138517381D01*
X169013095Y-138565000D01*
X168965476Y-138612619D01*
X168917857Y-138707857D01*
X168917857Y-138850714D01*
X168965476Y-138945952D01*
X169013095Y-138993571D01*
X169108333Y-139041190D01*
X169489286Y-139041190D01*
X168536905Y-138612619D02*
X168489286Y-138565000D01*
X168394048Y-138517381D01*
X168155952Y-138517381D01*
X168060714Y-138565000D01*
X168013095Y-138612619D01*
X167965476Y-138707857D01*
X167965476Y-138803095D01*
X168013095Y-138945952D01*
X168584524Y-139517381D01*
X167965476Y-139517381D01*
X167632143Y-138517381D02*
X166965476Y-138517381D01*
X167394048Y-139517381D01*
X191777857Y-90622381D02*
X192111191Y-90146190D01*
X192349286Y-90622381D02*
X192349286Y-89622381D01*
X191968333Y-89622381D01*
X191873095Y-89670000D01*
X191825476Y-89717619D01*
X191777857Y-89812857D01*
X191777857Y-89955714D01*
X191825476Y-90050952D01*
X191873095Y-90098571D01*
X191968333Y-90146190D01*
X192349286Y-90146190D01*
X191396905Y-89717619D02*
X191349286Y-89670000D01*
X191254048Y-89622381D01*
X191015952Y-89622381D01*
X190920714Y-89670000D01*
X190873095Y-89717619D01*
X190825476Y-89812857D01*
X190825476Y-89908095D01*
X190873095Y-90050952D01*
X191444524Y-90622381D01*
X190825476Y-90622381D01*
X190254048Y-90050952D02*
X190349286Y-90003333D01*
X190396905Y-89955714D01*
X190444524Y-89860476D01*
X190444524Y-89812857D01*
X190396905Y-89717619D01*
X190349286Y-89670000D01*
X190254048Y-89622381D01*
X190063571Y-89622381D01*
X189968333Y-89670000D01*
X189920714Y-89717619D01*
X189873095Y-89812857D01*
X189873095Y-89860476D01*
X189920714Y-89955714D01*
X189968333Y-90003333D01*
X190063571Y-90050952D01*
X190254048Y-90050952D01*
X190349286Y-90098571D01*
X190396905Y-90146190D01*
X190444524Y-90241429D01*
X190444524Y-90431905D01*
X190396905Y-90527143D01*
X190349286Y-90574762D01*
X190254048Y-90622381D01*
X190063571Y-90622381D01*
X189968333Y-90574762D01*
X189920714Y-90527143D01*
X189873095Y-90431905D01*
X189873095Y-90241429D01*
X189920714Y-90146190D01*
X189968333Y-90098571D01*
X190063571Y-90050952D01*
X191777857Y-88082381D02*
X192111191Y-87606190D01*
X192349286Y-88082381D02*
X192349286Y-87082381D01*
X191968333Y-87082381D01*
X191873095Y-87130000D01*
X191825476Y-87177619D01*
X191777857Y-87272857D01*
X191777857Y-87415714D01*
X191825476Y-87510952D01*
X191873095Y-87558571D01*
X191968333Y-87606190D01*
X192349286Y-87606190D01*
X191396905Y-87177619D02*
X191349286Y-87130000D01*
X191254048Y-87082381D01*
X191015952Y-87082381D01*
X190920714Y-87130000D01*
X190873095Y-87177619D01*
X190825476Y-87272857D01*
X190825476Y-87368095D01*
X190873095Y-87510952D01*
X191444524Y-88082381D01*
X190825476Y-88082381D01*
X190349286Y-88082381D02*
X190158810Y-88082381D01*
X190063571Y-88034762D01*
X190015952Y-87987143D01*
X189920714Y-87844286D01*
X189873095Y-87653810D01*
X189873095Y-87272857D01*
X189920714Y-87177619D01*
X189968333Y-87130000D01*
X190063571Y-87082381D01*
X190254048Y-87082381D01*
X190349286Y-87130000D01*
X190396905Y-87177619D01*
X190444524Y-87272857D01*
X190444524Y-87510952D01*
X190396905Y-87606190D01*
X190349286Y-87653810D01*
X190254048Y-87701429D01*
X190063571Y-87701429D01*
X189968333Y-87653810D01*
X189920714Y-87606190D01*
X189873095Y-87510952D01*
X162377381Y-102227143D02*
X161901190Y-101893809D01*
X162377381Y-101655714D02*
X161377381Y-101655714D01*
X161377381Y-102036667D01*
X161425000Y-102131905D01*
X161472619Y-102179524D01*
X161567857Y-102227143D01*
X161710714Y-102227143D01*
X161805952Y-102179524D01*
X161853571Y-102131905D01*
X161901190Y-102036667D01*
X161901190Y-101655714D01*
X161377381Y-102560476D02*
X161377381Y-103179524D01*
X161758333Y-102846190D01*
X161758333Y-102989048D01*
X161805952Y-103084286D01*
X161853571Y-103131905D01*
X161948810Y-103179524D01*
X162186905Y-103179524D01*
X162282143Y-103131905D01*
X162329762Y-103084286D01*
X162377381Y-102989048D01*
X162377381Y-102703333D01*
X162329762Y-102608095D01*
X162282143Y-102560476D01*
X162377381Y-104131905D02*
X162377381Y-103560476D01*
X162377381Y-103846190D02*
X161377381Y-103846190D01*
X161520238Y-103750952D01*
X161615476Y-103655714D01*
X161663095Y-103560476D01*
X158567381Y-102227143D02*
X158091190Y-101893809D01*
X158567381Y-101655714D02*
X157567381Y-101655714D01*
X157567381Y-102036667D01*
X157615000Y-102131905D01*
X157662619Y-102179524D01*
X157757857Y-102227143D01*
X157900714Y-102227143D01*
X157995952Y-102179524D01*
X158043571Y-102131905D01*
X158091190Y-102036667D01*
X158091190Y-101655714D01*
X157567381Y-102560476D02*
X157567381Y-103179524D01*
X157948333Y-102846190D01*
X157948333Y-102989048D01*
X157995952Y-103084286D01*
X158043571Y-103131905D01*
X158138810Y-103179524D01*
X158376905Y-103179524D01*
X158472143Y-103131905D01*
X158519762Y-103084286D01*
X158567381Y-102989048D01*
X158567381Y-102703333D01*
X158519762Y-102608095D01*
X158472143Y-102560476D01*
X157662619Y-103560476D02*
X157615000Y-103608095D01*
X157567381Y-103703333D01*
X157567381Y-103941429D01*
X157615000Y-104036667D01*
X157662619Y-104084286D01*
X157757857Y-104131905D01*
X157853095Y-104131905D01*
X157995952Y-104084286D01*
X158567381Y-103512857D01*
X158567381Y-104131905D01*
X173362857Y-80022381D02*
X173696191Y-79546190D01*
X173934286Y-80022381D02*
X173934286Y-79022381D01*
X173553333Y-79022381D01*
X173458095Y-79070000D01*
X173410476Y-79117619D01*
X173362857Y-79212857D01*
X173362857Y-79355714D01*
X173410476Y-79450952D01*
X173458095Y-79498571D01*
X173553333Y-79546190D01*
X173934286Y-79546190D01*
X173029524Y-79022381D02*
X172410476Y-79022381D01*
X172743810Y-79403333D01*
X172600952Y-79403333D01*
X172505714Y-79450952D01*
X172458095Y-79498571D01*
X172410476Y-79593810D01*
X172410476Y-79831905D01*
X172458095Y-79927143D01*
X172505714Y-79974762D01*
X172600952Y-80022381D01*
X172886667Y-80022381D01*
X172981905Y-79974762D01*
X173029524Y-79927143D01*
X171839048Y-79450952D02*
X171934286Y-79403333D01*
X171981905Y-79355714D01*
X172029524Y-79260476D01*
X172029524Y-79212857D01*
X171981905Y-79117619D01*
X171934286Y-79070000D01*
X171839048Y-79022381D01*
X171648571Y-79022381D01*
X171553333Y-79070000D01*
X171505714Y-79117619D01*
X171458095Y-79212857D01*
X171458095Y-79260476D01*
X171505714Y-79355714D01*
X171553333Y-79403333D01*
X171648571Y-79450952D01*
X171839048Y-79450952D01*
X171934286Y-79498571D01*
X171981905Y-79546190D01*
X172029524Y-79641429D01*
X172029524Y-79831905D01*
X171981905Y-79927143D01*
X171934286Y-79974762D01*
X171839048Y-80022381D01*
X171648571Y-80022381D01*
X171553333Y-79974762D01*
X171505714Y-79927143D01*
X171458095Y-79831905D01*
X171458095Y-79641429D01*
X171505714Y-79546190D01*
X171553333Y-79498571D01*
X171648571Y-79450952D01*
X130262381Y-80518095D02*
X131071905Y-80518095D01*
X131167143Y-80565714D01*
X131214762Y-80613333D01*
X131262381Y-80708571D01*
X131262381Y-80899048D01*
X131214762Y-80994286D01*
X131167143Y-81041905D01*
X131071905Y-81089524D01*
X130262381Y-81089524D01*
X130595714Y-81994286D02*
X131262381Y-81994286D01*
X130214762Y-81756190D02*
X130929048Y-81518095D01*
X130929048Y-82137143D01*
X155027381Y-80518095D02*
X155836905Y-80518095D01*
X155932143Y-80565714D01*
X155979762Y-80613333D01*
X156027381Y-80708571D01*
X156027381Y-80899048D01*
X155979762Y-80994286D01*
X155932143Y-81041905D01*
X155836905Y-81089524D01*
X155027381Y-81089524D01*
X155027381Y-81994286D02*
X155027381Y-81803809D01*
X155075000Y-81708571D01*
X155122619Y-81660952D01*
X155265476Y-81565714D01*
X155455952Y-81518095D01*
X155836905Y-81518095D01*
X155932143Y-81565714D01*
X155979762Y-81613333D01*
X156027381Y-81708571D01*
X156027381Y-81899048D01*
X155979762Y-81994286D01*
X155932143Y-82041905D01*
X155836905Y-82089524D01*
X155598810Y-82089524D01*
X155503571Y-82041905D01*
X155455952Y-81994286D01*
X155408333Y-81899048D01*
X155408333Y-81708571D01*
X155455952Y-81613333D01*
X155503571Y-81565714D01*
X155598810Y-81518095D01*
X181101905Y-81692381D02*
X181101905Y-82501905D01*
X181054286Y-82597143D01*
X181006667Y-82644762D01*
X180911429Y-82692381D01*
X180720952Y-82692381D01*
X180625714Y-82644762D01*
X180578095Y-82597143D01*
X180530476Y-82501905D01*
X180530476Y-81692381D01*
X180006667Y-82692381D02*
X179816191Y-82692381D01*
X179720952Y-82644762D01*
X179673333Y-82597143D01*
X179578095Y-82454286D01*
X179530476Y-82263810D01*
X179530476Y-81882857D01*
X179578095Y-81787619D01*
X179625714Y-81740000D01*
X179720952Y-81692381D01*
X179911429Y-81692381D01*
X180006667Y-81740000D01*
X180054286Y-81787619D01*
X180101905Y-81882857D01*
X180101905Y-82120952D01*
X180054286Y-82216190D01*
X180006667Y-82263810D01*
X179911429Y-82311429D01*
X179720952Y-82311429D01*
X179625714Y-82263810D01*
X179578095Y-82216190D01*
X179530476Y-82120952D01*
X166973095Y-99472381D02*
X166973095Y-100281905D01*
X166925476Y-100377143D01*
X166877857Y-100424762D01*
X166782619Y-100472381D01*
X166592142Y-100472381D01*
X166496904Y-100424762D01*
X166449285Y-100377143D01*
X166401666Y-100281905D01*
X166401666Y-99472381D01*
X165401666Y-100472381D02*
X165973095Y-100472381D01*
X165687381Y-100472381D02*
X165687381Y-99472381D01*
X165782619Y-99615238D01*
X165877857Y-99710476D01*
X165973095Y-99758095D01*
X164782619Y-99472381D02*
X164687380Y-99472381D01*
X164592142Y-99520000D01*
X164544523Y-99567619D01*
X164496904Y-99662857D01*
X164449285Y-99853333D01*
X164449285Y-100091429D01*
X164496904Y-100281905D01*
X164544523Y-100377143D01*
X164592142Y-100424762D01*
X164687380Y-100472381D01*
X164782619Y-100472381D01*
X164877857Y-100424762D01*
X164925476Y-100377143D01*
X164973095Y-100281905D01*
X165020714Y-100091429D01*
X165020714Y-99853333D01*
X164973095Y-99662857D01*
X164925476Y-99567619D01*
X164877857Y-99520000D01*
X164782619Y-99472381D01*
X182983095Y-109672381D02*
X182983095Y-108672381D01*
X182745000Y-108672381D01*
X182602142Y-108720000D01*
X182506904Y-108815238D01*
X182459285Y-108910476D01*
X182411666Y-109100952D01*
X182411666Y-109243810D01*
X182459285Y-109434286D01*
X182506904Y-109529524D01*
X182602142Y-109624762D01*
X182745000Y-109672381D01*
X182983095Y-109672381D01*
X181459285Y-109672381D02*
X182030714Y-109672381D01*
X181745000Y-109672381D02*
X181745000Y-108672381D01*
X181840238Y-108815238D01*
X181935476Y-108910476D01*
X182030714Y-108958095D01*
X195048095Y-81097381D02*
X195048095Y-80097381D01*
X194810000Y-80097381D01*
X194667142Y-80145000D01*
X194571904Y-80240238D01*
X194524285Y-80335476D01*
X194476666Y-80525952D01*
X194476666Y-80668810D01*
X194524285Y-80859286D01*
X194571904Y-80954524D01*
X194667142Y-81049762D01*
X194810000Y-81097381D01*
X195048095Y-81097381D01*
X193619523Y-80430714D02*
X193619523Y-81097381D01*
X193857619Y-80049762D02*
X194095714Y-80764048D01*
X193476666Y-80764048D01*
X176633095Y-93162381D02*
X176633095Y-92162381D01*
X176395000Y-92162381D01*
X176252142Y-92210000D01*
X176156904Y-92305238D01*
X176109285Y-92400476D01*
X176061666Y-92590952D01*
X176061666Y-92733810D01*
X176109285Y-92924286D01*
X176156904Y-93019524D01*
X176252142Y-93114762D01*
X176395000Y-93162381D01*
X176633095Y-93162381D01*
X175156904Y-92162381D02*
X175633095Y-92162381D01*
X175680714Y-92638571D01*
X175633095Y-92590952D01*
X175537857Y-92543333D01*
X175299761Y-92543333D01*
X175204523Y-92590952D01*
X175156904Y-92638571D01*
X175109285Y-92733810D01*
X175109285Y-92971905D01*
X175156904Y-93067143D01*
X175204523Y-93114762D01*
X175299761Y-93162381D01*
X175537857Y-93162381D01*
X175633095Y-93114762D01*
X175680714Y-93067143D01*
X176633095Y-99512381D02*
X176633095Y-98512381D01*
X176395000Y-98512381D01*
X176252142Y-98560000D01*
X176156904Y-98655238D01*
X176109285Y-98750476D01*
X176061666Y-98940952D01*
X176061666Y-99083810D01*
X176109285Y-99274286D01*
X176156904Y-99369524D01*
X176252142Y-99464762D01*
X176395000Y-99512381D01*
X176633095Y-99512381D01*
X175204523Y-98512381D02*
X175395000Y-98512381D01*
X175490238Y-98560000D01*
X175537857Y-98607619D01*
X175633095Y-98750476D01*
X175680714Y-98940952D01*
X175680714Y-99321905D01*
X175633095Y-99417143D01*
X175585476Y-99464762D01*
X175490238Y-99512381D01*
X175299761Y-99512381D01*
X175204523Y-99464762D01*
X175156904Y-99417143D01*
X175109285Y-99321905D01*
X175109285Y-99083810D01*
X175156904Y-98988571D01*
X175204523Y-98940952D01*
X175299761Y-98893333D01*
X175490238Y-98893333D01*
X175585476Y-98940952D01*
X175633095Y-98988571D01*
X175680714Y-99083810D01*
X204878571Y-98020239D02*
X204926190Y-98163096D01*
X204973810Y-98210715D01*
X205069048Y-98258334D01*
X205211905Y-98258334D01*
X205307143Y-98210715D01*
X205354762Y-98163096D01*
X205402381Y-98067858D01*
X205402381Y-97686905D01*
X204402381Y-97686905D01*
X204402381Y-98020239D01*
X204450000Y-98115477D01*
X204497619Y-98163096D01*
X204592857Y-98210715D01*
X204688095Y-98210715D01*
X204783333Y-98163096D01*
X204830952Y-98115477D01*
X204878571Y-98020239D01*
X204878571Y-97686905D01*
X205402381Y-99210715D02*
X205402381Y-98639286D01*
X205402381Y-98925000D02*
X204402381Y-98925000D01*
X204545238Y-98829762D01*
X204640476Y-98734524D01*
X204688095Y-98639286D01*
X200493095Y-62952381D02*
X200493095Y-63761905D01*
X200445476Y-63857143D01*
X200397857Y-63904762D01*
X200302619Y-63952381D01*
X200112142Y-63952381D01*
X200016904Y-63904762D01*
X199969285Y-63857143D01*
X199921666Y-63761905D01*
X199921666Y-62952381D01*
X199493095Y-63904762D02*
X199350238Y-63952381D01*
X199112142Y-63952381D01*
X199016904Y-63904762D01*
X198969285Y-63857143D01*
X198921666Y-63761905D01*
X198921666Y-63666667D01*
X198969285Y-63571429D01*
X199016904Y-63523810D01*
X199112142Y-63476190D01*
X199302619Y-63428571D01*
X199397857Y-63380952D01*
X199445476Y-63333333D01*
X199493095Y-63238095D01*
X199493095Y-63142857D01*
X199445476Y-63047619D01*
X199397857Y-63000000D01*
X199302619Y-62952381D01*
X199064523Y-62952381D01*
X198921666Y-63000000D01*
X198159761Y-63428571D02*
X198016904Y-63476190D01*
X197969285Y-63523810D01*
X197921666Y-63619048D01*
X197921666Y-63761905D01*
X197969285Y-63857143D01*
X198016904Y-63904762D01*
X198112142Y-63952381D01*
X198493095Y-63952381D01*
X198493095Y-62952381D01*
X198159761Y-62952381D01*
X198064523Y-63000000D01*
X198016904Y-63047619D01*
X197969285Y-63142857D01*
X197969285Y-63238095D01*
X198016904Y-63333333D01*
X198064523Y-63380952D01*
X198159761Y-63428571D01*
X198493095Y-63428571D01*
X196969285Y-63952381D02*
X197540714Y-63952381D01*
X197255000Y-63952381D02*
X197255000Y-62952381D01*
X197350238Y-63095238D01*
X197445476Y-63190476D01*
X197540714Y-63238095D01*
M02*
