M48
;DRILL file {KiCad 4.0.2-stable} date 01/06/2016 13:43:36
;FORMAT={-:-/ absolute / inch / decimal}
FMAT,2
INCH,TZ
T1C0.014
T2C0.016
T3C0.030
T4C0.031
T5C0.032
T6C0.039
T7C0.040
T8C0.049
T9C0.051
T10C0.055
T11C0.075
T12C0.120
%
G90
G05
M72
T1
X6.3232Y-3.8283
X6.3232Y-3.8717
T2
X4.8318Y-4.4382
X4.9409Y-4.585
X4.9895Y-4.0081
X5.0137Y-3.8578
X5.2676Y-4.6077
X5.3481Y-4.1373
X5.3509Y-3.5126
X5.4223Y-4.8864
X5.438Y-4.5386
X5.5004Y-3.6809
X5.5049Y-3.55
X5.5469Y-3.5262
X5.5745Y-3.7614
X5.5893Y-4.0291
X5.5902Y-3.6894
X5.6131Y-3.6015
X5.6231Y-3.5688
X5.653Y-2.9532
X5.653Y-3.4159
X5.6705Y-4.1644
X5.8225Y-2.8414
X5.9522Y-4.6719
X6.0806Y-4.15
X6.0856Y-4.5698
X6.0992Y-3.8283
X6.1813Y-2.8839
X6.2783Y-4.4722
X6.3258Y-3.1279
X6.3631Y-3.9883
X6.369Y-4.0823
X6.3717Y-3.6465
X6.3724Y-3.449
X6.3836Y-4.049
X6.4172Y-3.6056
X6.4189Y-2.8913
X6.4709Y-2.8188
X6.4784Y-3.8255
X6.5571Y-3.396
X6.5659Y-4.4135
X6.5686Y-3.6701
X6.6571Y-3.6939
X6.6617Y-3.0569
X6.6685Y-4.0328
X6.672Y-3.9994
X6.683Y-3.5233
X6.6879Y-3.796
X6.6883Y-3.4929
X6.6965Y-3.9761
X6.7202Y-3.8074
X6.7657Y-3.149
X6.7726Y-3.3371
X6.7739Y-3.4502
X6.8758Y-3.3966
X6.8912Y-3.4317
X6.923Y-4.0775
X6.9289Y-3.6165
X6.9353Y-3.1864
X6.9374Y-3.1554
X6.9558Y-3.8565
X6.9594Y-3.4602
X6.9681Y-4.0894
X7.0582Y-3.709
X7.1131Y-3.3775
X7.1238Y-3.7704
X7.1379Y-3.3528
X7.2008Y-3.911
X7.2152Y-4.6309
X7.2169Y-3.4924
X7.238Y-4.2135
X7.2521Y-3.3344
X7.3168Y-3.0617
X7.3328Y-3.837
X7.417Y-3.2385
X7.5716Y-3.3444
X7.5725Y-3.4952
X7.6289Y-3.3159
X7.65Y-2.9584
X7.675Y-3.108
X7.6832Y-2.7663
X7.7758Y-2.8119
X7.8693Y-2.7781
X7.8768Y-2.569
X8.0662Y-4.4249
T3
X4.9319Y-4.5069
X5.0106Y-4.5069
X5.0894Y-4.5069
X5.1681Y-4.5069
T4
X4.5Y-5.275
X4.6378Y-5.275
X4.7754Y-3.95
X4.9281Y-2.8
X5.0746Y-3.95
X5.125Y-2.8
X5.3266Y-2.8
X5.425Y-2.8
X5.8872Y-2.8
X6.025Y-2.8
X6.2Y-3.625
X6.2Y-3.7037
T5
X5.5Y-4.975
X5.5Y-5.2745
X5.6Y-4.975
X5.6Y-5.275
X5.7Y-4.975
X5.7Y-5.275
X5.8Y-4.975
X5.8Y-5.275
T6
X5.497Y-5.3864
X5.497Y-5.5636
X5.753Y-5.3864
X5.753Y-5.5636
X5.872Y-5.3864
X5.872Y-5.5636
X6.122Y-4.2864
X6.122Y-4.4636
X6.128Y-5.3864
X6.128Y-5.5636
X6.247Y-5.3864
X6.247Y-5.5636
X6.378Y-4.2864
X6.378Y-4.4636
X6.503Y-5.3864
X6.503Y-5.5636
X6.622Y-5.3864
X6.622Y-5.5636
X6.878Y-5.3864
X6.878Y-5.5636
X7.25Y-4.8
X7.25Y-5.05
X7.25Y-5.3
X7.25Y-5.55
X7.35Y-4.8
X7.35Y-5.05
X7.35Y-5.3
X7.35Y-5.55
T7
X4.55Y-3.725
X4.55Y-3.825
X4.55Y-3.925
X4.55Y-4.025
X4.55Y-4.125
X4.55Y-4.225
X4.55Y-4.325
X4.55Y-4.425
X4.55Y-4.525
X4.55Y-4.625
X4.55Y-4.725
X4.55Y-4.825
X4.55Y-4.925
X4.55Y-5.025
X4.9Y-4.3
X4.9Y-4.4
X5.Y-4.3
X5.Y-4.4
X5.1Y-4.3
X5.1Y-4.4
X5.2Y-4.3
X5.2Y-4.4
X5.25Y-3.425
X5.25Y-3.525
X5.25Y-3.625
X5.25Y-3.725
X5.25Y-3.825
X5.25Y-3.925
X5.25Y-4.025
X5.5Y-4.525
X5.5Y-4.625
X5.5Y-4.725
X5.5Y-5.175
X5.6Y-4.525
X5.6Y-4.625
X5.6Y-4.725
X5.6Y-5.175
X5.7Y-4.525
X5.7Y-4.625
X5.7Y-4.725
X5.7Y-5.175
X5.8Y-4.525
X5.8Y-4.625
X5.8Y-4.725
X5.8Y-5.175
X5.975Y-4.15
X6.025Y-5.25
X6.125Y-5.25
X6.175Y-3.05
X6.175Y-3.15
X6.175Y-3.25
X6.175Y-3.35
X6.225Y-5.25
X6.45Y-5.25
X6.525Y-2.725
X6.525Y-2.9
X6.525Y-4.225
X6.55Y-5.25
X6.625Y-2.725
X6.625Y-2.9
X6.625Y-4.225
X6.65Y-5.25
X6.675Y-4.375
X6.675Y-4.475
X6.675Y-4.575
X6.725Y-2.725
X6.725Y-2.9
X6.725Y-4.225
X6.825Y-2.725
X6.825Y-2.9
X6.825Y-4.225
X6.875Y-5.25
X6.925Y-2.725
X6.925Y-2.9
X6.925Y-4.225
X6.975Y-5.25
X7.025Y-2.725
X7.025Y-2.9
X7.075Y-5.25
X7.1Y-4.375
X7.1Y-4.475
X7.1Y-4.575
X7.125Y-2.725
X7.125Y-2.9
X7.225Y-2.725
X7.225Y-2.9
X7.325Y-2.725
X7.325Y-2.9
X7.425Y-2.725
X7.425Y-2.9
X7.525Y-2.9
X7.625Y-2.9
X7.725Y-2.9
X7.825Y-2.9
X7.925Y-2.9
X8.025Y-2.9
X8.1Y-3.075
X8.1Y-3.175
X8.1Y-3.275
X8.1Y-3.375
X8.1Y-3.475
X8.1Y-3.575
X8.1Y-3.675
X8.1Y-3.775
X8.1Y-3.875
X8.1Y-3.975
X8.1Y-4.075
X8.1Y-4.175
X8.1Y-4.275
T8
X4.6Y-2.9
X4.6Y-3.1
X7.525Y-5.4
X7.725Y-5.4
X7.925Y-5.4
T9
X6.0266Y-5.0719
X6.125Y-4.6781
X6.2234Y-5.0719
X6.4516Y-5.0719
X6.55Y-4.6781
X6.6484Y-5.0719
X6.8766Y-5.0719
X6.975Y-4.6781
X7.0734Y-5.0719
X7.4888Y-4.5848
X7.4888Y-5.0652
X7.6766Y-3.4219
X7.775Y-3.0281
X7.8734Y-3.4219
X7.9612Y-4.5848
X7.9612Y-5.0652
T10
X7.725Y-4.5061
T11
X7.75Y-3.615
X7.75Y-4.135
T12
X4.5Y-2.675
X4.5Y-5.55
X8.15Y-2.675
X8.15Y-5.55
T7
X4.725Y-3.37G85X4.725Y-3.43
G05
X4.785Y-3.6G85X4.845Y-3.6
G05
X4.965Y-3.37G85X4.965Y-3.43
G05
T0
M30
