M48
;DRILL file {KiCad 4.0.2-stable} date 01/06/2016 13:43:10
;FORMAT={-:-/ absolute / metric / decimal}
FMAT,2
METRIC,TZ
T1C0.350
T2C0.400
T3C0.762
T4C0.800
T5C0.800
T6C1.001
T7C1.016
T8C1.250
T9C1.300
T10C1.400
T11C1.900
T12C3.048
%
G90
G05
M71
T1
X160.61Y-97.24
X160.61Y-98.34
T2
X122.729Y-112.731
X125.499Y-116.459
X126.734Y-101.806
X127.347Y-97.988
X133.796Y-117.034
X135.841Y-105.088
X135.912Y-89.221
X137.726Y-124.113
X138.125Y-115.281
X139.709Y-93.494
X139.823Y-90.17
X140.892Y-89.566
X141.592Y-95.54
X141.969Y-102.34
X141.992Y-93.71
X142.573Y-91.477
X142.826Y-90.647
X143.587Y-75.012
X143.587Y-86.763
X144.03Y-105.775
X147.892Y-72.17
X151.185Y-118.665
X154.448Y-105.41
X154.575Y-116.074
X154.92Y-97.24
X157.006Y-73.25
X159.468Y-113.595
X160.675Y-79.448
X161.622Y-101.304
X161.772Y-103.689
X161.841Y-92.622
X161.86Y-87.605
X162.143Y-102.845
X162.997Y-91.583
X163.041Y-73.439
X164.36Y-71.597
X164.551Y-97.167
X166.55Y-86.257
X166.773Y-112.102
X166.842Y-93.222
X169.09Y-93.825
X169.207Y-77.645
X169.379Y-102.434
X169.468Y-101.585
X169.748Y-89.493
X169.872Y-96.419
X169.883Y-88.72
X170.092Y-100.993
X170.694Y-96.708
X171.849Y-79.984
X172.025Y-84.762
X172.058Y-87.636
X174.645Y-86.274
X175.036Y-87.165
X175.844Y-103.569
X175.994Y-91.859
X176.156Y-80.933
X176.21Y-80.146
X176.678Y-97.954
X176.768Y-87.889
X176.989Y-103.87
X179.278Y-94.208
X180.674Y-85.789
X180.944Y-95.768
X181.302Y-85.16
X182.9Y-99.339
X183.266Y-117.626
X183.31Y-88.707
X183.846Y-107.024
X184.203Y-84.693
X185.846Y-77.768
X186.252Y-97.46
X188.392Y-82.258
X192.318Y-84.947
X192.342Y-88.778
X193.775Y-84.225
X194.31Y-75.142
X194.945Y-78.943
X195.152Y-70.264
X197.506Y-71.423
X199.881Y-70.565
X200.07Y-65.253
X204.882Y-112.392
T3
X125.27Y-114.475
X127.27Y-114.475
X129.27Y-114.475
X131.27Y-114.475
T4
X114.3Y-133.985
X117.8Y-133.985
X121.295Y-100.33
X125.175Y-71.12
X128.895Y-100.33
X130.175Y-71.12
X135.295Y-71.12
X137.795Y-71.12
X149.535Y-71.12
X153.035Y-71.12
X157.48Y-92.075
X157.48Y-94.075
T5
X139.7Y-126.365
X139.7Y-133.972
X142.24Y-126.365
X142.24Y-133.985
X144.78Y-126.365
X144.78Y-133.985
X147.32Y-126.365
X147.32Y-133.985
T6
X139.624Y-136.815
X139.624Y-141.315
X146.126Y-136.815
X146.126Y-141.315
X149.149Y-136.815
X149.149Y-141.315
X155.499Y-108.875
X155.499Y-113.375
X155.651Y-136.815
X155.651Y-141.315
X158.674Y-136.815
X158.674Y-141.315
X162.001Y-108.875
X162.001Y-113.375
X165.176Y-136.815
X165.176Y-141.315
X168.199Y-136.815
X168.199Y-141.315
X174.701Y-136.815
X174.701Y-141.315
X184.15Y-121.92
X184.15Y-128.27
X184.15Y-134.62
X184.15Y-140.97
X186.69Y-121.92
X186.69Y-128.27
X186.69Y-134.62
X186.69Y-140.97
T7
X115.57Y-94.615
X115.57Y-97.155
X115.57Y-99.695
X115.57Y-102.235
X115.57Y-104.775
X115.57Y-107.315
X115.57Y-109.855
X115.57Y-112.395
X115.57Y-114.935
X115.57Y-117.475
X115.57Y-120.015
X115.57Y-122.555
X115.57Y-125.095
X115.57Y-127.635
X124.46Y-109.22
X124.46Y-111.76
X127.Y-109.22
X127.Y-111.76
X129.54Y-109.22
X129.54Y-111.76
X132.08Y-109.22
X132.08Y-111.76
X133.35Y-86.995
X133.35Y-89.535
X133.35Y-92.075
X133.35Y-94.615
X133.35Y-97.155
X133.35Y-99.695
X133.35Y-102.235
X139.7Y-114.935
X139.7Y-117.475
X139.7Y-120.015
X139.7Y-131.445
X142.24Y-114.935
X142.24Y-117.475
X142.24Y-120.015
X142.24Y-131.445
X144.78Y-114.935
X144.78Y-117.475
X144.78Y-120.015
X144.78Y-131.445
X147.32Y-114.935
X147.32Y-117.475
X147.32Y-120.015
X147.32Y-131.445
X151.765Y-105.41
X153.035Y-133.35
X155.575Y-133.35
X156.845Y-77.47
X156.845Y-80.01
X156.845Y-82.55
X156.845Y-85.09
X158.115Y-133.35
X163.83Y-133.35
X165.735Y-69.215
X165.735Y-73.66
X165.735Y-107.315
X166.37Y-133.35
X168.275Y-69.215
X168.275Y-73.66
X168.275Y-107.315
X168.91Y-133.35
X169.545Y-111.125
X169.545Y-113.665
X169.545Y-116.205
X170.815Y-69.215
X170.815Y-73.66
X170.815Y-107.315
X173.355Y-69.215
X173.355Y-73.66
X173.355Y-107.315
X174.625Y-133.35
X175.895Y-69.215
X175.895Y-73.66
X175.895Y-107.315
X177.165Y-133.35
X178.435Y-69.215
X178.435Y-73.66
X179.705Y-133.35
X180.34Y-111.125
X180.34Y-113.665
X180.34Y-116.205
X180.975Y-69.215
X180.975Y-73.66
X183.515Y-69.215
X183.515Y-73.66
X186.055Y-69.215
X186.055Y-73.66
X188.595Y-69.215
X188.595Y-73.66
X191.135Y-73.66
X193.675Y-73.66
X196.215Y-73.66
X198.755Y-73.66
X201.295Y-73.66
X203.835Y-73.66
X205.74Y-78.105
X205.74Y-80.645
X205.74Y-83.185
X205.74Y-85.725
X205.74Y-88.265
X205.74Y-90.805
X205.74Y-93.345
X205.74Y-95.885
X205.74Y-98.425
X205.74Y-100.965
X205.74Y-103.505
X205.74Y-106.045
X205.74Y-108.585
T8
X116.84Y-73.66
X116.84Y-78.74
X191.135Y-137.16
X196.215Y-137.16
X201.295Y-137.16
T9
X153.075Y-128.825
X155.575Y-118.825
X158.075Y-128.825
X163.87Y-128.825
X166.37Y-118.825
X168.87Y-128.825
X174.665Y-128.825
X177.165Y-118.825
X179.665Y-128.825
X190.215Y-116.455
X190.215Y-128.655
X194.985Y-86.915
X197.485Y-76.915
X199.985Y-86.915
X202.215Y-116.455
X202.215Y-128.655
T10
X196.215Y-114.455
T11
X196.85Y-91.821
X196.85Y-105.029
T12
X114.3Y-67.945
X114.3Y-140.97
X207.01Y-67.945
X207.01Y-140.97
T7
X120.015Y-85.598G85X120.015Y-87.122
G05
X121.539Y-91.44G85X123.063Y-91.44
G05
X126.111Y-85.598G85X126.111Y-87.122
G05
T0
M30
